<svg width="77" height="25" viewBox="0 0 77 25" fill="none" xmlns="http://www.w3.org/2000/svg">
<g clip-path="url(#clip0)">
<path d="M25.3417 6.96715V2.55539L24.6659 2.48306C24.5211 2.45895 24.4487 2.24198 24.4487 2.02501C24.4487 1.85625 24.497 1.66339 24.6177 1.66339H27.1518C27.2725 1.66339 27.3208 1.83215 27.3208 2.02501C27.3208 2.21787 27.2484 2.43485 27.1036 2.45895L26.5243 2.53128V4.17062H29.2516V2.53128L28.5758 2.45895C28.431 2.43485 28.3586 2.21787 28.3586 2.0009C28.3586 1.83215 28.4069 1.63928 28.5275 1.63928H31.0617C31.1824 1.63928 31.2306 1.80804 31.2306 2.0009C31.2306 2.19377 31.1582 2.41074 31.0376 2.43485L30.4583 2.50717V6.94304L31.1341 7.01537C31.2789 7.03948 31.3272 7.25645 31.3272 7.44931C31.3272 7.64218 31.2789 7.81093 31.1582 7.81093H28.6241C28.5034 7.81093 28.4551 7.64218 28.4551 7.44931C28.4551 7.25645 28.5275 7.01537 28.6723 7.01537L29.2516 6.94304V5.06262H26.5243V6.94304L27.2001 7.01537C27.3449 7.03948 27.4173 7.25645 27.4173 7.44931C27.4173 7.64218 27.3691 7.81093 27.2484 7.81093H24.7142C24.5694 7.81093 24.5453 7.64218 24.5453 7.44931C24.5453 7.25645 24.6177 7.01537 24.7625 7.01537L25.3417 6.96715Z" fill="#F7F7F7"/>
<path d="M35.1502 5.1109V5.01447C35.1502 4.43587 34.7882 4.26712 34.2089 4.26712C33.6996 4.27945 33.1951 4.36886 32.7126 4.53231C32.5195 4.53231 32.3747 4.26712 32.3747 4.02604C32.3727 3.94006 32.3981 3.85567 32.4471 3.78496C33.0961 3.53917 33.7808 3.40074 34.4744 3.37512C35.7053 3.37512 36.3569 3.85728 36.3569 5.1109V6.94311L37.0568 7.03954C37.2017 7.06365 37.2982 7.25651 37.2982 7.47348C37.2982 7.69045 37.2258 7.8351 37.1051 7.8351H35.8501C35.3433 7.8351 35.2467 7.64224 35.2467 7.2324C35.0571 7.45428 34.8196 7.6303 34.5521 7.74722C34.2845 7.86414 33.9939 7.91892 33.7021 7.90743C32.8332 7.90743 32.1575 7.49759 32.1575 6.50916C32.1575 5.35198 33.2194 5.08679 34.2572 5.08679H35.1502V5.1109ZM35.1743 5.90646H34.3055C33.7021 5.90646 33.3401 6.05111 33.3401 6.50916C33.3401 6.82257 33.509 7.01543 34.04 7.01543C34.6434 7.01543 35.1985 6.70203 35.1985 6.14754V5.90646H35.1743Z" fill="#F7F7F7"/>
<path d="M37.5879 7.03948H38.2636C38.6015 6.62965 38.7705 6.00284 38.8187 4.84565L38.8429 4.3876L38.2878 4.29117C38.143 4.26706 38.0706 4.05009 38.0706 3.85723C38.0706 3.66436 38.143 3.49561 38.2395 3.49561H42.7527C42.8734 3.49561 42.9458 3.66436 42.9458 3.85723C42.9458 4.05009 42.8734 4.26706 42.7286 4.29117L42.2218 4.3876V7.0877H43.1389V8.96812C43.1389 9.08866 42.9699 9.16099 42.7527 9.16099C42.5355 9.16099 42.27 9.08866 42.2459 8.91991L42.1493 7.88326H38.5533L38.4567 8.91991C38.4326 9.08866 38.1671 9.16099 37.9499 9.16099C37.7327 9.16099 37.5637 9.08866 37.5637 8.96812V7.03948H37.5879ZM41.0391 7.06359V4.29117H39.8807L39.8565 4.84565C39.8083 5.76176 39.6635 6.60554 39.3738 7.06359H41.0391Z" fill="#F7F7F7"/>
<path d="M44.8525 5.95461C44.8766 6.46088 45.0938 7.06358 46.2041 7.06358C46.7094 7.06826 47.2104 6.96982 47.6763 6.77429C47.9418 6.84661 48.0383 7.1118 48.0383 7.4252C47.4417 7.76349 46.7693 7.94591 46.0834 7.95558C44.8284 7.95558 43.6458 7.49753 43.6458 5.71353C43.6458 4.24295 44.6836 3.42327 45.9627 3.42327C47.4591 3.42327 48.0142 4.48403 48.0142 5.59299V5.97872H44.8525V5.95461ZM44.2974 2.31431C44.2974 2.1808 44.337 2.05029 44.4113 1.93928C44.4855 1.82828 44.5911 1.74176 44.7146 1.69067C44.838 1.63957 44.9739 1.62621 45.105 1.65225C45.2361 1.6783 45.3565 1.74259 45.451 1.83699C45.5455 1.9314 45.6099 2.05167 45.636 2.18262C45.662 2.31356 45.6487 2.44928 45.5975 2.57263C45.5464 2.69597 45.4597 2.8014 45.3486 2.87557C45.2375 2.94974 45.1068 2.98933 44.9732 2.98933C44.8838 2.99165 44.7949 2.97578 44.7118 2.94267C44.6288 2.90957 44.5534 2.85994 44.4902 2.79679C44.4269 2.73364 44.3772 2.65829 44.3441 2.57535C44.311 2.4924 44.2951 2.40358 44.2974 2.31431ZM46.8557 5.23137C46.8074 4.48403 46.3971 4.21884 45.9144 4.21884C45.6455 4.22581 45.3891 4.33401 45.1967 4.52177C45.0043 4.70953 44.8899 4.96299 44.8766 5.23137H46.8557ZM46.2523 2.31431C46.2523 2.1808 46.292 2.05029 46.3662 1.93928C46.4405 1.82828 46.546 1.74176 46.6695 1.69067C46.793 1.63957 46.9289 1.62621 47.0599 1.65225C47.191 1.6783 47.3114 1.74259 47.406 1.83699C47.5005 1.9314 47.5648 2.05167 47.5909 2.18262C47.617 2.31356 47.6036 2.44928 47.5524 2.57263C47.5013 2.69597 47.4147 2.8014 47.3035 2.87557C47.1924 2.94974 47.0618 2.98933 46.9281 2.98933C46.8387 2.99165 46.7498 2.97578 46.6668 2.94267C46.5837 2.90957 46.5083 2.85994 46.4451 2.79679C46.3819 2.73364 46.3322 2.65829 46.299 2.57535C46.2659 2.4924 46.25 2.40358 46.2523 2.31431Z" fill="#F7F7F7"/>
<path d="M49.3415 6.96722L50.331 5.54485L49.5105 4.38766L48.7864 4.29123C48.6416 4.26712 48.5692 4.05015 48.5692 3.85729C48.5692 3.66442 48.6175 3.49567 48.7381 3.49567H49.5829C49.7317 3.47982 49.8819 3.50792 50.0148 3.57648C50.1478 3.64504 50.2578 3.75105 50.331 3.88139L51.2964 5.25555H51.9239V4.38766L51.4171 4.29123C51.2723 4.26712 51.1758 4.07426 51.1758 3.85729C51.1758 3.64031 51.2723 3.49567 51.3688 3.49567H52.479C52.9376 3.49567 53.0583 3.68853 53.0583 4.17069V5.25555H53.7099L54.4822 4.36355L54.0478 4.26712C53.903 4.24301 53.8306 4.02604 53.8306 3.83318C53.8306 3.64031 53.8789 3.47156 53.9995 3.47156H56.2344C56.3551 3.47156 56.4034 3.64031 56.4034 3.83318C56.4034 4.02604 56.331 4.24301 56.1862 4.26712L55.6793 4.36355L54.6174 5.52074L55.6069 6.96722L56.2827 7.06365C56.4275 7.08776 56.5241 7.28062 56.5241 7.49759C56.5241 7.71457 56.4758 7.85921 56.3551 7.85921H55.3414C55.1991 7.87121 55.0563 7.8438 54.9286 7.78001C54.8008 7.71622 54.6932 7.6185 54.6174 7.49759L53.6761 6.07522H53.0004V7.01543L53.4589 7.08776C53.6037 7.11187 53.652 7.32884 53.652 7.5217C53.652 7.71457 53.6037 7.88332 53.4831 7.88332H51.3592C51.2385 7.88332 51.1902 7.71457 51.1902 7.54581C51.1902 7.37705 51.2626 7.13597 51.4075 7.11187L51.8419 7.03954V6.09933H51.1661L50.249 7.5217C50.1732 7.64261 50.0655 7.74032 49.9378 7.80412C49.8101 7.86791 49.6672 7.89531 49.5249 7.88332H48.5354C48.4147 7.88332 48.3665 7.71457 48.3665 7.5217C48.3665 7.32884 48.463 7.11187 48.6078 7.08776L49.3415 6.96722Z" fill="#F7F7F7"/>
<path d="M57.7645 6.99127V4.3876L57.0646 4.29117C56.9198 4.26706 56.8232 4.0742 56.8232 3.85723C56.8232 3.64025 56.8956 3.49561 57.0163 3.49561H58.3437C58.8023 3.49561 58.923 3.68847 58.923 4.17063V5.23138H60.82V4.36349L60.2407 4.26706C60.0959 4.24295 60.0235 4.05009 60.0235 3.85723C60.0235 3.66436 60.0718 3.49561 60.1925 3.49561H62.5094C62.6542 3.49561 62.7025 3.66436 62.7025 3.85723C62.7025 4.05009 62.6301 4.26706 62.4853 4.29117L61.9785 4.3876V6.99127L62.6784 7.06359C62.8232 7.0877 62.9197 7.28056 62.9197 7.49753C62.9197 7.71451 62.8473 7.85915 62.7266 7.85915H61.3992C60.9407 7.85915 60.82 7.66629 60.82 7.18413V6.05105H58.9133V6.99127L59.5167 7.06359C59.6615 7.0877 59.7098 7.30467 59.7098 7.49753C59.7098 7.6904 59.6615 7.85915 59.5408 7.85915H57.1997C57.0791 7.85915 57.0308 7.6904 57.0308 7.52164C57.0308 7.35289 57.1032 7.11181 57.248 7.0877L57.7645 6.99127Z" fill="#F7F7F7"/>
<path d="M64.199 6.99127V4.36349L63.6198 4.26706C63.475 4.24295 63.4026 4.05009 63.4026 3.85723C63.4026 3.66436 63.4509 3.49561 63.5715 3.49561H65.8885C66.0092 3.49561 66.0816 3.66436 66.0816 3.85723C66.0816 4.05009 66.0092 4.26706 65.8643 4.29117L65.3575 4.3876V5.13495H66.0816C66.8539 5.13495 67.9399 5.2796 67.9399 6.50911C67.9399 7.42521 67.1194 7.85915 66.0816 7.85915H63.6439C63.5233 7.85915 63.475 7.6904 63.475 7.52164C63.475 7.35289 63.5474 7.11181 63.6922 7.0877L64.199 6.99127ZM65.8885 7.06359C66.2505 7.06359 66.7815 7.06359 66.7815 6.50911C66.7815 5.95462 66.2505 5.93051 65.8885 5.93051H65.3575V7.06359H65.8885ZM68.5192 4.36349L67.9399 4.26706C67.7951 4.24295 67.7227 4.05009 67.7227 3.85723C67.7227 3.66436 67.771 3.49561 67.8917 3.49561H70.2086C70.3534 3.49561 70.4017 3.66436 70.4017 3.85723C70.4017 4.05009 70.3293 4.26706 70.1845 4.29117L69.6777 4.3876V6.99127L70.3776 7.0877C70.5224 7.11181 70.6189 7.30467 70.6189 7.52164C70.6189 7.73861 70.5465 7.88326 70.4258 7.88326H69.0984C68.6399 7.88326 68.5192 7.6904 68.5192 7.20824V4.36349Z" fill="#F7F7F7"/>
<path d="M71.9222 6.99132V4.36355L71.3429 4.26712C71.1981 4.24301 71.1257 4.05014 71.1257 3.85728C71.1257 3.66442 71.174 3.49566 71.2947 3.49566H73.6116C73.7323 3.49566 73.8047 3.66442 73.8047 3.85728C73.8047 4.05014 73.7323 4.26712 73.5875 4.29122L73.0807 4.38766V5.61717C73.0807 5.76181 72.9359 6.41273 72.9117 6.60559H72.9359C73.0256 6.39274 73.139 6.19058 73.2737 6.00289L75.2045 3.54388H76.7492C76.8698 3.54388 76.9181 3.71263 76.9181 3.88139C76.9181 4.05014 76.8457 4.29122 76.7009 4.31533L76.1941 4.38766V7.01543L76.7733 7.11186C76.9181 7.13597 76.9905 7.32883 76.9905 7.5217C76.9905 7.71456 76.9422 7.88332 76.8216 7.88332H74.5046C74.3598 7.88332 74.3115 7.71456 74.3115 7.5217C74.3115 7.32883 74.3839 7.11186 74.5288 7.08775L75.0356 6.99132V5.76181C75.0684 5.42875 75.1248 5.09845 75.2045 4.77338H75.1804C75.0821 4.99443 74.9607 5.20452 74.8184 5.40019L72.8876 7.8351H71.3429C71.2223 7.8351 71.174 7.66635 71.174 7.49759C71.174 7.32883 71.2464 7.08775 71.3912 7.06364L71.9222 6.99132ZM72.96 1.44648C73.0434 1.43898 73.1272 1.45572 73.2013 1.4947C73.2307 1.70981 73.3376 1.90685 73.502 2.04887C73.6664 2.19089 73.877 2.26814 74.0943 2.26615C74.6253 2.26615 74.8666 1.90453 74.9873 1.4947C75.065 1.46711 75.1463 1.45087 75.2287 1.44648C75.3271 1.43727 75.4261 1.45481 75.5153 1.49725C75.6046 1.53969 75.6806 1.60545 75.7355 1.68756C75.7114 2.31437 75.2287 3.06172 74.0943 3.06172C72.96 3.06172 72.5014 2.33848 72.4532 1.68756C72.5111 1.54291 72.7283 1.44648 72.9696 1.44648H72.96Z" fill="#F7F7F7"/>
<path d="M25.3417 16.7792V12.3433L24.6659 12.271C24.5211 12.2469 24.4487 12.0299 24.4487 11.8129C24.4487 11.6442 24.497 11.4513 24.6177 11.4513H31.0617C31.1824 11.4513 31.2306 11.62 31.2306 11.8129C31.2306 12.0058 31.1582 12.2227 31.0376 12.2469L30.4583 12.3192V16.7551L31.1341 16.8274C31.2789 16.8515 31.3272 17.0685 31.3272 17.2613C31.3272 17.4542 31.2789 17.6229 31.1582 17.6229H28.6482C28.5275 17.6229 28.4793 17.4542 28.4793 17.2613C28.4793 17.0685 28.5517 16.8274 28.6965 16.8274L29.2757 16.7551V12.3674H26.5967V16.7792L27.2725 16.8515C27.4173 16.8756 27.4897 17.0926 27.4897 17.2854C27.4897 17.4783 27.4415 17.647 27.3208 17.647H24.7866C24.6418 17.647 24.6177 17.4783 24.6177 17.2854C24.6177 17.0926 24.6901 16.8515 24.8349 16.8515L25.3417 16.7792Z" fill="#F7F7F7"/>
<path d="M35.1019 14.9229V14.8265C35.1019 14.2479 34.7398 14.0791 34.1606 14.0791C33.6513 14.0915 33.1467 14.1809 32.6642 14.3443C32.4712 14.3443 32.3263 14.0791 32.3263 13.838C32.3244 13.7521 32.3498 13.6677 32.3988 13.597C33.0477 13.3512 33.7325 13.2127 34.4261 13.1871C35.657 13.1871 36.3086 13.6693 36.3086 14.9229V16.7551L37.0085 16.8515C37.1533 16.8757 37.2499 17.0685 37.2499 17.2855C37.2499 17.5025 37.1775 17.6471 37.0568 17.6471H35.8018C35.2949 17.6471 35.1984 17.4542 35.1984 17.0444C35.0088 17.2663 34.7713 17.4423 34.5037 17.5592C34.2362 17.6762 33.9456 17.7309 33.6538 17.7194C32.7849 17.7194 32.1091 17.3096 32.1091 16.3212C32.1091 15.164 33.1711 14.8988 34.2089 14.8988H35.1019V14.9229ZM35.126 15.6944H34.2571C33.6538 15.6944 33.2917 15.839 33.2917 16.2971C33.2917 16.6105 33.4607 16.8033 33.9917 16.8033C34.595 16.8033 35.1501 16.4899 35.1501 15.9354V15.6944H35.126Z" fill="#F7F7F7"/>
<path d="M38.1332 18.9247V14.1754L37.4332 14.079C37.2884 14.0549 37.1919 13.862 37.1919 13.6451C37.1919 13.4281 37.2402 13.2834 37.385 13.2834H38.6641C39.0985 13.2834 39.2675 13.4281 39.2675 13.8861C39.4424 13.6658 39.6669 13.4899 39.9227 13.3726C40.1785 13.2553 40.4585 13.2 40.7397 13.2111C42.043 13.2111 42.5981 14.1513 42.5981 15.3326C42.5981 16.6345 41.7534 17.7193 40.0881 17.7193C39.8114 17.7244 39.5354 17.692 39.2675 17.6229V18.9006L39.9433 18.9729C40.0881 18.997 40.1363 19.214 40.1363 19.4069C40.1363 19.5997 40.0881 19.7685 39.9674 19.7685H37.5539C37.4332 19.7685 37.385 19.5997 37.385 19.431C37.385 19.2622 37.4574 19.0212 37.6022 18.997L38.1332 18.9247ZM39.2916 16.755C39.5616 16.8558 39.8482 16.9048 40.1363 16.8996C41.0776 16.8996 41.4396 16.2005 41.4396 15.405C41.4396 14.6817 41.1017 14.1272 40.3777 14.1272C39.7743 14.1272 39.2916 14.4888 39.2916 15.1157V16.755Z" fill="#F7F7F7"/>
<path d="M45.1323 16.8033V14.1032H44.2393L44.1428 14.8747C44.1186 15.0435 43.8532 15.1158 43.6359 15.1158C43.4187 15.1158 43.2739 15.0435 43.2739 14.9229V13.2836H48.1733V14.9229C48.1733 15.0435 48.0285 15.1158 47.7871 15.1158C47.5941 15.1158 47.3045 15.0435 47.2803 14.8747L47.1838 14.1032H46.2908V16.8033L46.8942 16.8757C47.039 16.8998 47.0872 17.1167 47.0872 17.3096C47.0872 17.5025 47.039 17.6712 46.9183 17.6712H44.5531C44.4324 17.6712 44.3841 17.5025 44.3841 17.3337C44.3841 17.165 44.4565 16.8998 44.6013 16.8998L45.1323 16.8033Z" fill="#F7F7F7"/>
<path d="M49.607 16.8033V14.1756L48.9071 14.0791C48.7623 14.055 48.6658 13.8622 48.6658 13.6452C48.6658 13.4282 48.7382 13.2836 48.8589 13.2836H50.1863C50.6448 13.2836 50.7655 13.4764 50.7655 13.9586V15.0193H52.6722V14.1515L52.0688 14.055C51.924 14.0309 51.8516 13.8381 51.8516 13.6452C51.8516 13.4523 51.8998 13.2836 52.0205 13.2836H54.3375C54.4582 13.2836 54.5306 13.4523 54.5306 13.6452C54.5306 13.8381 54.4581 14.055 54.3133 14.0791L53.8065 14.1756V16.7792L54.5064 16.8757C54.6512 16.8998 54.7478 17.0926 54.7478 17.3096C54.7478 17.5266 54.6754 17.6712 54.5547 17.6712H53.2273C52.7687 17.6712 52.648 17.4784 52.648 16.9962V15.8631H50.7414V16.8033L51.3447 16.8757C51.4896 16.8998 51.5378 17.1167 51.5378 17.3096C51.5378 17.5025 51.4896 17.6712 51.3689 17.6712H49.0278C48.9071 17.6712 48.8589 17.5025 48.8589 17.3337C48.8589 17.165 48.9313 16.9239 49.0761 16.8998L49.607 16.8033Z" fill="#F7F7F7"/>
<path d="M56.4372 15.7666C56.4613 16.2729 56.6786 16.8756 57.7888 16.8756C58.2941 16.8803 58.7951 16.7818 59.261 16.5863C59.5265 16.6586 59.623 16.9238 59.623 17.2372C59.0264 17.5755 58.354 17.7579 57.6681 17.7676C56.4131 17.7676 55.2305 17.3095 55.2305 15.5255C55.2305 14.055 56.2683 13.2353 57.5474 13.2353C59.0438 13.2353 59.5989 14.296 59.5989 15.405V15.7907H56.4372V15.7666ZM55.8821 12.1263C55.8821 11.9928 55.9217 11.8623 55.996 11.7513C56.0703 11.6403 56.1758 11.5538 56.2993 11.5027C56.4228 11.4516 56.5586 11.4382 56.6897 11.4643C56.8208 11.4903 56.9412 11.5546 57.0357 11.649C57.1302 11.7434 57.1946 11.8637 57.2207 11.9946C57.2468 12.1256 57.2334 12.2613 57.1822 12.3846C57.1311 12.508 57.0445 12.6134 56.9333 12.6876C56.8222 12.7618 56.6915 12.8013 56.5579 12.8013C56.3787 12.8013 56.2068 12.7302 56.08 12.6036C55.9533 12.477 55.8821 12.3053 55.8821 12.1263ZM58.4404 15.0434C58.3921 14.296 57.9818 14.0309 57.4992 14.0309C57.2302 14.0378 56.9739 14.146 56.7814 14.3338C56.589 14.5215 56.4746 14.775 56.4614 15.0434H58.4404ZM57.837 12.1263C57.837 11.9928 57.8767 11.8623 57.9509 11.7513C58.0252 11.6403 58.1307 11.5538 58.2542 11.5027C58.3777 11.4516 58.5136 11.4382 58.6447 11.4643C58.7757 11.4903 58.8962 11.5546 58.9907 11.649C59.0852 11.7434 59.1495 11.8637 59.1756 11.9946C59.2017 12.1256 59.1883 12.2613 59.1372 12.3846C59.086 12.508 58.9994 12.6134 58.8883 12.6876C58.7771 12.7618 58.6465 12.8013 58.5128 12.8013C58.3336 12.8013 58.1617 12.7302 58.035 12.6036C57.9082 12.477 57.837 12.3053 57.837 12.1263Z" fill="#F7F7F7"/>
<path d="M60.9505 18.9247V14.1754L60.2506 14.079C60.1058 14.0549 60.0093 13.862 60.0093 13.6451C60.0093 13.4281 60.0575 13.2834 60.2024 13.2834H61.4815C61.9159 13.2834 62.0849 13.4281 62.0849 13.8861C62.2598 13.6658 62.4843 13.4899 62.7401 13.3726C62.9959 13.2553 63.2758 13.2 63.5571 13.2111C64.8604 13.2111 65.4155 14.1513 65.4155 15.3326C65.4155 16.6345 64.5708 17.7193 62.9055 17.7193C62.6288 17.7244 62.3528 17.692 62.0849 17.6229V18.9006L62.7607 18.9729C62.9055 18.997 62.9537 19.214 62.9537 19.4069C62.9537 19.5997 62.9055 19.7685 62.7848 19.7685H60.3713C60.2506 19.7685 60.2024 19.5997 60.2024 19.431C60.2024 19.2622 60.2748 19.0212 60.4196 18.997L60.9505 18.9247ZM62.0849 16.755C62.3549 16.8558 62.6414 16.9048 62.9296 16.8996C63.8709 16.8996 64.2329 16.2005 64.2329 15.405C64.2329 14.6817 63.895 14.1272 63.1709 14.1272C62.5676 14.1272 62.0849 14.4888 62.0849 15.1157V16.755Z" fill="#F7F7F7"/>
<path d="M21.2967 14.7059L15.987 11.4272V11.379C15.6872 11.5438 15.4042 11.7376 15.1423 11.9576C15.2388 12.0782 15.1182 12.2228 15.1182 12.2228C14.7442 12.7799 14.4364 13.3786 14.201 14.0068C15.1423 12.2951 15.794 11.9817 15.5526 12.2469C15.3113 12.5121 13.8873 14.9711 13.757 15.1881C13.7389 15.2127 13.7263 15.2409 13.7201 15.2708C13.714 15.3007 13.7143 15.3316 13.7212 15.3614C13.7281 15.3911 13.7413 15.4191 13.76 15.4432C13.7786 15.4674 13.8023 15.4873 13.8294 15.5015L14.3603 15.8631C14.3603 15.8631 18.3426 18.7079 18.3281 18.8043C18.3136 18.9007 18.135 18.7561 18.135 18.7561L13.5156 15.7426C13.4767 15.8511 13.4283 15.956 13.3708 16.056C13.2743 16.2247 13.1295 16.056 13.1295 16.056L12.4537 15.5497C12.5532 15.0054 12.7068 14.4724 12.9122 13.9586C12.7433 14.0791 12.5261 14.2479 12.333 14.3925L12.1399 14.9711L11.9951 15.5256L13.1053 16.3935L12.6709 17.4542L19.2839 21.2392C20.0459 20.4632 20.6623 19.5568 21.1036 18.5632C21.9242 16.8274 21.2967 14.7059 21.2967 14.7059Z" fill="#F7F7F7"/>
<path d="M15.5768 10.0772C15.6315 9.87299 15.6479 9.66046 15.625 9.45034C15.6051 9.31037 15.5534 9.1768 15.474 9.05981C15.3945 8.94283 15.2893 8.84552 15.1665 8.77532C15.1665 8.77532 15.3113 8.7271 15.2147 7.97976C15.1906 7.77945 15.0984 7.5935 14.9534 7.45306C14.8084 7.31261 14.6195 7.2262 14.4183 7.2083C14.5387 7.00923 14.5899 6.77594 14.5637 6.54481C14.5375 6.31368 14.4354 6.09771 14.2735 5.93058C13.9114 5.59306 12.8736 5.64128 12.8736 5.64128C12.7562 5.45405 12.6012 5.29313 12.4184 5.16866C12.2357 5.04419 12.0291 4.95886 11.8117 4.91804C11.3168 4.83507 10.8087 4.88499 10.3395 5.06269C9.47063 4.96626 9.08447 5.37609 9.08447 5.37609C8.82697 5.67302 8.54435 5.94726 8.23975 6.19576C7.87772 6.48506 7.27435 6.36452 6.91233 6.46095C6.75657 6.4985 6.61098 6.56979 6.48586 6.66978C6.36074 6.76976 6.25915 6.896 6.18828 7.03954C6.08785 7.30062 6.06276 7.58461 6.11588 7.85922C6.11588 7.85922 5.5125 8.26905 5.53664 8.75121C5.52334 9.0101 5.60008 9.26563 5.75385 9.47445C5.34356 9.78786 5.53664 10.5352 5.53664 10.5352C5.42287 10.656 5.31801 10.785 5.22288 10.9209C5.20383 11.0819 5.21199 11.2449 5.24702 11.4031L0.0338797 14.8746C0.0338797 14.8746 -0.207469 17.3578 0.588983 19.0935C1.38543 20.8293 2.30256 21.2392 2.30256 21.2392L8.52937 17.4542L8.09494 16.3934L9.20514 15.5256L9.06033 14.947C9.5913 14.7782 10.9429 14.8746 10.9429 14.8746C11.9807 15.2122 13.0909 14.055 13.0909 14.055C13.0909 14.055 14.732 12.5362 15.3113 12.0781C15.8905 11.6201 15.9871 11.4272 16.0595 10.8486C16.0796 10.6843 16.0426 10.518 15.9547 10.3776C15.8669 10.2372 15.7335 10.1311 15.5768 10.0772ZM11.6428 5.30377C11.8126 5.31946 11.9767 5.37312 12.1229 5.46075C12.2691 5.54839 12.3937 5.66776 12.4875 5.81004C12.2525 5.8783 12.0054 5.89476 11.7634 5.85825C11.2807 5.78593 10.8463 5.61717 10.6532 5.37609C10.9715 5.26781 11.3122 5.24291 11.6428 5.30377ZM8.67418 6.3163C8.86725 6.19576 9.34995 5.49663 9.76025 5.4002C10.1705 5.30377 10.3878 5.59306 10.6774 5.83414C10.967 6.07522 11.7152 6.17166 11.7152 6.17166C11.1359 6.62971 9.90506 6.84668 9.90506 6.84668C9.89522 6.65834 9.83704 6.47569 9.73611 6.3163C9.66371 7.18419 9.32582 7.2083 9.08447 7.30473C8.84312 7.40116 8.19148 7.44938 8.04667 7.25652C7.90186 7.06365 8.04667 7.03954 8.04667 7.03954C8.22626 7.04277 8.40273 6.99241 8.5535 6.8949C8.81898 6.75025 8.67418 6.3163 8.67418 6.3163ZM8.40869 6.46095C8.41768 6.50696 8.41725 6.55431 8.40743 6.60015C8.3976 6.64599 8.37858 6.68936 8.35152 6.72766C8.32446 6.76596 8.28991 6.79838 8.24996 6.82298C8.21001 6.84758 8.16548 6.86384 8.11907 6.87079C7.75705 6.96722 7.70878 6.72614 7.70878 6.72614C7.96318 6.70872 8.20672 6.61644 8.40869 6.46095ZM6.5503 7.18419C6.69511 6.79846 7.37089 6.75025 7.37089 6.75025C7.38018 6.98447 7.47455 7.2073 7.63637 7.37706C7.92599 7.73868 8.43283 7.56992 8.62591 7.73868C8.65514 7.75377 8.68098 7.77468 8.70183 7.80012C8.72268 7.82556 8.7381 7.85499 8.74714 7.88661C8.75619 7.91822 8.75866 7.95134 8.75441 7.98395C8.75016 8.01655 8.73929 8.04794 8.72245 8.07619C8.72245 8.07619 8.23975 7.85922 8.02253 7.97976C7.80532 8.1003 7.75705 8.51013 7.75705 8.51013C7.33476 8.32812 6.93737 8.09319 6.57444 7.811C6.52164 7.71568 6.49195 7.60932 6.48776 7.50046C6.48357 7.3916 6.50499 7.28328 6.5503 7.18419ZM8.68866 8.48602C8.68866 8.48602 8.56798 8.7271 8.35077 8.65478C8.13355 8.58246 8.03701 8.46192 8.06115 8.38959C8.0685 8.35603 8.08254 8.3243 8.10245 8.29629C8.12235 8.26827 8.1477 8.24456 8.17699 8.22655C8.20628 8.20855 8.2389 8.19663 8.27291 8.19151C8.30691 8.18638 8.3416 8.18816 8.3749 8.19673C8.62591 8.22084 8.79485 8.31727 8.68866 8.48602ZM6.27517 8.22084C6.54065 8.1244 6.70959 8.26905 7.07162 8.55835C7.43364 8.84764 8.51971 9.0164 8.51971 9.0164C8.51971 9.0164 8.56798 9.18516 8.3025 9.13694C8.25423 9.13694 7.8198 9.0164 7.67499 9.18516C7.53018 9.35391 7.65086 9.71553 7.65086 9.71553C7.14415 9.68976 6.64587 9.57554 6.17863 9.37802C6.09428 9.32381 6.02547 9.24866 5.97894 9.15991C5.9324 9.07117 5.90973 8.97188 5.91314 8.87175C5.89866 8.51013 6.01934 8.31727 6.27517 8.22084ZM8.49558 9.59499C8.49425 9.63049 8.48547 9.6653 8.46979 9.69718C8.45411 9.72906 8.43189 9.75729 8.40457 9.78002C8.37725 9.80276 8.34545 9.8195 8.31124 9.82916C8.27702 9.83882 8.24115 9.84117 8.20596 9.83607C7.91634 9.83607 7.8198 9.66732 7.8198 9.54678C7.8198 9.42624 7.86807 9.35391 8.13355 9.35391C8.39904 9.35391 8.52937 9.37802 8.50523 9.59499H8.49558ZM5.89866 9.88429C5.9952 9.66732 6.21242 9.64321 6.52617 9.78786C6.83992 9.9325 8.09494 10.0772 8.09494 10.0772C8.09494 10.0772 8.16734 10.27 8.09494 10.27C8.02253 10.27 7.49156 10.2218 7.39503 10.3423C7.33085 10.5029 7.30602 10.6765 7.32262 10.8486C6.92929 10.7955 6.54662 10.6816 6.18828 10.5111C5.72972 10.3423 5.79247 10.1013 5.89866 9.88429ZM8.0708 10.7522C8.04667 10.9691 7.92599 10.9209 7.78118 10.8968C7.63637 10.8727 7.48191 10.8486 7.5881 10.6075C7.6943 10.3664 7.87772 10.4629 7.87772 10.4629C7.9984 10.4629 8.09494 10.5111 8.0708 10.7522ZM5.65731 10.8968C5.80212 10.704 5.97107 10.704 6.04347 10.7763C6.15563 10.8385 6.27839 10.8794 6.40549 10.8968C6.30896 10.945 6.33309 11.1379 6.38136 11.2102C6.42963 11.2826 6.69511 11.1861 6.76752 11.1138C6.83992 11.0415 6.91233 11.0656 6.91233 11.1379C6.91233 11.2102 6.81579 11.3549 6.67098 11.4754C6.52617 11.596 5.85039 11.5718 5.68145 11.5236C5.5125 11.4754 5.48837 11.0897 5.65731 10.8968ZM8.0708 16.0559C8.0708 16.0559 7.92599 16.2247 7.82945 16.0559C7.77198 15.956 7.72352 15.8511 7.68464 15.7425L3.07488 18.8042C3.07488 18.8042 2.93007 18.9248 2.8818 18.8525C2.83353 18.7801 6.83992 15.9113 6.83992 15.9113L7.37089 15.5497C7.39796 15.5355 7.42163 15.5156 7.4403 15.4914C7.45897 15.4672 7.4722 15.4393 7.47907 15.4096C7.48594 15.3798 7.48631 15.3489 7.48013 15.319C7.47396 15.2891 7.46139 15.2609 7.4433 15.2363C7.32262 15.0193 5.89866 12.5362 5.65731 12.2951C5.41596 12.054 6.09174 12.3433 7.00887 14.055C6.77354 13.4268 6.46576 12.8281 6.09174 12.271C6.07217 12.2523 6.0566 12.2298 6.04596 12.205C6.03532 12.1801 6.02983 12.1534 6.02983 12.1263C6.02983 12.0993 6.03532 12.0725 6.04596 12.0477C6.0566 12.0228 6.07217 12.0004 6.09174 11.9817C6.23655 11.837 6.30896 11.8611 6.52617 11.8853C6.65167 11.8777 6.77369 11.8411 6.8826 11.7783C6.9915 11.7156 7.0843 11.6284 7.15368 11.5236C7.15368 11.5236 8.62591 14.3202 8.77071 15.5738L8.0708 16.0559ZM15.7698 11.0174C15.6897 11.3101 15.4995 11.5606 15.2389 11.7165C15.0217 11.837 14.6838 11.7165 14.8527 11.8129C15.0217 11.9094 14.7803 12.0781 14.7803 12.0781C14.7803 12.0781 12.9219 13.621 12.753 13.8139C12.3496 14.198 11.8336 14.443 11.2807 14.513C10.8519 14.5285 10.4268 14.4286 10.0499 14.2237L10.4119 14.5371C10.0981 14.5371 8.93966 14.6818 8.93966 14.6818C8.77071 13.9344 7.63637 11.7647 7.5881 11.6442C7.53983 11.5236 7.5881 11.3549 7.66051 11.4995C7.80223 11.6783 7.96421 11.8401 8.14321 11.9817C8.14321 11.9817 7.63637 11.2584 7.90186 11.2102C8.16734 11.162 8.40869 11.0174 8.4811 10.487C8.5535 9.95661 8.74658 10.0772 8.89139 9.78786C9.00103 9.56222 9.01834 9.30279 8.93966 9.06462C8.92374 9.00864 8.92439 8.94926 8.94152 8.89365C8.95865 8.83804 8.99153 8.78856 9.0362 8.75121C9.15772 8.54768 9.21648 8.31289 9.20514 8.07619C9.20128 7.92484 9.25323 7.77736 9.35113 7.66179C9.44903 7.54622 9.58605 7.47062 9.73611 7.44938C10.0981 7.35295 11.9324 6.48506 12.1255 6.41274C12.5053 6.17864 12.9355 6.03816 13.3805 6.0029C14.1287 5.95468 14.2976 6.46095 14.3459 6.67792C14.3941 6.8949 14.1769 7.18419 14.1769 7.01544C14.0804 6.82257 13.9356 6.58149 13.9356 6.58149C13.9548 6.81563 13.9385 7.05134 13.8873 7.28062C13.839 7.44938 13.1874 7.73868 13.1874 7.73868C13.5782 7.6658 13.9732 7.61749 14.37 7.59403C14.7562 7.59403 14.9251 7.88332 14.901 8.31727C14.8768 8.75121 14.6838 8.7271 14.2976 8.89586C14.0884 8.97361 13.9105 9.11753 13.7908 9.3057C14.1301 9.09795 14.5305 9.01285 14.9251 9.06462C15.1182 9.11283 15.263 9.3057 15.2389 9.69142C15.2147 10.0772 14.9975 10.1254 14.9975 10.1254L14.0321 10.8727C14.0321 10.8727 15.1423 10.3182 15.4319 10.3423C15.7216 10.3664 15.794 10.7522 15.7698 11.0174Z" fill="#F7F7F7"/>
<path d="M8.11917 15.5255C8.29245 15.5255 8.43293 15.3852 8.43293 15.2121C8.43293 15.039 8.29245 14.8987 8.11917 14.8987C7.94589 14.8987 7.80542 15.039 7.80542 15.2121C7.80542 15.3852 7.94589 15.5255 8.11917 15.5255Z" fill="#F7F7F7"/>
<path d="M13.115 15.5255C13.2883 15.5255 13.4288 15.3852 13.4288 15.2121C13.4288 15.039 13.2883 14.8987 13.115 14.8987C12.9417 14.8987 12.8013 15.039 12.8013 15.2121C12.8013 15.3852 12.9417 15.5255 13.115 15.5255Z" fill="#F7F7F7"/>
<path d="M12.5502 7.4494C12.3198 7.36097 12.0717 7.32794 11.8262 7.35297C11.5607 7.42529 11.3435 7.7387 11.1987 7.81102C11.0539 7.88335 11.7055 7.71459 11.7779 7.71459C11.8503 7.71459 12.5502 7.4494 12.5502 7.4494Z" fill="#F7F7F7"/>
<path d="M13.0184 8.89587C12.7568 9.05306 12.4716 9.16703 12.1736 9.23339C11.7871 9.32022 11.4446 9.54262 11.2083 9.86019C11.2083 9.86019 12.4874 9.66733 13.0184 8.89587Z" fill="#F7F7F7"/>
<path d="M11.7876 11.6441C11.7876 11.6441 12.1979 11.0173 13.4529 10.6316C13.4454 10.7412 13.4076 10.8466 13.3437 10.936C13.2798 11.0253 13.1922 11.0952 13.0909 11.1379C12.7047 11.3066 12.2462 11.2343 11.7876 11.6441Z" fill="#F7F7F7"/>
<path d="M13.8874 10.0048C13.8874 10.0048 13.3323 9.86013 12.8496 10.5111C13.0392 10.5155 13.2278 10.4828 13.4047 10.4146C13.5435 10.2539 13.7063 10.1157 13.8874 10.0048Z" fill="#F7F7F7"/>
<path d="M11.9807 8.89587C11.9807 8.89587 12.5117 9.13695 13.0909 8.58247C12.8987 8.55715 12.7039 8.55715 12.5117 8.58247C12.3427 8.63068 12.1979 8.82355 11.9807 8.89587Z" fill="#F7F7F7"/>
<path d="M19.8727 2.77242V2.36258L19.5348 2.1215C19.4141 2.04918 16.8076 0.12054 10.6194 0H10.5711C4.40222 0.096432 1.77152 2.02507 1.67498 2.0974L1.33709 2.33848V2.74831C1.33709 2.82064 1.31295 9.54677 1.36122 14.5612C1.40949 20.082 6.23647 22.5892 6.42955 22.6856L10.6049 24.9036L14.7802 22.6856C14.9733 22.5892 19.8003 20.0579 19.8486 14.5612C19.8968 9.54677 19.8727 2.82064 19.8727 2.77242ZM18.8832 14.5612C18.8349 19.4552 14.5147 21.7454 14.3458 21.8419L10.9428 23.65L10.629 23.8187L10.3153 23.65L6.91225 21.8419C6.71917 21.7454 2.42316 19.4552 2.37489 14.5612C2.32662 10.3182 2.35075 4.8216 2.35075 3.23047V2.82064L2.71278 2.62777C3.58163 2.14561 6.09166 1.03664 10.629 0.96432H10.6773C15.205 1.06075 17.7247 2.16972 18.5839 2.62777L18.9459 2.82064V3.23047C18.9073 4.8216 18.9073 10.3182 18.8832 14.5612Z" fill="#F7F7F7"/>
<path d="M12.5502 16.5622L11.4883 15.7184L11.5607 15.4291C11.3265 15.4604 11.0884 15.444 10.8608 15.3809C10.4513 15.3486 10.0403 15.3405 9.62989 15.3568L9.72643 15.7184L8.6645 16.5622L9.12306 17.6471L5.43042 19.8891L5.50282 19.9614C6.05793 19.6722 7.09573 19.0936 8.20593 18.3944C9.09893 17.8158 7.77151 19.0212 7.11986 19.4311C6.63717 19.7204 6.13033 20.0097 5.79244 20.2025C5.88291 20.2899 5.97971 20.3705 6.08206 20.4436C6.59447 20.1744 7.08652 19.8682 7.55429 19.5275C8.08526 19.1177 7.38535 19.8891 6.97505 20.1784C6.75784 20.3231 6.49236 20.4677 6.29928 20.6124C6.59415 20.8413 6.90919 21.043 7.24054 21.2151L10.4746 22.9267C10.9573 22.6133 12.0192 21.8901 13.1536 20.9981C13.9742 20.3472 12.7916 21.6731 12.1641 22.1312C12.0192 22.2276 11.8744 22.3481 11.7538 22.4446L14.0707 21.2151C14.7555 20.8217 15.388 20.3438 15.9532 19.7927L12.1641 17.623L12.5502 16.5622Z" fill="#F7F7F7"/>
<path d="M18.2074 4.19473C17.9902 4.38759 17.7489 4.60457 17.5075 4.79743C17.049 5.15905 15.9146 5.68943 16.5663 5.23137C17.1419 4.79118 17.69 4.31617 18.2074 3.809V3.47149C17.9178 3.73668 17.5075 4.07419 17.0248 4.45992C16.3008 5.03851 14.4424 6.05105 15.4319 5.27959C16.5663 4.38759 17.4834 3.59203 17.9902 3.10987C17.0007 2.62771 14.6596 1.71161 10.6049 1.63928C6.21238 1.73571 3.82303 2.77236 3.00244 3.23041V12.3432L4.71602 11.2102C4.69076 11.0639 4.70749 10.9134 4.76429 10.7762C4.83814 10.6456 4.92726 10.5242 5.02977 10.4146C4.9829 10.0834 5.04203 9.74588 5.19872 9.45028C5.11267 9.23589 5.0716 9.00614 5.07804 8.77525C5.09528 8.56449 5.15557 8.35949 5.25519 8.1729C5.35481 7.98632 5.49166 7.8221 5.65728 7.69039C5.64036 7.40959 5.68997 7.12877 5.80209 6.87072C5.8951 6.66442 6.03527 6.4828 6.21132 6.34044C6.38737 6.19809 6.59439 6.09897 6.81576 6.05105C6.98976 6.01113 7.16837 5.99491 7.34673 6.00283C7.55531 6.02229 7.76505 5.98039 7.9501 5.88229C8.22695 5.64529 8.48515 5.38738 8.72242 5.11084L8.74655 5.08673C8.79482 5.03851 9.27752 4.55635 10.267 4.62867C10.7862 4.44765 11.3438 4.40609 11.8841 4.50813C12.3296 4.5895 12.7344 4.81889 13.0329 5.15905L13.6846 5.25548C14.0017 5.29497 14.302 5.41998 14.5534 5.6171C14.7238 5.78361 14.8504 5.98955 14.9219 6.21664C14.9935 6.44374 15.0079 6.68497 14.9637 6.91894C15.1508 7.01946 15.3103 7.16438 15.4281 7.34095C15.546 7.51751 15.6185 7.7203 15.6395 7.93147C15.6712 8.15501 15.6793 8.38126 15.6636 8.6065C15.8855 8.82535 16.0224 9.11586 16.0498 9.42617V9.86011C16.2144 9.98411 16.3419 10.1508 16.4185 10.342C16.4951 10.5332 16.5178 10.7418 16.4842 10.945C16.4821 11.0353 16.4658 11.1248 16.4359 11.2102H16.4601L18.1495 12.2468C18.2074 9.18509 18.2074 5.97872 18.2074 4.19473Z" fill="#F7F7F7"/>
<path d="M26.2204 23.1196C26.032 23.0314 25.8249 22.99 25.617 22.9991C25.0378 22.9991 24.6999 23.2884 24.6999 23.867C24.6978 23.9804 24.719 24.0931 24.7622 24.198C24.8055 24.3029 24.8698 24.3979 24.9512 24.477C25.0327 24.5561 25.1295 24.6176 25.2357 24.6578C25.3419 24.698 25.4553 24.7161 25.5687 24.7108C25.8176 24.7141 26.0644 24.6648 26.2928 24.5661L26.3893 24.8313C26.1238 24.9494 25.8352 25.0071 25.5446 25.0001C25.3936 25.0117 25.2419 24.9913 25.0993 24.9404C24.9567 24.8894 24.8265 24.809 24.7171 24.7043C24.6078 24.5996 24.5218 24.4731 24.4648 24.333C24.4077 24.1928 24.3809 24.0423 24.3861 23.8911C24.3862 23.7361 24.418 23.5828 24.4796 23.4405C24.5412 23.2983 24.6313 23.1701 24.7443 23.064C24.8574 22.9579 24.991 22.8759 25.1369 22.8233C25.2828 22.7707 25.438 22.7485 25.5929 22.758C25.8579 22.7476 26.1219 22.7971 26.3652 22.9027L26.2204 23.1196Z" fill="#F7F7F7"/>
<path d="M28.875 22.7579V23.6499H30.2266V22.7579H30.5403V24.9277H30.2266V23.9392H28.875V24.9277H28.5613V22.7579H28.875Z" fill="#F7F7F7"/>
<path d="M31.4093 22.9026C31.6917 22.7841 31.996 22.7266 32.3023 22.7339C32.9298 22.7339 33.2194 22.9509 33.2194 23.4812V24.4214C33.2194 24.6384 33.2918 24.7107 33.509 24.7348V24.9518C33.4319 24.9815 33.3503 24.9978 33.2677 25C33.0987 25 33.0022 24.9036 32.978 24.6384C32.8513 24.7627 32.7 24.859 32.5337 24.9213C32.3674 24.9836 32.1899 25.0104 32.0127 25C31.4817 25 31.2645 24.759 31.2645 24.3491C31.2617 24.2562 31.2774 24.1636 31.3105 24.0768C31.3436 23.9899 31.3936 23.9104 31.4575 23.8429C31.9292 23.713 32.4164 23.6481 32.9056 23.65V23.4812C32.9056 23.1437 32.7608 22.9991 32.2781 22.9991C32.0113 22.9971 31.7474 23.0547 31.5058 23.1678L31.4093 22.9026ZM32.9056 23.8429C32.4988 23.8382 32.0931 23.8868 31.6989 23.9875C31.6288 24.0686 31.5865 24.17 31.5782 24.2768C31.5782 24.542 31.723 24.6625 32.0368 24.6625C32.1975 24.6726 32.3584 24.6476 32.5084 24.5893C32.6584 24.531 32.794 24.4408 32.9056 24.325V23.8429Z" fill="#F7F7F7"/>
<path d="M34.4504 22.7579L35.2951 24.1562L36.1398 22.7579H36.5018V24.9277H36.1881V23.1919H36.1639L35.3916 24.4696H35.1503L34.378 23.1919H34.3538L34.378 23.8428V24.9277H34.0642V22.7579H34.4504Z" fill="#F7F7F7"/>
<path d="M37.5879 22.7579V23.8669L37.5638 24.5419L38.9636 22.7579H39.2773V24.9277H38.9636V23.1678L37.5638 24.9277H37.25V22.7579H37.5879Z" fill="#F7F7F7"/>
<path d="M43.6698 21.8901C43.6063 22.0063 43.5165 22.106 43.4076 22.1814C43.2986 22.2567 43.1735 22.3056 43.0423 22.324L42.4775 22.4204C42.0672 22.4928 41.8018 22.8544 41.7293 23.3124H41.7535C41.8556 23.1596 41.9967 23.0366 42.162 22.9562C42.3274 22.8757 42.5113 22.8405 42.6947 22.8544C42.833 22.8471 42.9712 22.8689 43.1004 22.9184C43.2296 22.968 43.3469 23.0441 43.4448 23.1418C43.5427 23.2396 43.6189 23.3568 43.6684 23.4859C43.718 23.6149 43.7398 23.753 43.7325 23.891C43.7325 24.5419 43.2499 24.9277 42.6223 24.9277C41.8018 24.9277 41.4639 24.3973 41.4639 23.6017C41.4639 22.6856 41.85 22.2517 42.5258 22.107L43.0568 22.0106C43.1488 21.996 43.237 21.9627 43.3158 21.913C43.3946 21.8633 43.4625 21.7981 43.5153 21.7213L43.6698 21.8901ZM42.6079 24.6625C42.8095 24.6625 43.0029 24.5825 43.1454 24.4401C43.288 24.2977 43.3681 24.1045 43.3681 23.9031C43.3681 23.7017 43.288 23.5085 43.1454 23.3661C43.0029 23.2237 42.8095 23.1437 42.6079 23.1437C42.5035 23.1328 42.3981 23.1441 42.2985 23.1768C42.1988 23.2095 42.1072 23.2629 42.0297 23.3335C41.9522 23.4041 41.8906 23.4903 41.8488 23.5863C41.807 23.6824 41.786 23.7863 41.7873 23.891C41.7853 23.997 41.8055 24.1023 41.8467 24.2C41.8878 24.2978 41.949 24.3858 42.0263 24.4585C42.1036 24.5312 42.1953 24.5869 42.2955 24.622C42.3956 24.6571 42.502 24.6709 42.6079 24.6625Z" fill="#F7F7F7"/>
<path d="M44.5869 23.8911C44.611 24.4455 45.0213 24.6625 45.4799 24.6625C45.7397 24.6725 45.9977 24.6143 46.228 24.4938L46.3246 24.7589C46.052 24.8816 45.7545 24.9394 45.4557 24.9277C44.6834 24.9277 44.249 24.4938 44.249 23.8187C44.246 23.665 44.275 23.5123 44.334 23.3703C44.393 23.2283 44.4809 23.1 44.592 22.9936C44.7031 22.8871 44.835 22.8048 44.9795 22.7518C45.124 22.6988 45.2779 22.6763 45.4316 22.6857C46.1074 22.6857 46.4211 23.0473 46.4211 23.5777C46.4251 23.6827 46.417 23.7879 46.397 23.8911H44.5869ZM46.1315 23.6259C46.1315 23.1437 45.8902 22.975 45.4075 22.975C45.2146 22.9644 45.0246 23.0248 44.8734 23.1447C44.7222 23.2647 44.6202 23.4359 44.5869 23.6259H46.1315Z" fill="#F7F7F7"/>
<path d="M47.0245 22.8785C47.2823 22.7361 47.5751 22.6692 47.8692 22.6857C48.3037 22.6857 48.714 22.8303 48.714 23.2643C48.7162 23.3483 48.6948 23.4313 48.6521 23.5038C48.6095 23.5762 48.5473 23.6353 48.4726 23.6741V23.6982C48.5861 23.7324 48.6853 23.8027 48.755 23.8985C48.8247 23.9943 48.8612 24.1102 48.8588 24.2286C48.8588 24.6143 48.5692 24.9277 47.821 24.9277C47.5112 24.9466 47.2023 24.8798 46.928 24.7349L47.0487 24.4938C47.2836 24.6255 47.5525 24.6843 47.821 24.6625C48.3037 24.6625 48.545 24.4938 48.545 24.2286C48.545 23.9634 48.3519 23.8429 48.0382 23.8429H47.4107V23.5777H47.9899C48.2554 23.5777 48.4002 23.4812 48.4002 23.2643C48.4002 23.0473 48.183 22.9268 47.821 22.9268C47.5768 22.9195 47.3351 22.9778 47.1211 23.0955L47.0245 22.8785Z" fill="#F7F7F7"/>
<path d="M50.4758 24.9518C49.8 24.9518 49.269 24.5179 49.269 23.8187C49.269 23.1196 49.8 22.6857 50.4758 22.6857C51.1516 22.6857 51.6825 23.1196 51.6825 23.8187C51.6825 24.5179 51.1516 24.9518 50.4758 24.9518ZM50.4758 24.6866C50.6465 24.6819 50.8121 24.627 50.9517 24.5288C51.0914 24.4306 51.199 24.2935 51.2611 24.1345C51.3232 23.9756 51.337 23.8019 51.3008 23.6351C51.2646 23.4684 51.18 23.316 51.0576 23.197C50.9351 23.0781 50.7803 22.9978 50.6125 22.9662C50.4446 22.9346 50.2712 22.9531 50.1138 23.0195C49.9565 23.0858 49.8222 23.197 49.7277 23.3392C49.6333 23.4813 49.5829 23.6481 49.5828 23.8187C49.577 23.9363 49.5963 24.0538 49.6394 24.1634C49.6826 24.2729 49.7486 24.3721 49.833 24.4542C49.9175 24.5363 50.0185 24.5995 50.1294 24.6395C50.2402 24.6796 50.3583 24.6957 50.4758 24.6866Z" fill="#F7F7F7"/>
<path d="M54.2407 22.7339V24.9036H53.927V23.0232H52.614V24.9036H52.3003V22.7339H54.2407Z" fill="#F7F7F7"/>
<path d="M55.1581 22.8785C55.4405 22.76 55.7448 22.7024 56.051 22.7097C56.6786 22.7097 56.9682 22.9267 56.9682 23.4571V24.3973C56.9682 24.6143 57.0406 24.6866 57.2578 24.7107V24.9277C57.1807 24.9574 57.0991 24.9737 57.0164 24.9759C56.8475 24.9759 56.751 24.8794 56.7268 24.6143C56.6001 24.7385 56.4487 24.8349 56.2825 24.8972C56.1162 24.9594 55.9387 24.9863 55.7614 24.9759C55.2305 24.9759 55.0132 24.7348 55.0132 24.325C55.0105 24.232 55.0261 24.1395 55.0593 24.0526C55.0924 23.9657 55.1424 23.8862 55.2063 23.8187C55.678 23.6889 56.1652 23.624 56.6544 23.6258V23.4571C56.6544 23.1196 56.5096 22.9749 56.0269 22.9749C55.7601 22.9729 55.4962 23.0306 55.2546 23.1437L55.1581 22.8785ZM56.6303 23.8187C56.2234 23.8141 55.8177 23.8627 55.4235 23.9633C55.3534 24.0444 55.3111 24.1458 55.3029 24.2526C55.3029 24.5178 55.4477 24.6384 55.7614 24.6384C55.9221 24.6484 56.083 24.6234 56.233 24.5651C56.3831 24.5068 56.5186 24.4167 56.6303 24.3009V23.8187Z" fill="#F7F7F7"/>
<path d="M59.5265 23.0714C59.3381 22.9832 59.1311 22.9418 58.9232 22.9509C58.3439 22.9509 58.006 23.2402 58.006 23.8188C58.0039 23.9322 58.0252 24.0449 58.0684 24.1498C58.1116 24.2547 58.176 24.3497 58.2574 24.4287C58.3388 24.5078 58.4357 24.5694 58.5419 24.6096C58.6481 24.6498 58.7614 24.6678 58.8749 24.6625C59.1238 24.6659 59.3705 24.6166 59.5989 24.5179L59.6955 24.7831C59.4299 24.9012 59.1414 24.9589 58.8508 24.9518C58.6998 24.9635 58.548 24.9431 58.4054 24.8922C58.2628 24.8412 58.1326 24.7608 58.0233 24.6561C57.914 24.5514 57.828 24.4249 57.7709 24.2848C57.7139 24.1446 57.6871 23.9941 57.6923 23.8429C57.6923 23.6879 57.7241 23.5346 57.7857 23.3923C57.8473 23.2501 57.9374 23.1219 58.0505 23.0158C58.1635 22.9096 58.2971 22.8277 58.4431 22.7751C58.589 22.7225 58.7442 22.7003 58.899 22.7098C59.1641 22.6994 59.4281 22.7488 59.6713 22.8544L59.5265 23.0714Z" fill="#F7F7F7"/>
<path d="M60.6608 22.7339V23.6259H62.0124V22.7339H62.3261V24.9036H62.0124V23.9152H60.6608V24.9036H60.3374V22.7339H60.6608Z" fill="#F7F7F7"/>
<path d="M64.1604 24.9277C63.4846 24.9277 62.9536 24.4937 62.9536 23.7946C62.9536 23.0954 63.4846 22.6615 64.1604 22.6615C64.8361 22.6615 65.3671 23.0954 65.3671 23.7946C65.3671 24.4937 64.8361 24.9277 64.1604 24.9277ZM64.1604 24.6625C64.2774 24.6696 64.3947 24.6522 64.5047 24.6114C64.6146 24.5706 64.7148 24.5074 64.7989 24.4257C64.883 24.344 64.949 24.2456 64.9928 24.137C65.0367 24.0283 65.0573 23.9117 65.0534 23.7946C65.0592 23.677 65.0399 23.5595 64.9967 23.4499C64.9536 23.3404 64.8876 23.2413 64.8031 23.1592C64.7186 23.0771 64.6176 23.0139 64.5068 22.9738C64.396 22.9337 64.2779 22.9176 64.1604 22.9267C64.0433 22.9196 63.926 22.937 63.8161 22.9777C63.7061 23.0185 63.6059 23.0818 63.5218 23.1635C63.4378 23.2452 63.3717 23.3435 63.3279 23.4522C63.2841 23.5609 63.2635 23.6775 63.2674 23.7946C63.2656 23.9111 63.2877 24.0267 63.3323 24.1344C63.3769 24.2421 63.443 24.3395 63.5266 24.4208C63.6102 24.5021 63.7095 24.5654 63.8185 24.607C63.9275 24.6485 64.0438 24.6674 64.1604 24.6625Z" fill="#F7F7F7"/>
</g>
<defs>
<clipPath id="clip0">
<rect width="77" height="25" fill="white"/>
</clipPath>
</defs>
</svg>
