<svg width="85" height="18" viewBox="0 0 85 18" fill="none" xmlns="http://www.w3.org/2000/svg">
<g clip-path="url(#clip0)">
<path d="M21.9434 6.56543H37.0954C38.3738 6.56543 39.5998 7.07628 40.5038 7.98561C41.4078 8.89493 41.9156 10.1282 41.9156 11.4142V11.4142C41.9156 11.4192 41.9137 11.424 41.9101 11.4276C41.9066 11.4311 41.9018 11.4331 41.8968 11.4331H26.7448C25.4664 11.4331 24.2403 10.9223 23.3364 10.013C22.4324 9.10363 21.9246 7.87032 21.9246 6.58434V6.58434C21.9246 6.58186 21.925 6.5794 21.926 6.5771C21.9269 6.57481 21.9283 6.57272 21.9301 6.57097C21.9318 6.56921 21.9339 6.56782 21.9362 6.56687C21.9384 6.56592 21.9409 6.56543 21.9434 6.56543V6.56543Z" fill="#F7444E"/>
<path d="M37.0953 4.86771L21.9433 4.86771C21.9383 4.86771 21.9335 4.86571 21.93 4.86217C21.9264 4.85862 21.9245 4.85381 21.9245 4.84879V4.84879C21.9245 3.56282 22.4323 2.32951 23.3363 1.42019C24.2402 0.510863 25.4663 1.07157e-05 26.7447 1.07157e-05L41.8967 1.07157e-05C41.9017 1.07157e-05 41.9065 0.002003 41.91 0.00554972C41.9135 0.00909643 41.9155 0.0139067 41.9155 0.0189225V0.0189225C41.9155 1.3049 41.4077 2.53821 40.5037 3.44753C39.5997 4.35685 38.3737 4.86771 37.0953 4.86771V4.86771Z" fill="#F7444E"/>
<path d="M14.4819 17.9985H14.4419V17.9665C14.4424 17.9713 14.4439 17.976 14.4462 17.9802C14.4485 17.9844 14.4516 17.9881 14.4553 17.9911C14.459 17.994 14.4633 17.9962 14.4678 17.9975C14.4724 17.9988 14.4772 17.9992 14.4819 17.9985Z" fill="#F7444E"/>
<path d="M41.9142 13.1658C41.9142 14.4998 41.2981 15.7087 40.3017 16.5845C39.2146 17.5113 37.832 18.0133 36.407 17.9985H14.4824C14.4776 17.9991 14.4728 17.9988 14.4682 17.9975C14.4636 17.9962 14.4593 17.994 14.4555 17.9911C14.4517 17.9881 14.4486 17.9844 14.4462 17.9802C14.4439 17.976 14.4424 17.9713 14.4419 17.9665V6.60033C14.443 6.59055 14.4478 6.58159 14.4554 6.57534C14.463 6.56909 14.4726 6.56605 14.4824 6.56687H19.9896V13.1308H41.8766C41.8814 13.1306 41.8861 13.1314 41.8906 13.133C41.895 13.1347 41.8991 13.1372 41.9026 13.1405C41.9061 13.1437 41.9089 13.1476 41.9109 13.1519C41.9129 13.1563 41.914 13.161 41.9142 13.1658Z" fill="#F7444E"/>
<path d="M19.9707 4.86771L4.83748 4.86771C3.55408 4.86771 2.32325 4.35486 1.41576 3.44199C0.50826 2.52912 -0.00156533 1.291 -0.00156533 1.07157e-05L15.1693 1.07157e-05C16.4477 1.07157e-05 17.6737 0.510863 18.5777 1.42019C19.4817 2.32951 19.9895 3.56282 19.9895 4.84879V4.84879C19.9895 4.85381 19.9875 4.85862 19.984 4.86217C19.9805 4.86571 19.9757 4.86771 19.9707 4.86771V4.86771Z" fill="#F7444E"/>
<path d="M12.7686 6.56686V17.9811C12.7686 17.9861 12.7666 17.9909 12.763 17.9944C12.7595 17.998 12.7547 18 12.7498 18V18C11.2834 18 9.8771 17.414 8.84024 16.371C7.80337 15.328 7.22086 13.9134 7.22086 12.4384V6.56686H12.7686Z" fill="#F7444E"/>
<path d="M3.93962 11.5713C4.8853 11.5713 5.65194 10.8002 5.65194 9.84886C5.65194 8.89757 4.8853 8.1264 3.93962 8.1264C2.99393 8.1264 2.22729 8.89757 2.22729 9.84886C2.22729 10.8002 2.99393 11.5713 3.93962 11.5713Z" fill="#F7444E"/>
<path d="M46.71 4.87643H46.3745V13.1614H46.71V4.87643Z" fill="#282828"/>
<path d="M51.8369 12.3656C51.7706 12.2883 51.7369 12.1882 51.7429 12.0863V7.81217C51.7429 7.14297 51.9309 6.61585 52.3069 6.23082C52.6829 5.84579 53.2006 5.65182 53.8601 5.64891C54.2332 5.64377 54.6001 5.74462 54.9187 5.93987C55.2301 6.12795 55.4811 6.40217 55.6419 6.72981C55.8013 6.40014 56.0525 6.12417 56.365 5.9355C56.6868 5.73899 57.0573 5.63812 57.4337 5.64455C58.0922 5.64455 58.61 5.83561 58.987 6.21773C59.3639 6.59985 59.5519 7.12842 59.551 7.80344V12.0907C59.5539 12.1415 59.5467 12.1923 59.5298 12.2403C59.5129 12.2883 59.4867 12.3324 59.4526 12.37C59.4183 12.4031 59.3776 12.4288 59.3332 12.4458C59.2887 12.4628 59.2413 12.4707 59.1938 12.4689C59.1461 12.472 59.0983 12.4648 59.0537 12.4477C59.009 12.4306 58.9685 12.4041 58.9349 12.37C58.8708 12.2918 58.8387 12.1919 58.8452 12.0907V7.81217C58.8452 7.31366 58.7339 6.93154 58.5112 6.6658C58.2884 6.40006 57.923 6.26768 57.4149 6.26865C57.2215 6.25773 57.0279 6.28885 56.8475 6.35989C56.6671 6.43093 56.504 6.54023 56.3693 6.68035C56.1046 6.99534 55.9701 7.4004 55.9933 7.81217V12.0907C55.9992 12.1925 55.9655 12.2927 55.8993 12.37C55.8661 12.4034 55.8263 12.4295 55.7824 12.4465C55.7386 12.4636 55.6917 12.4712 55.6448 12.4689C55.5987 12.4714 55.5526 12.4638 55.5096 12.4468C55.4667 12.4297 55.428 12.4035 55.396 12.37C55.3325 12.2914 55.3005 12.1918 55.3063 12.0907V7.81217C55.3264 7.40158 55.1857 6.99943 54.9144 6.69199C54.7813 6.55208 54.6201 6.44224 54.4416 6.36976C54.2631 6.29727 54.0713 6.2638 53.8789 6.27156C53.3718 6.27156 53.0064 6.40394 52.7827 6.66871C52.559 6.93348 52.4476 7.3156 52.4486 7.81508V12.0907C52.453 12.1912 52.4188 12.2897 52.3532 12.3656C52.3185 12.3995 52.2772 12.4258 52.2319 12.4428C52.1865 12.4599 52.1382 12.4673 52.0899 12.4646C52.0432 12.4666 51.9966 12.4589 51.9531 12.4419C51.9095 12.4248 51.8699 12.3989 51.8369 12.3656V12.3656Z" fill="#282828"/>
<path d="M62.0427 12.0747C61.9325 11.9633 61.8471 11.8298 61.792 11.6829C61.7369 11.5359 61.7134 11.3789 61.723 11.2222V6.88401C61.7145 6.73059 61.7382 6.57709 61.7925 6.43348C61.8468 6.28986 61.9306 6.15935 62.0383 6.05042C62.2784 5.83855 62.5915 5.7299 62.9104 5.74782H65.8274C66.0718 5.74782 66.1947 5.8482 66.1947 6.05042C66.1965 6.0901 66.1889 6.12963 66.1726 6.16579C66.1562 6.20194 66.1316 6.2337 66.1007 6.25845C66.0209 6.31438 65.9244 6.34108 65.8274 6.3341H62.922C62.8548 6.33066 62.7878 6.34189 62.7253 6.367C62.6629 6.39211 62.6067 6.43052 62.5604 6.47958C62.4663 6.59019 62.4177 6.73275 62.4245 6.87819V8.6923H65.1159C65.3603 8.6923 65.4818 8.79268 65.4818 8.99489C65.4842 9.03656 65.4765 9.07819 65.4594 9.11621C65.4422 9.15422 65.4162 9.18748 65.3834 9.21311C65.3049 9.26715 65.2109 9.29373 65.1159 9.28876H62.4245V11.2382C62.4175 11.3832 62.4661 11.5254 62.5604 11.6353C62.6065 11.6845 62.6628 11.723 62.7252 11.7482C62.7877 11.7733 62.8548 11.7844 62.922 11.7808H66.0371C66.283 11.7808 66.4044 11.8783 66.4044 12.0718C66.4066 12.1134 66.3988 12.1549 66.3817 12.1929C66.3646 12.2309 66.3387 12.2642 66.3061 12.29C66.2272 12.3443 66.1326 12.3709 66.0371 12.3656H62.9321C62.6093 12.3881 62.2905 12.2838 62.0427 12.0747V12.0747Z" fill="#282828"/>
<path d="M68.6954 12.0659C68.5861 11.9552 68.5011 11.8226 68.4461 11.6768C68.391 11.5309 68.3671 11.375 68.3758 11.2193V6.88401C68.3678 6.73027 68.3922 6.57658 68.4473 6.43295C68.5023 6.28932 68.5869 6.15898 68.6954 6.05042C68.9373 5.83673 69.2534 5.72796 69.5747 5.74783H70.8922C71.4874 5.73351 72.0761 5.8754 72.6002 6.15953C73.0801 6.42866 73.4713 6.83324 73.7253 7.32335C73.9977 7.86373 74.1333 8.46337 74.1201 9.06909C74.1343 9.67492 73.9987 10.2748 73.7253 10.8148C73.4702 11.3004 73.0789 11.7 72.6002 11.9641C72.0752 12.2455 71.4869 12.3858 70.8922 12.3714H69.5906C69.2638 12.3926 68.9419 12.2827 68.6954 12.0659V12.0659ZM70.7996 11.7837C71.6278 11.7837 72.2695 11.5466 72.7245 11.0723C73.1796 10.5981 73.4067 9.92935 73.4057 9.06618C73.4057 8.20204 73.1767 7.52993 72.7188 7.04986C72.2608 6.56978 71.6211 6.32731 70.7996 6.32247H69.5863C69.5189 6.31891 69.4516 6.33008 69.3889 6.35519C69.3262 6.3803 69.2697 6.41877 69.2232 6.46794C69.1291 6.57855 69.0805 6.72112 69.0873 6.86655V11.2382C69.0803 11.3832 69.129 11.5254 69.2232 11.6353C69.2695 11.6847 69.326 11.7234 69.3887 11.7485C69.4514 11.7736 69.5189 11.7847 69.5863 11.7808L70.7996 11.7837Z" fill="#282828"/>
<path d="M76.4935 12.3656C76.4267 12.2887 76.3929 12.1883 76.3995 12.0863V6.03153C76.3929 5.9296 76.4267 5.82919 76.4935 5.75222C76.5265 5.7189 76.5661 5.69289 76.6096 5.67585C76.6532 5.65881 76.6999 5.65113 76.7466 5.65329C76.7954 5.65068 76.8443 5.65854 76.8899 5.67634C76.9356 5.69415 76.9769 5.7215 77.0112 5.75658C77.076 5.83298 77.1096 5.93122 77.1052 6.03153V12.0907C77.1102 12.1911 77.0765 12.2895 77.0112 12.3656C76.9772 12.4012 76.9359 12.429 76.8903 12.4471C76.8446 12.4651 76.7956 12.4731 76.7466 12.4704C76.6994 12.4718 76.6525 12.4632 76.6089 12.4452C76.5653 12.4271 76.526 12.4 76.4935 12.3656V12.3656Z" fill="#282828"/>
<path d="M79.6547 12.3656C79.5885 12.2883 79.5548 12.1882 79.5607 12.0863V8.38826C79.5607 7.53188 79.8018 6.86171 80.2838 6.37775C80.7659 5.89379 81.4326 5.65133 82.284 5.65036C83.1295 5.65036 83.7943 5.89282 84.2783 6.37775C84.7623 6.86268 85.0033 7.53139 85.0014 8.38389V12.0907C85.0073 12.1925 84.9736 12.2927 84.9074 12.37C84.8728 12.4039 84.8315 12.4303 84.7861 12.4473C84.7408 12.4643 84.6925 12.4717 84.6442 12.4689C84.5966 12.4708 84.5492 12.4631 84.5047 12.4461C84.4602 12.4291 84.4196 12.4032 84.3853 12.37C84.351 12.3325 84.3246 12.2885 84.3077 12.2405C84.2908 12.1925 84.2838 12.1415 84.287 12.0907V9.96087H80.265V12.0907C80.271 12.1925 80.2372 12.2927 80.171 12.37C80.1364 12.4039 80.0951 12.4303 80.0498 12.4473C80.0045 12.4643 79.9561 12.4717 79.9078 12.4689C79.8608 12.4704 79.814 12.462 79.7704 12.4442C79.7268 12.4264 79.6874 12.3997 79.6547 12.3656V12.3656ZM84.2826 9.36878V8.35043C84.2826 7.67153 84.1101 7.15218 83.7649 6.79236C83.4197 6.43255 82.9251 6.25361 82.2811 6.25555C81.6274 6.25555 81.1284 6.43546 80.7842 6.79527C80.44 7.15509 80.267 7.67687 80.265 8.36062V9.37896L84.2826 9.36878Z" fill="#282828"/>
</g>
<defs>
<clipPath id="clip0">
<rect width="85" height="18" fill="white"/>
</clipPath>
</defs>
</svg>
