<svg width="53" height="24" viewBox="0 0 53 24" fill="none" xmlns="http://www.w3.org/2000/svg">
<g clip-path="url(#clip0)">
<path d="M1.92958 23.9565V21.8034H1.20557V21.4143H3.12538V21.8034H2.39345V23.9565H1.92958Z" fill="#F7F7F7"/>
<path d="M5.00372 24C4.8435 24.0065 4.68383 23.9771 4.53635 23.9141C4.38887 23.8511 4.25727 23.756 4.15114 23.6357C3.93149 23.3767 3.8171 23.0445 3.83067 22.7051C3.81685 22.3543 3.93751 22.0115 4.16795 21.7469C4.27738 21.6244 4.41229 21.5275 4.56317 21.4628C4.71406 21.3982 4.87726 21.3674 5.04131 21.3727C5.20244 21.3659 5.36306 21.3951 5.51154 21.4581C5.66002 21.5211 5.79265 21.6163 5.89983 21.737C6.11747 21.9942 6.23107 22.3237 6.21832 22.6606C6.21832 23.0783 6.10589 23.406 5.88104 23.6436C5.76845 23.7619 5.63198 23.8549 5.48072 23.9163C5.32945 23.9777 5.16685 24.0063 5.00372 24ZM5.01856 23.6267C5.12068 23.6313 5.22224 23.6093 5.31338 23.563C5.40453 23.5167 5.48219 23.4476 5.53882 23.3624C5.66051 23.1605 5.72483 22.9291 5.72483 22.6932C5.72483 22.4574 5.66051 22.226 5.53882 22.024C5.48123 21.9399 5.40403 21.8711 5.31389 21.8236C5.22376 21.776 5.12341 21.7512 5.02153 21.7512C4.91964 21.7512 4.81929 21.776 4.72916 21.8236C4.63903 21.8711 4.56183 21.9399 4.50424 22.024C4.37463 22.2244 4.3094 22.4596 4.3173 22.6982C4.30863 22.934 4.37476 23.1665 4.50622 23.3624C4.56214 23.4464 4.63853 23.5148 4.72817 23.561C4.81782 23.6073 4.91776 23.6299 5.01856 23.6267Z" fill="#F7F7F7"/>
<path d="M8.1718 23.9565H7.70792V22.8982L6.90479 21.4133H7.43691L7.73364 22.0667C7.82364 22.2647 7.89783 22.432 7.95618 22.5725H7.9631C8.01058 22.4468 8.08377 22.2756 8.18169 22.0667L8.48732 21.4133H9.01153L8.16686 22.8854L8.1718 23.9565Z" fill="#F7F7F7"/>
<path d="M10.8275 23.9999C10.6672 24.0066 10.5075 23.9773 10.36 23.9143C10.2125 23.8513 10.0809 23.7561 9.97487 23.6356C9.75522 23.3767 9.64083 23.0445 9.6544 22.7051C9.64058 22.3543 9.76124 22.0115 9.99168 21.7469C10.1011 21.6244 10.236 21.5275 10.3869 21.4628C10.5378 21.3982 10.701 21.3674 10.865 21.3727C11.0262 21.3659 11.1868 21.3951 11.3353 21.4581C11.4838 21.5211 11.6164 21.6163 11.7236 21.737C11.9408 21.9945 12.0543 22.3238 12.042 22.6606C12.042 23.0783 11.9296 23.406 11.7048 23.6436C11.5922 23.7619 11.4557 23.8548 11.3044 23.9163C11.1532 23.9777 10.9906 24.0063 10.8275 23.9999ZM10.8423 23.6267C10.9438 23.6298 11.0444 23.6067 11.1344 23.5598C11.2245 23.5128 11.301 23.4435 11.3566 23.3585C11.4783 23.1565 11.5426 22.9251 11.5426 22.6893C11.5426 22.4534 11.4783 22.222 11.3566 22.0201C11.3014 21.9338 11.2248 21.8634 11.1344 21.8155C11.0439 21.7676 10.9426 21.744 10.8403 21.7469C10.7375 21.7435 10.6356 21.7669 10.5446 21.8148C10.4536 21.8627 10.3765 21.9334 10.321 22.0201C10.1922 22.2207 10.1274 22.4558 10.1351 22.6942C10.1266 22.9299 10.1923 23.1622 10.323 23.3585C10.3791 23.4442 10.4564 23.514 10.5474 23.561C10.6384 23.608 10.74 23.6307 10.8423 23.6267Z" fill="#F7F7F7"/>
<path d="M13.4635 23.9565V21.8034H12.7395V21.4143H14.6593V21.8034H13.9274V23.9565H13.4635Z" fill="#F7F7F7"/>
<path d="M16.6394 23.2377H15.8323L15.6138 23.9564H15.1331L15.9471 21.4122H16.5405L17.3664 23.9564H16.8719L16.6394 23.2377ZM15.9075 22.8862H16.5603L16.3625 22.2596C16.3401 22.1897 16.2972 22.0313 16.2339 21.7844H16.221C16.221 21.7924 16.2023 21.8577 16.1716 21.9824C16.1409 22.1072 16.1172 22.1992 16.1004 22.2596L15.9075 22.8862Z" fill="#F7F7F7"/>
<path d="M19.7817 23.9564V21.4122H20.2456V23.5703H21.2911V23.9564H19.7817Z" fill="#F7F7F7"/>
<path d="M23.7072 22.4527V22.8298H22.7488V23.5772H23.82V23.9564H22.2849V21.4122H23.7636V21.7934H22.7488V22.4507L23.7072 22.4527Z" fill="#F7F7F7"/>
<path d="M26.7664 23.9564H26.2264L25.9554 23.4515C25.8644 23.2905 25.779 23.1304 25.6992 22.9714H25.6913C25.6438 23.0852 25.5667 23.2446 25.4609 23.4515L25.2086 23.9564H24.6765L25.4312 22.6695L24.7032 21.4122H25.2383L25.5143 21.9369C25.5894 22.0834 25.6587 22.225 25.721 22.3636H25.7329C25.7952 22.218 25.8624 22.0755 25.9307 21.9369L26.2027 21.4122H26.7338L25.991 22.6546L26.7664 23.9564Z" fill="#F7F7F7"/>
<path d="M27.7468 21.4143H28.2107V22.8992C28.1971 23.0913 28.246 23.2827 28.3502 23.4447C28.3941 23.5037 28.4517 23.5513 28.518 23.5832C28.5844 23.615 28.6574 23.6304 28.731 23.6278C29.0877 23.6278 29.2664 23.3849 29.267 22.8992V21.4143H29.7309V22.8675C29.7309 23.2477 29.6409 23.5314 29.4609 23.7189C29.3633 23.8153 29.2466 23.8902 29.1183 23.9386C28.99 23.987 28.853 24.008 28.7161 24C28.5845 24.0079 28.4528 23.9877 28.3296 23.9405C28.2065 23.8934 28.0948 23.8206 28.002 23.7268C27.8319 23.5446 27.7468 23.2595 27.7468 22.8715V21.4143Z" fill="#F7F7F7"/>
<path d="M30.79 23.8376L30.8959 23.4536C31.0826 23.5621 31.2952 23.6178 31.5111 23.6149C31.6321 23.6212 31.7516 23.5863 31.8503 23.5159C31.8891 23.4865 31.9203 23.4483 31.9413 23.4044C31.9623 23.3605 31.9725 23.3121 31.971 23.2635C31.9721 23.2185 31.9633 23.1739 31.9454 23.1327C31.9275 23.0915 31.9008 23.0547 31.8672 23.0249C31.7638 22.9436 31.647 22.8813 31.522 22.8408C31.0604 22.6798 30.8296 22.4342 30.8296 22.1043C30.8277 22.0034 30.849 21.9034 30.8918 21.8121C30.9347 21.7207 30.998 21.6405 31.0769 21.5776C31.2636 21.433 31.4958 21.3599 31.7316 21.3717C31.9426 21.3675 32.1518 21.4119 32.3429 21.5014L32.2311 21.8776C32.0736 21.7967 31.8988 21.7553 31.7218 21.7568C31.6101 21.7489 31.4992 21.7812 31.4092 21.8479C31.3759 21.8742 31.3489 21.9077 31.3304 21.946C31.3119 21.9842 31.3022 22.0261 31.3022 22.0686C31.3022 22.1111 31.3119 22.1531 31.3304 22.1913C31.3489 22.2295 31.3759 22.2631 31.4092 22.2894C31.5255 22.3707 31.6532 22.4344 31.788 22.4785C31.9747 22.5404 32.1442 22.6455 32.2826 22.7853C32.3892 22.9095 32.4457 23.0691 32.4408 23.2328C32.443 23.3364 32.4219 23.4392 32.3791 23.5336C32.3363 23.628 32.2729 23.7116 32.1935 23.7783C32.0287 23.9241 31.7903 23.9967 31.4784 23.996C31.3478 23.996 31.2175 23.9801 31.0907 23.9485C30.9858 23.926 30.8845 23.8886 30.79 23.8376Z" fill="#F7F7F7"/>
<path d="M34.8157 23.8376L34.9215 23.4536C35.1082 23.5621 35.3208 23.6178 35.5367 23.6149C35.6577 23.6212 35.7773 23.5863 35.876 23.5159C35.9148 23.4865 35.946 23.4483 35.967 23.4044C35.9879 23.3605 35.9981 23.3121 35.9966 23.2635C35.9977 23.2185 35.989 23.1739 35.971 23.1327C35.9531 23.0915 35.9264 23.0547 35.8928 23.0249C35.7895 22.9436 35.6726 22.8813 35.5476 22.8408C35.086 22.6798 34.8552 22.4342 34.8552 22.1043C34.8533 22.0034 34.8746 21.9034 34.9175 21.8121C34.9604 21.7207 35.0237 21.6405 35.1025 21.5776C35.2892 21.433 35.5215 21.3599 35.7573 21.3717C35.9666 21.3666 36.1742 21.4092 36.3646 21.4964L36.2518 21.8776C36.0942 21.7968 35.9195 21.7554 35.7424 21.7568C35.6307 21.7487 35.5198 21.781 35.4299 21.8479C35.3966 21.8742 35.3696 21.9077 35.3511 21.946C35.3326 21.9842 35.3229 22.0261 35.3229 22.0686C35.3229 22.1111 35.3326 22.1531 35.3511 22.1913C35.3696 22.2295 35.3966 22.2631 35.4299 22.2894C35.5462 22.3707 35.6739 22.4344 35.8087 22.4785C35.9956 22.54 36.1651 22.6452 36.3033 22.7853C36.4107 22.9091 36.4676 23.0689 36.4625 23.2328C36.4647 23.3364 36.4436 23.4392 36.4008 23.5336C36.358 23.628 36.2946 23.7116 36.2152 23.7783C36.0497 23.9241 35.8114 23.9967 35.5001 23.996C35.3694 23.996 35.2392 23.9801 35.1124 23.9485C35.0088 23.9256 34.9089 23.8883 34.8157 23.8376Z" fill="#F7F7F7"/>
<path d="M38.9452 22.4527V22.8298H37.9868V23.5772H39.058V23.9564H37.5229V21.4122H39.0016V21.7934H37.9868V22.4507L38.9452 22.4527Z" fill="#F7F7F7"/>
<path d="M40.1062 23.9564V21.4519C40.338 21.4113 40.5731 21.3924 40.8085 21.3955C41.1678 21.3955 41.4293 21.4634 41.5928 21.5994C41.6657 21.6629 41.7233 21.7421 41.7612 21.8311C41.7991 21.9201 41.8162 22.0165 41.8114 22.1132C41.8141 22.2567 41.7669 22.3966 41.6779 22.5091C41.5924 22.6171 41.4777 22.6982 41.3475 22.7428V22.7546C41.5186 22.817 41.6363 22.9813 41.7016 23.2496C41.815 23.6819 41.881 23.9181 41.8994 23.9584H41.4247C41.3475 23.7648 41.2905 23.5638 41.2545 23.3585C41.2349 23.2324 41.1808 23.1142 41.0983 23.017C41.0148 22.9487 40.9092 22.9135 40.8015 22.918H40.5671V23.9564H40.1062ZM40.5661 21.7677V22.5705H40.8421C40.9748 22.5779 41.1059 22.5379 41.212 22.4577C41.2552 22.4203 41.2895 22.3736 41.3123 22.3212C41.335 22.2688 41.3457 22.2119 41.3435 22.1547C41.3473 22.0974 41.3374 22.0399 41.3147 21.9871C41.292 21.9343 41.2572 21.8876 41.213 21.8508C41.1065 21.7773 40.9781 21.7424 40.849 21.7518C40.7543 21.7476 40.6595 21.7536 40.5661 21.7697V21.7677Z" fill="#F7F7F7"/>
<path d="M44.022 23.9564H43.4899L42.667 21.4122H43.1734L43.5196 22.5705C43.6353 22.9526 43.7174 23.2634 43.7688 23.4951H43.7767C43.8262 23.2661 43.9129 22.9592 44.0369 22.5744L44.4098 21.4142H44.9043L44.022 23.9564Z" fill="#F7F7F7"/>
<path d="M45.8174 21.4143H46.2812V23.9565H45.8174V21.4143Z" fill="#F7F7F7"/>
<path d="M49.1999 23.5169L49.2751 23.8831C49.066 23.9687 48.8409 24.0076 48.6153 23.997C48.2157 23.997 47.8996 23.8812 47.6668 23.6495C47.5482 23.5261 47.4561 23.3797 47.396 23.2193C47.336 23.059 47.3093 22.888 47.3176 22.717C47.3091 22.5362 47.3388 22.3556 47.4048 22.1871C47.4708 22.0186 47.5715 21.8659 47.7004 21.7389C47.9195 21.5587 48.1827 21.4402 48.4628 21.3958C48.743 21.3514 49.0299 21.3827 49.2938 21.4865L49.1949 21.8557C49.0387 21.7887 48.8703 21.755 48.7004 21.7568C48.5819 21.7517 48.4636 21.7709 48.3527 21.8131C48.2418 21.8553 48.1407 21.9196 48.0555 22.0023C47.899 22.1935 47.8124 22.4325 47.8103 22.6798C47.8081 22.927 47.8905 23.1675 48.0436 23.3614C48.1293 23.4456 48.2317 23.511 48.3441 23.5533C48.4565 23.5955 48.5765 23.6138 48.6964 23.6069C48.8686 23.6107 49.0397 23.5801 49.1999 23.5169Z" fill="#F7F7F7"/>
<path d="M51.735 22.4527V22.8298H50.7766V23.5772H51.8478V23.9564H50.3127V21.4122H51.7914V21.7934H50.7766V22.4507L51.735 22.4527Z" fill="#F7F7F7"/>
<path d="M34.6505 18.9078V13.6542C34.693 13.6542 34.7306 13.6492 34.7682 13.6492H38.5198L45.9379 13.6552C46.1644 13.6589 46.3848 13.5821 46.56 13.4384C46.9952 13.083 46.9557 12.5217 46.476 12.2257C46.2898 12.1191 46.077 12.0679 45.8627 12.0782C43.6868 12.0782 41.5029 12.0911 39.3229 12.0782C37.6138 12.0653 36.0589 11.5605 34.7158 10.4864C33.9651 9.88748 33.3419 9.18363 32.9295 8.30853C32.626 7.65892 32.46 6.9535 32.4419 6.23659C32.3961 5.24814 32.6318 4.26701 33.1214 3.40736C33.456 2.83355 33.8816 2.31799 34.3815 1.88088C35.5599 0.82161 37.0529 0.178289 38.6315 0.0494968C38.953 0.0188088 39.2774 0.00395974 39.6009 0.00296981C43.4121 0.000989936 47.224 0 51.0366 0H51.2117C51.2117 0.0989936 51.2117 0.197987 51.2117 0.296981C51.1587 1.54746 50.6714 2.74024 49.8339 3.66969C49.0426 4.55073 48.0625 5.08332 46.8795 5.2031C46.4839 5.2427 46.0882 5.22488 45.6926 5.22983C45.0121 5.23874 44.3326 5.25062 43.6521 5.25161C42.7402 5.25161 41.8283 5.25161 40.9173 5.24468C40.4228 5.24468 39.9282 5.24732 39.4337 5.2526C39.2958 5.25579 39.1604 5.2898 39.0373 5.35215C38.9143 5.41449 38.8067 5.5036 38.7225 5.61294C38.6204 5.7365 38.5659 5.89258 38.5688 6.05292C38.5717 6.21327 38.6318 6.36727 38.7384 6.48705C38.831 6.59627 38.947 6.68317 39.0779 6.74127C39.2087 6.79938 39.351 6.82719 39.494 6.82264C41.6562 6.82264 43.8183 6.82264 45.9804 6.82264C47.2316 6.82264 48.4314 7.06715 49.5411 7.65715C50.7676 8.31546 51.7794 9.19749 52.4213 10.4468C52.9174 11.427 53.0997 12.5365 52.9432 13.6241C52.7867 14.7117 52.2992 15.7246 51.547 16.525C50.4159 17.7629 48.8893 18.568 47.2296 18.8018C46.7647 18.8718 46.2953 18.9072 45.8251 18.9078C42.1497 18.9078 38.4736 18.9078 34.7969 18.9078H34.6505Z" fill="#F7F7F7"/>
<path d="M18.3435 0.00537109V5.24708H12.8868V18.9082C12.7879 18.9082 12.6889 18.9082 12.6029 18.9082C11.715 18.8798 10.8393 18.6924 10.0174 18.3548C8.94131 17.9054 8.03036 17.2441 7.38944 16.2512C6.94541 15.58 6.72425 14.7856 6.75741 13.9813C6.76335 13.8288 6.75741 13.6754 6.75741 13.522V5.40448C6.75741 5.25302 6.75741 5.25302 6.60905 5.25302H0.154297C0 5.24708 0 5.24708 0 5.08968V0.148912C0 0.00537109 0 0.00537109 0.146384 0.00537109H18.3455H18.3435Z" fill="#F7F7F7"/>
<path d="M33.4074 18.9077H33.2877C30.6627 18.9077 28.0366 18.9414 25.4126 18.8958C23.6787 18.8661 22.119 18.293 20.8628 17.0447C20.1958 16.4074 19.7618 15.5645 19.6304 14.651C19.6026 14.4426 19.589 14.2326 19.5899 14.0224C19.5899 11.1311 19.5899 8.23985 19.5899 5.34857C19.5899 3.61949 19.5899 1.8904 19.5899 0.161312V0.0256908C19.8035 0.0256908 20.0093 0.0118318 20.213 0.0256908C20.983 0.0836286 21.7388 0.263736 22.4523 0.559266C23.479 0.987908 24.3583 1.61256 24.9992 2.53914C25.4757 3.21797 25.7282 4.02896 25.7212 4.85856C25.7212 7.73267 25.7212 10.6065 25.7212 13.4799C25.7212 13.5116 25.7212 13.5443 25.7212 13.5789C25.7163 13.6383 25.74 13.665 25.8013 13.6601C25.833 13.6601 25.8656 13.6601 25.9002 13.6601H33.4103L33.4074 18.9077Z" fill="#F7F7F7"/>
</g>
<defs>
<clipPath id="clip0">
<rect width="53" height="24" fill="white"/>
</clipPath>
</defs>
</svg>
