<svg width="77" height="23" viewBox="0 0 77 23" fill="none" xmlns="http://www.w3.org/2000/svg">
<g clip-path="url(#clip0)">
<path d="M31.0115 10.9625H30.4553V16.1221C30.4542 16.194 30.4678 16.2653 30.4953 16.3317C30.5229 16.3981 30.5638 16.4581 30.6154 16.5081C30.6668 16.5603 30.7283 16.6014 30.7963 16.6289C30.8642 16.6565 30.937 16.6698 31.0103 16.668H31.1138L31.1222 16.7546H29.2251V16.668H29.3383C29.4097 16.6694 29.4807 16.6563 29.5469 16.6294C29.6131 16.6025 29.6732 16.5625 29.7235 16.5117C29.7754 16.4627 29.8172 16.4039 29.8463 16.3387C29.8755 16.2734 29.8914 16.2031 29.8932 16.1317V11.322C29.8877 11.1783 29.8269 11.0422 29.7235 10.9421C29.6737 10.8903 29.6139 10.8494 29.5476 10.8219C29.4813 10.7944 29.41 10.7809 29.3383 10.7821H29.2251V10.6956H31.5652C32.0909 10.6956 32.5042 10.8415 32.8051 11.1332C32.9551 11.2804 33.0727 11.4574 33.1502 11.6526C33.2277 11.8479 33.2635 12.0572 33.2553 12.2671C33.2639 12.7067 33.1116 13.1343 32.8268 13.4696C32.7026 13.6277 32.5439 13.7555 32.3628 13.8432C32.1818 13.9309 31.9831 13.9762 31.7819 13.9758C31.8977 14.0377 32.0019 14.119 32.0901 14.2163C32.2051 14.3304 32.3109 14.4535 32.4066 14.5842C32.9034 15.2936 33.2268 15.7309 33.3769 15.8961C33.5273 16.0596 33.6345 16.1726 33.6983 16.2327C33.7639 16.2963 33.8335 16.3557 33.9065 16.4107C33.9761 16.4652 34.0516 16.5116 34.1316 16.549C34.2991 16.6293 34.4827 16.6704 34.6685 16.6692V16.7558H34.187C33.9492 16.758 33.7133 16.7122 33.4936 16.6211C33.3193 16.5553 33.1568 16.4619 33.0121 16.3446C32.9145 16.2579 32.8221 16.1655 32.7353 16.068C32.655 15.9782 32.4399 15.6792 32.0901 15.171C31.7402 14.6628 31.5347 14.373 31.4737 14.3016C31.4159 14.2295 31.3534 14.1585 31.292 14.0888C31.2249 14.0042 31.1409 13.9344 31.0454 13.8839C30.9498 13.8334 30.8448 13.8032 30.737 13.7954V13.7076C30.7978 13.7135 30.8589 13.7164 30.92 13.7161C30.9946 13.7161 31.0873 13.7161 31.1969 13.7076C31.9135 13.6892 32.3641 13.389 32.5487 12.807C32.5818 12.7019 32.5992 12.5925 32.6005 12.4824V12.2876C32.6064 11.9507 32.4996 11.6215 32.2971 11.3521C32.2045 11.236 32.0875 11.1417 31.9544 11.0759C31.8212 11.01 31.6752 10.9742 31.5267 10.9709C31.3919 10.9661 31.2185 10.9625 31.0115 10.9625Z" fill="#F7F7F7"/>
<path d="M36.1251 16.668C36.1971 16.6691 36.2685 16.6555 36.3349 16.628C36.4014 16.6005 36.4615 16.5597 36.5115 16.5081C36.616 16.4063 36.6765 16.2678 36.6801 16.1221V11.2739C36.6646 11.1389 36.5999 11.0144 36.4983 10.924C36.3971 10.8299 36.2634 10.7786 36.1251 10.7809H36.0216L36.0132 10.6943H38.5519C38.748 10.6931 38.9437 10.6758 39.1369 10.6426C39.2889 10.6223 39.4384 10.5873 39.5835 10.538V11.6298H39.4969V11.4735C39.4968 11.3431 39.447 11.2176 39.3575 11.1227C39.268 11.0277 39.1457 10.9704 39.0154 10.9625H37.2434V13.6379H38.7084C38.8197 13.6338 38.9253 13.5874 39.0033 13.508C39.043 13.4684 39.0742 13.421 39.0949 13.3689C39.1156 13.3168 39.1254 13.261 39.1237 13.205V13.0848H39.2104V14.4531H39.1225V14.3233C39.1232 14.2686 39.1129 14.2144 39.0922 14.1638C39.0715 14.1132 39.0409 14.0672 39.0021 14.0287C38.9263 13.9489 38.8221 13.9022 38.712 13.8988H37.2434V16.4876H38.4833C38.9102 16.4876 39.2365 16.3922 39.462 16.2015C39.6883 16.0115 39.7557 15.7289 39.905 15.3598H39.9916L39.61 16.7618H36.0132V16.6752L36.1251 16.668Z" fill="#F7F7F7"/>
<path d="M49.0402 16.668H49.1787V16.7546H47.2984V16.6764H47.4284C47.4766 16.6764 47.5243 16.6656 47.5678 16.6448C47.6113 16.624 47.6496 16.5937 47.68 16.5562C47.7122 16.5226 47.7366 16.4824 47.7516 16.4383C47.7665 16.3943 47.7717 16.3475 47.7666 16.3013L47.3766 11.9461L45.5565 15.9923C45.418 16.2719 45.3188 16.5693 45.2616 16.876H45.1749L42.9564 12.0663L42.5832 16.3001C42.58 16.3462 42.5859 16.3925 42.6008 16.4363C42.6157 16.4801 42.6392 16.5205 42.6699 16.5551C42.7007 16.5897 42.738 16.6178 42.7797 16.6379C42.8215 16.6579 42.8668 16.6693 42.913 16.6716H43.0515V16.7498H41.3662V16.6632H41.5046C41.6581 16.666 41.8075 16.614 41.926 16.5165C42.0459 16.416 42.1218 16.2728 42.1378 16.1173L42.7879 10.5681H42.8745L45.2929 15.789L47.6583 10.5681H47.7365L48.4046 16.1173C48.4134 16.2213 48.4502 16.321 48.5113 16.4058C48.5724 16.4905 48.6553 16.557 48.7513 16.5983C48.8412 16.6426 48.9399 16.6665 49.0402 16.668Z" fill="#F7F7F7"/>
<path d="M51.5213 11.4435C52.0959 10.8631 52.8454 10.5729 53.7699 10.5729C54.6944 10.5729 55.4456 10.8631 56.0234 11.4435C56.6012 12.0231 56.8901 12.7846 56.8901 13.7281C56.8901 14.6716 56.6012 15.4331 56.0234 16.0127C55.4456 16.5931 54.6944 16.8833 53.7699 16.8833C52.8454 16.8833 52.0959 16.5907 51.5213 16.0055C50.9459 15.4259 50.6582 14.6644 50.6582 13.7209C50.6582 12.7774 50.9459 12.0183 51.5213 11.4435ZM52.0028 15.8191C52.2258 16.0699 52.4994 16.2706 52.8056 16.4081C53.1119 16.5455 53.4438 16.6166 53.7796 16.6166C54.1153 16.6166 54.4473 16.5455 54.7535 16.4081C55.0598 16.2706 55.3334 16.0699 55.5563 15.8191C56.0041 15.2893 56.228 14.591 56.228 13.7245C56.2383 13.2035 56.1348 12.6864 55.9247 12.2094C55.7451 11.7916 55.4443 11.4371 55.0611 11.1917C54.6779 10.9463 54.2298 10.8213 53.7748 10.8327C53.438 10.8213 53.1032 10.8873 52.796 11.0255C52.4888 11.1637 52.2175 11.3705 52.0028 11.6299C51.555 12.1597 51.3311 12.8579 51.3311 13.7245C51.3311 14.591 51.5514 15.2893 51.992 15.8191H52.0028Z" fill="#F7F7F7"/>
<path d="M64.7458 10.781C64.6766 10.7799 64.6079 10.7928 64.5438 10.8189C64.4797 10.8449 64.4215 10.8835 64.3726 10.9325C64.3221 10.9803 64.2815 11.0376 64.2532 11.1012C64.2249 11.1647 64.2094 11.2333 64.2077 11.3028V15.7698C64.2066 16.0883 64.2271 16.4064 64.2691 16.7221L64.286 16.8784H64.2077L59.4841 11.8367V16.1486C59.4829 16.241 59.5074 16.3319 59.5548 16.4113C59.6021 16.4907 59.6706 16.5554 59.7526 16.5983C59.8315 16.6442 59.9213 16.6683 60.0126 16.668H60.1775V16.7546H58.3923V16.668H58.5573C58.6263 16.669 58.6948 16.6561 58.7587 16.6301C58.8226 16.604 58.8806 16.5654 58.9292 16.5165C58.9802 16.4682 59.0205 16.4098 59.0475 16.3449C59.0744 16.2801 59.0874 16.2103 59.0857 16.1402V11.6467C59.0879 11.331 59.0678 11.0156 59.0255 10.7028L59.0075 10.5645H59.0941L63.8177 15.6027V11.3088C63.8166 11.2384 63.8015 11.1689 63.7734 11.1043C63.7453 11.0398 63.7047 10.9813 63.654 10.9325C63.605 10.8836 63.5468 10.8451 63.4827 10.8191C63.4186 10.793 63.35 10.7801 63.2808 10.781H63.1159V10.6944H64.9011V10.781H64.7458Z" fill="#F7F7F7"/>
<path d="M71.2629 11.4651C71.2625 11.3317 71.2113 11.2033 71.1197 11.1061C71.028 11.009 70.9027 10.9503 70.7694 10.9421H69.1226V16.1282C69.1273 16.2718 69.1876 16.408 69.2909 16.5081C69.3943 16.6081 69.5324 16.6642 69.6763 16.6644H69.7895V16.751H67.8923V16.6644H68.0055C68.1479 16.6637 68.2847 16.6087 68.3879 16.5106C68.491 16.4124 68.5528 16.2786 68.5604 16.1366V10.9421H66.9125C66.8461 10.9438 66.7808 10.9588 66.7204 10.9863C66.66 11.0138 66.6058 11.0531 66.561 11.102C66.4674 11.1986 66.4159 11.3283 66.4177 11.4627V11.6094L66.3311 11.6179V10.5297C66.4778 10.5791 66.629 10.6141 66.7825 10.6343C66.977 10.6668 67.1738 10.684 67.3711 10.686H70.2999C70.5371 10.6904 70.7741 10.6687 71.0065 10.621C71.1222 10.5977 71.2364 10.5672 71.3484 10.5297V11.6203L71.2617 11.6118L71.2629 11.4651Z" fill="#F7F7F7"/>
<path d="M73.0133 16.668C73.0852 16.6691 73.1567 16.6555 73.2231 16.628C73.2896 16.6005 73.3497 16.5597 73.3997 16.5081C73.5037 16.406 73.5641 16.2677 73.5683 16.1221V11.2739C73.5527 11.1389 73.488 11.0144 73.3865 10.924C73.2853 10.8299 73.1516 10.7786 73.0133 10.7809H72.9098L72.9014 10.6943H75.4401C75.6362 10.6931 75.8319 10.6758 76.0251 10.6426C76.177 10.6222 76.3266 10.5871 76.4717 10.538V11.6298H76.3851V11.4735C76.385 11.3431 76.3352 11.2176 76.2457 11.1227C76.1562 11.0277 76.0339 10.9704 75.9036 10.9625H74.1316V13.6379H75.5966C75.7079 13.6336 75.8133 13.5872 75.8915 13.508C75.9312 13.4684 75.9624 13.421 75.9831 13.3689C76.0038 13.3168 76.0136 13.261 76.0119 13.205V13.0848H76.0974V14.4531H76.0119V14.3233C76.0126 14.2686 76.0023 14.2144 75.9816 14.1638C75.9609 14.1132 75.9303 14.0672 75.8915 14.0287C75.8156 13.9491 75.7114 13.9025 75.6014 13.8988H74.1316V16.4876H75.3715C75.7984 16.4876 76.1246 16.3922 76.3502 16.2014C76.6034 15.9706 76.7968 15.6818 76.9135 15.3598H77.0002L76.4982 16.7618H72.9014V16.6752L73.0133 16.668Z" fill="#F7F7F7"/>
<path d="M19.0448 9.54166e-06C19.407 8.71059e-05 19.7627 0.0953727 20.0763 0.276291C20.3899 0.45721 20.6503 0.717388 20.8313 1.03068C21.0124 1.34397 21.1077 1.69934 21.1077 2.06108C21.1076 2.42281 21.0123 2.77817 20.8312 3.09145L17.0996 9.54246C17.0869 9.56444 17.0687 9.58269 17.0467 9.59539C17.0247 9.60808 16.9998 9.61477 16.9744 9.61477C16.949 9.61477 16.924 9.60808 16.9021 9.59539C16.8801 9.58269 16.8618 9.56444 16.8492 9.54246L13.1211 3.09265C12.9395 2.7789 12.8439 2.42286 12.844 2.06044C12.8441 1.69802 12.9399 1.34202 13.1216 1.02837C13.3034 0.714716 13.5648 0.454492 13.8794 0.273944C14.194 0.0933949 14.5507 -0.00109313 14.9135 9.54166e-06H9.53992C9.51497 0.00081731 9.49065 0.00807206 9.46934 0.0210661C9.44802 0.0340602 9.43045 0.0523498 9.41832 0.074151C9.4062 0.0959521 9.39994 0.12052 9.40015 0.145459C9.40037 0.170398 9.40705 0.194855 9.41954 0.216446L16.8528 13.098C16.8652 13.1203 16.8834 13.1389 16.9054 13.1518C16.9274 13.1648 16.9524 13.1716 16.978 13.1716C17.0035 13.1716 17.0286 13.1648 17.0506 13.1518C17.0726 13.1389 17.0908 13.1203 17.1032 13.098L24.5473 0.218851C24.5598 0.19726 24.5664 0.172803 24.5666 0.147864C24.5669 0.122925 24.5606 0.098357 24.5485 0.0765558C24.5363 0.0547547 24.5188 0.036465 24.4975 0.023471C24.4762 0.0104769 24.4518 0.00322216 24.4269 0.00241439L19.0448 9.54166e-06Z" fill="#F7F7F7"/>
<path d="M7.27316 1.05035e-07H6.50998C6.43412 0.000669808 6.35976 0.0212208 6.29434 0.0595983C6.22893 0.0979758 6.17474 0.152835 6.13721 0.218691C6.09967 0.284546 6.0801 0.35909 6.08046 0.43487C6.08081 0.510649 6.10107 0.585009 6.13922 0.650512L13.3437 13.1269L16.0077 17.7406C16.0328 17.7845 16.046 17.8343 16.046 17.8849C16.046 17.9355 16.0328 17.9852 16.0077 18.0292L15.4539 18.9839C15.4286 19.0279 15.3921 19.0644 15.3482 19.0898C15.3042 19.1151 15.2543 19.1285 15.2036 19.1285C15.1528 19.1285 15.1029 19.1151 15.059 19.0898C15.015 19.0644 14.9785 19.0279 14.9532 18.9839L4.07717 0.146696C4.0522 0.102269 4.01585 0.0652707 3.97186 0.0394934C3.92786 0.0137161 3.87779 8.61544e-05 3.82679 1.05035e-07H0.144472C0.125298 -2.55524e-06 0.106315 0.00380782 0.0886307 0.011209C0.0709462 0.0186103 0.0549138 0.0294542 0.0414683 0.0431087C0.0280228 0.0567631 0.0174332 0.0729547 0.010317 0.0907394C0.00320085 0.108524 -0.000299501 0.127546 2.00657e-05 0.146696C-7.68357e-07 0.184145 0.0145555 0.220136 0.0406127 0.247062C0.0666698 0.273987 0.102186 0.289739 0.139657 0.290987C0.542918 0.309024 1.73705 0.48097 2.7109 1.87218L2.72534 1.89623L14.7558 22.7439C14.8004 22.8218 14.8649 22.8866 14.9427 22.9317C15.0205 22.9768 15.1088 23.0005 15.1988 23.0005C15.2887 23.0005 15.377 22.9768 15.4548 22.9317C15.5326 22.8866 15.5971 22.8218 15.6417 22.7439L18.1046 18.4741C18.1176 18.4524 18.1244 18.4277 18.1244 18.4025C18.1244 18.3773 18.1176 18.3526 18.1046 18.331L7.64874 0.218842C7.61118 0.152383 7.5566 0.0970935 7.49061 0.0586389C7.42461 0.0201842 7.34957 -5.32008e-05 7.27316 1.05035e-07Z" fill="#F7F7F7"/>
<path d="M26.5035 0C26.4789 0.000809863 26.455 0.00785995 26.4339 0.0204839C26.4129 0.0331078 26.3954 0.0508886 26.3831 0.0721455L25.3382 1.8818L17.8966 14.755C17.8839 14.7767 17.8772 14.8014 17.8772 14.8265C17.8772 14.8517 17.8839 14.8763 17.8966 14.8981L18.9126 16.6596C18.9252 16.6816 18.9435 16.6998 18.9654 16.7125C18.9874 16.7252 19.0124 16.7319 19.0377 16.7319C19.0631 16.7319 19.0881 16.7252 19.1101 16.7125C19.132 16.6998 19.1503 16.6816 19.1629 16.6596L27.7686 1.78079C28.9483 0.16834 30.4169 0.294594 30.4169 0.294594V0H26.5035Z" fill="#F7F7F7"/>
</g>
<defs>
<clipPath id="clip0">
<rect width="77" height="23" fill="white"/>
</clipPath>
</defs>
</svg>
