<?xml version="1.0" encoding="UTF-8" standalone="no"?>
<!DOCTYPE svg PUBLIC "-//W3C//DTD SVG 1.1//EN" "http://www.w3.org/Graphics/SVG/1.1/DTD/svg11.dtd">
<svg version="1.1" xmlns="http://www.w3.org/2000/svg" xmlns:xlink="http://www.w3.org/1999/xlink" preserveAspectRatio="xMidYMid meet" viewBox="0 0 640 640" width="640" height="640"><defs><path d="M52.34 0C24.94 0 2.65 22.29 2.65 49.69C2.65 103.75 2.65 536.25 2.65 590.31C2.65 617.71 24.94 640 52.34 640C65.06 640 166.82 640 179.55 640C185.04 640 189.48 635.55 189.48 630.06C189.48 624.58 185.03 620.13 179.55 620.13C166.82 620.13 65.06 620.13 52.34 620.13C35.9 620.13 22.53 606.75 22.53 590.31C22.53 558.29 22.53 398.18 22.53 109.98C282.1 109.98 426.31 109.98 455.16 109.98C460.65 109.98 465.09 105.53 465.09 100.04C465.09 94.55 460.65 90.1 455.16 90.1C426.31 90.1 282.1 90.1 22.53 90.1C22.53 65.86 22.53 52.38 22.53 49.69C22.53 33.25 35.9 19.88 52.34 19.88C105.87 19.88 534.13 19.88 587.66 19.88C604.1 19.88 617.48 33.25 617.48 49.69C617.47 52.38 617.47 65.86 617.48 90.1C551.89 90.1 515.45 90.1 508.16 90.1C502.67 90.1 498.22 94.55 498.22 100.04C498.22 105.53 502.67 109.98 508.16 109.98C515.45 109.98 551.89 109.98 617.48 109.98C617.47 398.18 617.47 558.29 617.48 590.31C617.48 606.75 604.1 620.12 587.66 620.12C552.15 620.12 268.06 620.12 232.55 620.12C227.06 620.12 222.61 624.57 222.61 630.06C222.61 635.55 227.06 640 232.55 640C268.06 640 552.15 640 587.66 640C615.06 640 637.35 617.71 637.35 590.31C637.35 536.25 637.35 103.75 637.35 49.69C637.35 22.29 615.06 0 587.66 0C480.6 0 105.87 0 52.34 0Z" id="aWz2L9fSq"></path><path d="M94.75 26.62L96.06 26.78L97.35 26.99L98.62 27.25L99.86 27.58L101.09 27.96L102.29 28.39L103.46 28.87L104.61 29.4L105.73 29.98L106.82 30.61L107.88 31.29L108.91 32.01L109.9 32.77L110.86 33.57L111.78 34.42L112.66 35.3L113.51 36.22L114.31 37.18L115.08 38.18L115.8 39.2L116.47 40.26L117.1 41.35L117.68 42.47L118.21 43.62L118.69 44.79L119.13 46L119.5 47.22L119.83 48.47L120.09 49.73L120.3 51.02L120.46 52.33L120.55 53.65L120.58 54.99L120.55 56.33L120.46 57.65L120.3 58.96L120.09 60.25L119.83 61.51L119.5 62.76L119.13 63.98L118.69 65.19L118.21 66.36L117.68 67.51L117.1 68.63L116.47 69.72L115.8 70.78L115.08 71.8L114.31 72.8L113.51 73.76L112.66 74.68L111.78 75.56L110.86 76.41L109.9 77.21L108.91 77.97L107.88 78.69L106.82 79.37L105.73 80L104.61 80.58L103.46 81.11L102.29 81.59L101.09 82.02L99.86 82.4L98.62 82.73L97.35 82.99L96.06 83.2L94.75 83.36L93.43 83.45L92.09 83.48L90.75 83.45L89.43 83.36L88.12 83.2L86.83 82.99L85.57 82.73L84.32 82.4L83.1 82.02L81.9 81.59L80.72 81.11L79.57 80.58L78.45 80L77.36 79.37L76.3 78.69L75.28 77.97L74.28 77.21L73.33 76.41L72.4 75.56L71.52 74.68L70.67 73.76L69.87 72.8L69.11 71.8L68.39 70.78L67.71 69.72L67.08 68.63L66.5 67.51L65.97 66.36L65.49 65.19L65.06 63.98L64.68 62.76L64.36 61.51L64.09 60.25L63.88 58.96L63.73 57.65L63.63 56.33L63.6 54.99L63.63 53.65L63.73 52.33L63.88 51.02L64.09 49.73L64.36 48.47L64.68 47.22L65.06 46L65.49 44.79L65.97 43.62L66.5 42.47L67.08 41.35L67.71 40.26L68.39 39.2L69.11 38.18L69.87 37.18L70.67 36.22L71.52 35.3L72.4 34.42L73.33 33.57L74.28 32.77L75.28 32.01L76.3 31.29L77.36 30.61L78.45 29.98L79.57 29.4L80.72 28.87L81.9 28.39L83.1 27.96L84.32 27.58L85.57 27.25L86.83 26.99L88.12 26.78L89.43 26.62L90.75 26.53L92.09 26.5L93.43 26.53L94.75 26.62ZM89.37 46.82L88.14 47.34L87.01 48.04L86 48.9L85.14 49.91L84.44 51.04L83.92 52.27L83.59 53.59L83.48 54.99L83.59 56.39L83.92 57.71L84.44 58.94L85.14 60.07L86 61.08L87.01 61.94L88.14 62.64L89.37 63.16L90.7 63.49L92.09 63.6L93.49 63.49L94.81 63.16L96.05 62.64L97.17 61.94L98.18 61.08L99.04 60.07L99.74 58.94L100.26 57.71L100.59 56.39L100.7 54.99L100.59 53.59L100.26 52.27L99.74 51.04L99.04 49.91L98.18 48.9L97.17 48.04L96.05 47.34L94.81 46.82L93.49 46.49L92.09 46.38L90.7 46.49L89.37 46.82Z" id="d12WXVaXbL"></path><path d="M176.91 26.62L178.21 26.78L179.5 26.99L180.77 27.25L182.01 27.58L183.24 27.96L184.44 28.39L185.61 28.87L186.76 29.4L187.88 29.98L188.97 30.61L190.03 31.29L191.06 32.01L192.05 32.77L193.01 33.57L193.93 34.42L194.82 35.3L195.66 36.22L196.47 37.18L197.23 38.18L197.95 39.2L198.62 40.26L199.25 41.35L199.83 42.47L200.36 43.62L200.85 44.79L201.28 46L201.66 47.22L201.98 48.47L202.25 49.73L202.46 51.02L202.61 52.33L202.7 53.65L202.73 54.99L202.7 56.33L202.61 57.65L202.46 58.96L202.25 60.25L201.98 61.51L201.66 62.76L201.28 63.98L200.85 65.19L200.36 66.36L199.83 67.51L199.25 68.63L198.62 69.72L197.95 70.78L197.23 71.8L196.47 72.8L195.66 73.76L194.82 74.68L193.93 75.56L193.01 76.41L192.05 77.21L191.06 77.97L190.03 78.69L188.97 79.37L187.88 80L186.76 80.58L185.61 81.11L184.44 81.59L183.24 82.02L182.01 82.4L180.77 82.73L179.5 82.99L178.21 83.2L176.91 83.36L175.58 83.45L174.24 83.48L172.9 83.45L171.58 83.36L170.28 83.2L168.99 82.99L167.72 82.73L166.47 82.4L165.25 82.02L164.05 81.59L162.87 81.11L161.73 80.58L160.61 80L159.52 79.37L158.46 78.69L157.43 77.97L156.44 77.21L155.48 76.41L154.56 75.56L153.67 74.68L152.83 73.76L152.02 72.8L151.26 71.8L150.54 70.78L149.86 69.72L149.24 68.63L148.66 67.51L148.12 66.36L147.64 65.19L147.21 63.98L146.83 62.76L146.51 61.51L146.24 60.25L146.03 58.96L145.88 57.65L145.79 56.33L145.76 54.99L145.79 53.65L145.88 52.33L146.03 51.02L146.24 49.73L146.51 48.47L146.83 47.22L147.21 46L147.64 44.79L148.12 43.62L148.66 42.47L149.24 41.35L149.86 40.26L150.54 39.2L151.26 38.18L152.02 37.18L152.83 36.22L153.67 35.3L154.56 34.42L155.48 33.57L156.44 32.77L157.43 32.01L158.46 31.29L159.52 30.61L160.61 29.98L161.73 29.4L162.87 28.87L164.05 28.39L165.25 27.96L166.47 27.58L167.72 27.25L168.99 26.99L170.28 26.78L171.58 26.62L172.9 26.53L174.24 26.5L175.58 26.53L176.91 26.62ZM171.52 46.82L170.29 47.34L169.16 48.04L168.16 48.9L167.3 49.91L166.59 51.04L166.07 52.27L165.74 53.59L165.63 54.99L165.74 56.39L166.07 57.71L166.59 58.94L167.3 60.07L168.16 61.08L169.16 61.94L170.29 62.64L171.52 63.16L172.85 63.49L174.24 63.6L175.64 63.49L176.96 63.16L178.2 62.64L179.33 61.94L180.33 61.08L181.19 60.07L181.89 58.94L182.42 57.71L182.74 56.39L182.86 54.99L182.74 53.59L182.42 52.27L181.89 51.04L181.19 49.91L180.33 48.9L179.33 48.04L178.2 47.34L176.96 46.82L175.64 46.49L174.24 46.38L172.85 46.49L171.52 46.82Z" id="a22EkFAjxV"></path><path d="M259.06 26.62L260.37 26.78L261.65 26.99L262.92 27.25L264.17 27.58L265.39 27.96L266.59 28.39L267.77 28.87L268.92 29.4L270.03 29.98L271.13 30.61L272.18 31.29L273.21 32.01L274.21 32.77L275.16 33.57L276.09 34.42L276.97 35.3L277.82 36.22L278.62 37.18L279.38 38.18L280.1 39.2L280.78 40.26L281.41 41.35L281.99 42.47L282.52 43.62L283 44.79L283.43 46L283.81 47.22L284.13 48.47L284.4 49.73L284.61 51.02L284.76 52.33L284.86 53.65L284.89 54.99L284.86 56.33L284.76 57.65L284.61 58.96L284.4 60.25L284.13 61.51L283.81 62.76L283.43 63.98L283 65.19L282.52 66.36L281.99 67.51L281.41 68.63L280.78 69.72L280.1 70.78L279.38 71.8L278.62 72.8L277.82 73.76L276.97 74.68L276.09 75.56L275.16 76.41L274.21 77.21L273.21 77.97L272.18 78.69L271.13 79.37L270.03 80L268.92 80.58L267.77 81.11L266.59 81.59L265.39 82.02L264.17 82.4L262.92 82.73L261.65 82.99L260.37 83.2L259.06 83.36L257.74 83.45L256.4 83.48L255.06 83.45L253.74 83.36L252.43 83.2L251.14 82.99L249.87 82.73L248.63 82.4L247.4 82.02L246.2 81.59L245.03 81.11L243.88 80.58L242.76 80L241.67 79.37L240.61 78.69L239.58 77.97L238.59 77.21L237.63 76.41L236.71 75.56L235.83 74.68L234.98 73.76L234.18 72.8L233.41 71.8L232.69 70.78L232.02 69.72L231.39 68.63L230.81 67.51L230.28 66.36L229.79 65.19L229.36 63.98L228.99 62.76L228.66 61.51L228.39 60.25L228.18 58.96L228.03 57.65L227.94 56.33L227.91 54.99L227.94 53.65L228.03 52.33L228.18 51.02L228.39 49.73L228.66 48.47L228.99 47.22L229.36 46L229.79 44.79L230.28 43.62L230.81 42.47L231.39 41.35L232.02 40.26L232.69 39.2L233.41 38.18L234.18 37.18L234.98 36.22L235.83 35.3L236.71 34.42L237.63 33.57L238.59 32.77L239.58 32.01L240.61 31.29L241.67 30.61L242.76 29.98L243.88 29.4L245.03 28.87L246.2 28.39L247.4 27.96L248.63 27.58L249.87 27.25L251.14 26.99L252.43 26.78L253.74 26.62L255.06 26.53L256.4 26.5L257.74 26.53L259.06 26.62ZM253.68 46.82L252.44 47.34L251.31 48.04L250.31 48.9L249.45 49.91L248.75 51.04L248.22 52.27L247.9 53.59L247.79 54.99L247.9 56.39L248.22 57.71L248.75 58.94L249.45 60.07L250.31 61.08L251.31 61.94L252.44 62.64L253.68 63.16L255 63.49L256.4 63.6L257.79 63.49L259.12 63.16L260.35 62.64L261.48 61.94L262.48 61.08L263.35 60.07L264.05 58.94L264.57 57.71L264.9 56.39L265.01 54.99L264.9 53.59L264.57 52.27L264.05 51.04L263.35 49.91L262.48 48.9L261.48 48.04L260.35 47.34L259.12 46.82L257.79 46.49L256.4 46.38L255 46.49L253.68 46.82Z" id="cbhj7iOPl"></path><path d="M359.75 58.3C354.26 58.3 349.81 62.75 349.81 68.24C349.81 73.73 354.26 78.18 359.75 78.18C373 78.18 479.01 78.18 492.26 78.18C497.75 78.18 502.19 73.73 502.19 68.24C502.19 62.75 497.75 58.3 492.26 58.3C465.76 58.3 373 58.3 359.75 58.3Z" id="b4gRoViUT8"></path><path d="M534.66 58.3C529.17 58.3 524.72 62.75 524.72 68.24C524.72 73.73 529.17 78.18 534.66 78.18C538.1 78.18 565.66 78.18 569.11 78.18C574.6 78.18 579.05 73.73 579.05 68.24C579.05 62.75 574.6 58.3 569.11 58.3C562.22 58.3 538.1 58.3 534.66 58.3Z" id="a4urRuLWiv"></path><path d="M101.77 327.69C105.65 323.81 105.65 317.52 101.77 313.64C97.89 309.75 91.6 309.75 87.71 313.64C83.21 318.14 47.17 354.18 42.66 358.69C38.78 362.57 38.78 368.86 42.66 372.74C47.04 377.11 82.02 412.09 86.39 416.47C88.33 418.41 90.87 419.38 93.42 419.38C95.96 419.38 98.5 418.41 100.44 416.47C104.33 412.59 104.33 406.29 100.44 402.41C98 399.97 85.76 387.73 63.74 365.71C86.56 342.9 99.23 330.22 101.77 327.69Z" id="duiqWEJgs"></path><path d="M552.29 313.64C548.41 309.76 542.11 309.76 538.23 313.64C534.35 317.52 534.35 323.81 538.23 327.69C540.77 330.23 553.44 342.9 576.26 365.72C554.24 387.74 542 399.97 539.56 402.42C535.68 406.3 535.68 412.59 539.56 416.47C541.5 418.41 544.04 419.38 546.58 419.38C549.13 419.38 551.67 418.41 553.61 416.47C557.98 412.1 592.96 377.12 597.34 372.74C601.22 368.86 601.22 362.57 597.34 358.69C588.33 349.68 556.79 318.14 552.29 313.64Z" id="a7zlMPALhT"></path><path d="M426.04 219.96L426.07 219.96L426.1 219.96L426.12 219.96L426.15 219.96L426.17 219.96L426.21 219.96L426.24 219.96L426.27 219.96L426.29 219.96L426.33 219.96L426.36 219.96L426.38 219.97L426.42 219.97L426.44 219.97L426.48 219.97L426.52 219.97L426.73 219.96L426.93 219.96L427.14 219.96L427.35 219.96L427.55 219.97L427.76 219.99L427.97 220.01L428.17 220.03L428.38 220.05L428.58 220.09L428.79 220.12L428.99 220.16L429.19 220.2L429.39 220.25L429.6 220.3L429.79 220.36L429.99 220.42L430.19 220.48L430.39 220.55L430.58 220.62L430.77 220.7L430.96 220.78L431.15 220.86L431.34 220.95L431.53 221.04L431.71 221.14L431.89 221.24L432.07 221.34L432.25 221.45L432.43 221.56L432.6 221.67L432.77 221.79L432.94 221.91L433.11 222.04L433.27 222.17L433.44 222.3L433.59 222.44L433.75 222.58L433.9 222.72L434.05 222.87L512.76 301.57L513.04 301.87L513.31 302.17L513.56 302.48L513.8 302.8L514.03 303.13L514.24 303.47L514.44 303.81L514.62 304.15L514.79 304.5L514.94 304.86L515.08 305.22L515.2 305.59L515.31 305.95L515.41 306.33L515.49 306.7L515.55 307.08L515.6 307.46L515.64 307.84L515.66 308.22L515.67 308.6L515.66 308.98L515.64 309.36L515.6 309.74L515.55 310.12L515.49 310.5L515.41 310.87L515.31 311.24L515.2 311.61L515.08 311.98L514.94 312.34L514.79 312.7L514.62 313.05L514.44 313.39L514.24 313.73L514.03 314.07L513.8 314.39L513.56 314.71L513.31 315.03L513.04 315.33L512.76 315.63L464.03 364.35L463.89 364.49L463.75 364.62L463.6 364.75L463.45 364.88L463.3 365.01L463.15 365.13L463 365.25L462.84 365.37L462.68 365.48L462.52 365.59L462.36 365.7L462.19 365.8L462.02 365.9L461.86 366L461.69 366.09L461.51 366.18L461.34 366.27L461.16 366.35L460.99 366.43L460.81 366.5L460.63 366.58L460.45 366.65L460.27 366.71L460.08 366.77L459.9 366.83L459.71 366.89L459.52 366.94L459.33 366.98L459.14 367.03L458.95 367.07L458.76 367.1L458.57 367.14L458.38 367.17L458.18 367.19L457.99 367.21L457.79 367.23L457.6 367.24L457.4 367.25L457.2 367.26L457.01 367.26L456.81 367.26L456.61 367.25L456.42 367.24L456.22 367.23L456.02 367.21L455.83 367.19L455.64 367.17L455.44 367.14L455.25 367.1L455.06 367.07L454.87 367.03L454.68 366.98L454.49 366.94L454.3 366.89L454.12 366.83L453.93 366.77L453.75 366.71L453.56 366.65L453.38 366.58L453.2 366.5L453.02 366.43L452.85 366.35L452.67 366.27L452.5 366.18L452.33 366.09L452.16 366L451.99 365.9L451.82 365.8L451.66 365.7L451.49 365.59L451.33 365.48L451.17 365.37L451.02 365.25L450.86 365.13L450.71 365.01L450.56 364.88L450.41 364.75L450.26 364.62L450.12 364.49L449.98 364.35L435.94 350.31L435.94 500.21L435.93 500.62L435.91 501.02L435.87 501.42L435.81 501.82L435.74 502.21L435.65 502.6L435.55 502.97L435.44 503.35L435.31 503.72L435.16 504.08L435 504.43L434.83 504.77L434.65 505.11L434.45 505.44L434.25 505.76L434.03 506.08L433.79 506.38L433.55 506.67L433.3 506.96L433.03 507.23L432.76 507.5L432.47 507.75L432.18 508L431.87 508.23L431.56 508.45L431.24 508.66L430.91 508.85L430.57 509.04L430.23 509.21L429.87 509.36L429.51 509.51L429.15 509.64L428.77 509.75L428.39 509.86L428.01 509.94L427.62 510.01L427.22 510.07L426.82 510.11L426.41 510.14L426.01 510.15L214 510.15L213.59 510.14L213.18 510.11L212.78 510.07L212.38 510.01L211.99 509.94L211.61 509.86L211.23 509.75L210.86 509.64L210.49 509.51L210.13 509.36L209.77 509.21L209.43 509.04L209.09 508.85L208.76 508.66L208.44 508.45L208.13 508.23L207.82 508L207.53 507.75L207.24 507.5L206.97 507.23L206.7 506.96L206.45 506.67L206.21 506.38L205.98 506.08L205.76 505.76L205.55 505.44L205.35 505.11L205.17 504.77L205 504.43L204.84 504.08L204.7 503.72L204.57 503.35L204.45 502.98L204.35 502.6L204.26 502.21L204.19 501.82L204.13 501.42L204.09 501.02L204.07 500.62L204.06 500.21L204.06 350.31L190.02 364.35L189.88 364.49L189.74 364.62L189.59 364.76L189.44 364.88L189.29 365.01L189.14 365.13L188.99 365.25L188.83 365.37L188.67 365.48L188.51 365.59L188.35 365.7L188.18 365.8L188.01 365.9L187.85 366L187.68 366.09L187.5 366.18L187.33 366.27L187.15 366.35L186.98 366.43L186.8 366.51L186.62 366.58L186.44 366.65L186.26 366.71L186.07 366.77L185.89 366.83L185.7 366.89L185.51 366.94L185.32 366.98L185.13 367.03L184.94 367.07L184.75 367.1L184.56 367.14L184.37 367.17L184.17 367.19L183.98 367.21L183.78 367.23L183.59 367.24L183.39 367.25L183.19 367.26L183 367.26L182.8 367.26L182.6 367.25L182.41 367.24L182.21 367.23L182.01 367.21L181.82 367.19L181.63 367.17L181.43 367.14L181.24 367.1L181.05 367.07L180.86 367.03L180.67 366.98L180.48 366.94L180.29 366.89L180.11 366.83L179.92 366.77L179.74 366.71L179.55 366.65L179.37 366.58L179.19 366.5L179.01 366.43L178.84 366.35L178.66 366.27L178.49 366.18L178.32 366.09L178.15 366L177.98 365.9L177.81 365.8L177.65 365.7L177.48 365.59L177.32 365.48L177.16 365.37L177.01 365.25L176.85 365.13L176.7 365.01L176.55 364.88L176.4 364.76L176.25 364.62L176.11 364.49L175.97 364.35L127.25 315.63L126.96 315.33L126.69 315.03L126.44 314.72L126.2 314.4L125.97 314.07L125.76 313.73L125.57 313.39L125.38 313.05L125.22 312.7L125.06 312.34L124.92 311.98L124.8 311.61L124.69 311.25L124.6 310.87L124.52 310.5L124.45 310.12L124.4 309.74L124.36 309.36L124.34 308.98L124.34 308.6L124.34 308.22L124.36 307.84L124.4 307.46L124.45 307.08L124.52 306.7L124.6 306.33L124.69 305.96L124.8 305.59L124.92 305.22L125.06 304.86L125.22 304.5L125.38 304.15L125.57 303.81L125.76 303.47L125.97 303.13L126.2 302.81L126.44 302.49L126.69 302.17L126.96 301.87L127.25 301.57L205.95 222.87L206.1 222.72L206.25 222.58L206.41 222.44L206.57 222.3L206.73 222.17L206.89 222.04L207.06 221.91L207.23 221.79L207.4 221.67L207.57 221.56L207.75 221.45L207.93 221.34L208.11 221.24L208.29 221.14L208.47 221.05L208.66 220.95L208.85 220.87L209.03 220.78L209.23 220.7L209.42 220.63L209.61 220.55L209.81 220.49L210 220.42L210.2 220.36L210.4 220.31L210.6 220.25L210.8 220.21L211 220.16L211.21 220.12L211.41 220.09L211.62 220.06L211.82 220.03L212.03 220.01L212.24 219.99L212.44 219.98L212.65 219.97L212.86 219.96L213.07 219.96L213.28 219.96L213.49 219.97L213.51 219.97L213.52 219.97L213.55 219.97L213.57 219.97L213.6 219.97L213.62 219.96L213.65 219.96L213.68 219.96L213.7 219.96L213.73 219.96L213.75 219.96L213.78 219.96L213.8 219.96L213.83 219.96L213.87 219.96L213.89 219.96L213.93 219.96L213.96 219.96L214 219.96L426.01 219.96L426.02 219.96L426.04 219.96ZM373.65 285.23L373.53 285.43L373.41 285.63L373.27 285.83L373.14 286.02L373 286.22L372.86 286.4L372.71 286.58L372.56 286.76L372.4 286.94L372.24 287.11L372.08 287.28L371.91 287.44L371.74 287.6L371.57 287.75L371.39 287.9L371.21 288.05L371.02 288.19L370.84 288.33L370.65 288.46L370.45 288.59L370.26 288.71L370.06 288.83L369.85 288.95L369.65 289.06L369.44 289.16L369.23 289.26L369.02 289.36L368.8 289.45L368.59 289.54L368.37 289.62L368.15 289.69L367.92 289.76L367.7 289.83L367.47 289.89L367.24 289.94L367.01 289.99L366.78 290.03L366.54 290.07L366.31 290.11L366.07 290.13L366.04 290.14L366.02 290.14L365.99 290.14L365.97 290.14L365.94 290.14L365.92 290.15L365.89 290.15L365.87 290.15L365.84 290.15L365.82 290.16L365.79 290.16L365.76 290.16L365.74 290.16L365.71 290.16L365.69 290.16L365.66 290.17L365.64 290.17L365.61 290.17L365.59 290.17L365.56 290.17L365.53 290.17L365.51 290.17L365.48 290.18L365.46 290.18L365.43 290.18L365.41 290.18L365.38 290.18L365.36 290.18L365.33 290.18L365.31 290.18L365.28 290.18L365.25 290.18L365.23 290.18L365.2 290.18L365.18 290.18L365.15 290.18L365.13 290.18L365.1 290.18L365.08 290.18L365.05 290.19L364.84 290.18L364.63 290.18L364.42 290.16L364.21 290.15L364 290.13L363.8 290.11L363.59 290.08L363.38 290.04L363.18 290.01L362.97 289.97L362.77 289.92L362.57 289.87L362.37 289.82L362.17 289.76L361.97 289.7L361.78 289.63L361.58 289.56L361.39 289.48L361.2 289.41L361.01 289.32L360.82 289.24L360.63 289.15L360.44 289.05L360.26 288.95L360.08 288.85L359.9 288.75L359.72 288.64L359.55 288.52L359.38 288.41L359.21 288.28L359.04 288.16L358.87 288.03L358.71 287.9L358.55 287.76L358.39 287.62L358.24 287.48L358.09 287.33L357.94 287.18L357.79 287.03L357.65 286.87L329.94 255.91L329.94 490.27L416.07 490.27L416.07 326.32L416.07 326.02L416.08 325.72L416.11 325.42L416.14 325.13L416.18 324.83L416.23 324.54L416.28 324.25L416.35 323.97L416.42 323.69L416.5 323.41L416.59 323.13L416.69 322.85L416.79 322.58L416.91 322.32L417.03 322.05L417.16 321.79L417.29 321.54L417.43 321.29L417.58 321.04L417.74 320.8L417.9 320.56L418.08 320.33L418.25 320.1L418.44 319.88L418.63 319.66L418.83 319.45L419.03 319.24L419.24 319.04L419.45 318.84L419.68 318.66L419.9 318.47L420.14 318.3L420.38 318.13L420.62 317.96L420.87 317.81L421.13 317.66L421.39 317.52L421.65 317.38L421.93 317.26L422.2 317.14L422.48 317.03L422.76 316.92L423.05 316.83L423.33 316.75L423.62 316.67L423.9 316.61L424.19 316.55L424.48 316.5L424.77 316.46L425.06 316.43L425.35 316.4L425.64 316.39L425.93 316.38L426.22 316.38L426.51 316.39L426.8 316.41L427.09 316.44L427.37 316.48L427.66 316.52L427.94 316.57L428.23 316.63L428.51 316.7L428.78 316.78L429.06 316.86L429.33 316.96L429.61 317.06L429.87 317.17L430.14 317.28L430.4 317.41L430.66 317.54L430.92 317.68L431.17 317.83L431.42 317.99L431.66 318.15L431.9 318.32L432.14 318.5L432.37 318.69L432.6 318.88L432.82 319.08L433.03 319.29L457.01 343.27L491.67 308.6L423.64 240.57L423.61 240.56L423.57 240.55L423.53 240.54L423.5 240.53L423.46 240.52L423.43 240.51L423.39 240.5L423.35 240.49L423.32 240.48L423.28 240.47L423.24 240.46L423.21 240.45L423.17 240.44L423.13 240.43L423.1 240.42L423.06 240.41L423.03 240.4L422.99 240.39L422.95 240.37L422.92 240.36L422.88 240.35L422.85 240.34L422.81 240.33L422.77 240.31L422.74 240.3L422.7 240.29L422.67 240.28L422.63 240.26L422.59 240.25L422.56 240.24L422.52 240.22L422.49 240.21L422.45 240.2L422.42 240.18L422.38 240.17L422.34 240.15L422.31 240.14L422.27 240.13L422.24 240.11L422.2 240.1L422.19 240.09L422.16 240.08L422.14 240.07L422.13 240.07L422.11 240.06L422.08 240.05L422.07 240.04L422.05 240.03L422.03 240.02L422 240.01L421.98 240L421.97 240L421.94 239.98L421.91 239.97L421.89 239.96L421.88 239.96L421.85 239.94L421.82 239.93L421.81 239.92L421.79 239.92L421.78 239.91L421.75 239.9L421.72 239.88L421.71 239.88L421.68 239.86L421.65 239.85L421.62 239.83L399.93 239.83L373.65 285.23ZM282.06 287.19L281.92 287.34L281.76 287.48L281.61 287.63L281.45 287.77L281.29 287.9L281.13 288.03L280.96 288.16L280.79 288.29L280.62 288.41L280.45 288.52L280.28 288.64L280.1 288.75L279.92 288.85L279.74 288.96L279.56 289.05L279.37 289.15L279.18 289.24L279 289.33L278.81 289.41L278.61 289.49L278.42 289.56L278.22 289.63L278.03 289.7L277.83 289.76L277.63 289.82L277.43 289.87L277.23 289.92L277.03 289.97L276.82 290.01L276.62 290.05L276.41 290.08L276.2 290.11L276 290.13L275.79 290.15L275.58 290.17L275.37 290.18L275.16 290.18L274.95 290.19L274.92 290.19L274.9 290.19L274.87 290.19L274.85 290.19L274.82 290.19L274.8 290.19L274.77 290.18L274.75 290.18L274.72 290.18L274.7 290.18L274.67 290.18L274.64 290.18L274.62 290.18L274.59 290.18L274.57 290.18L274.54 290.18L274.52 290.18L274.49 290.18L274.47 290.17L274.44 290.17L274.42 290.17L274.39 290.17L274.36 290.17L274.34 290.17L274.31 290.17L274.29 290.16L274.26 290.16L274.24 290.16L274.21 290.16L274.19 290.16L274.16 290.15L274.14 290.15L274.11 290.15L274.08 290.15L274.06 290.15L274.03 290.14L274.01 290.14L273.98 290.14L273.96 290.14L273.93 290.13L273.69 290.11L273.46 290.07L273.22 290.04L272.99 289.99L272.76 289.94L272.53 289.89L272.3 289.83L272.08 289.76L271.86 289.69L271.63 289.62L271.41 289.54L271.2 289.45L270.98 289.36L270.77 289.27L270.56 289.17L270.35 289.06L270.15 288.95L269.95 288.84L269.75 288.72L269.55 288.59L269.36 288.46L269.17 288.33L268.98 288.19L268.79 288.05L268.61 287.91L268.43 287.75L268.26 287.6L268.09 287.44L267.92 287.28L267.76 287.11L267.6 286.94L267.44 286.76L267.29 286.59L267.14 286.4L267 286.22L266.86 286.03L266.73 285.83L266.6 285.63L266.47 285.43L266.35 285.23L240.07 239.83L218.38 239.83L218.35 239.85L218.34 239.85L218.32 239.86L218.29 239.88L218.27 239.89L218.25 239.9L218.24 239.9L218.22 239.91L218.19 239.92L218.18 239.93L218.17 239.94L218.14 239.95L218.11 239.96L218.09 239.97L218.06 239.98L218.03 240L218.02 240L217.99 240.02L217.96 240.03L217.93 240.04L217.9 240.05L217.89 240.06L217.86 240.07L217.83 240.09L217.81 240.09L217.8 240.1L217.76 240.11L217.73 240.13L217.69 240.14L217.66 240.15L217.62 240.17L217.59 240.18L217.55 240.2L217.51 240.21L217.48 240.22L217.44 240.24L217.41 240.25L217.37 240.26L217.34 240.28L217.3 240.29L217.26 240.3L217.23 240.31L217.19 240.33L217.16 240.34L217.12 240.35L217.08 240.36L217.05 240.37L217.01 240.38L216.97 240.4L216.94 240.41L216.9 240.42L216.87 240.43L216.83 240.44L216.79 240.45L216.76 240.46L216.72 240.47L216.69 240.48L216.65 240.49L216.61 240.5L216.58 240.51L216.54 240.52L216.5 240.53L216.47 240.54L216.43 240.55L216.39 240.56L216.36 240.57L148.33 308.6L182.99 343.27L206.97 319.29L207.18 319.08L207.4 318.88L207.63 318.69L207.86 318.5L208.1 318.32L208.34 318.15L208.58 317.99L208.83 317.83L209.08 317.68L209.34 317.54L209.6 317.41L209.86 317.28L210.12 317.17L210.39 317.06L210.67 316.96L210.94 316.86L211.22 316.78L211.49 316.7L211.77 316.63L212.06 316.57L212.34 316.52L212.63 316.48L212.91 316.44L213.2 316.41L213.49 316.39L213.78 316.38L214.07 316.38L214.36 316.39L214.65 316.4L214.94 316.43L215.23 316.46L215.52 316.5L215.81 316.55L216.1 316.61L216.38 316.67L216.67 316.75L216.95 316.83L217.24 316.92L217.52 317.03L217.8 317.14L218.07 317.26L218.35 317.38L218.61 317.52L218.87 317.66L219.13 317.81L219.38 317.96L219.62 318.13L219.86 318.3L220.1 318.47L220.32 318.66L220.55 318.84L220.76 319.04L220.97 319.24L221.17 319.45L221.37 319.66L221.56 319.88L221.75 320.1L221.92 320.33L222.1 320.56L222.26 320.8L222.42 321.04L222.57 321.29L222.71 321.54L222.84 321.79L222.97 322.05L223.09 322.32L223.21 322.58L223.31 322.85L223.41 323.13L223.5 323.41L223.58 323.69L223.65 323.97L223.72 324.25L223.77 324.54L223.82 324.83L223.86 325.13L223.89 325.42L223.92 325.72L223.93 326.02L223.93 326.32L223.93 490.27L310.06 490.27L310.06 255.91L282.36 286.87L282.21 287.03L282.06 287.19ZM276.68 263.41L297.77 239.83L263.03 239.83L276.68 263.41ZM363.32 263.41L376.97 239.83L342.23 239.83L363.32 263.41Z" id="h2l4wMwBGd"></path><path d="M354.45 315.36C348.96 315.36 344.51 319.81 344.51 325.3C344.51 330.79 348.96 335.24 354.45 335.24C357.9 335.24 385.46 335.24 388.9 335.24C394.39 335.24 398.84 330.79 398.84 325.3C398.84 319.81 394.39 315.36 388.9 315.36C382.01 315.36 357.9 315.36 354.45 315.36Z" id="g3TloCnLcF"></path><path d="M251.1 315.36C245.61 315.36 241.16 319.81 241.16 325.3C241.16 330.79 245.61 335.24 251.1 335.24C254.54 335.24 282.1 335.24 285.55 335.24C291.04 335.24 295.49 330.79 295.49 325.3C295.49 319.81 291.04 315.36 285.55 315.36C278.66 315.36 254.54 315.36 251.1 315.36Z" id="a29AtK5rg2"></path></defs><g><g><g><use xlink:href="#aWz2L9fSq" opacity="1" fill="#ffffff" fill-opacity="0.99"></use><g><use xlink:href="#aWz2L9fSq" opacity="1" fill-opacity="0" stroke="#000000" stroke-width="1" stroke-opacity="0"></use></g></g><g><use xlink:href="#d12WXVaXbL" opacity="1" fill="#ffffff" fill-opacity="0.99"></use><g><use xlink:href="#d12WXVaXbL" opacity="1" fill-opacity="0" stroke="#000000" stroke-width="1" stroke-opacity="0"></use></g></g><g><use xlink:href="#a22EkFAjxV" opacity="1" fill="#ffffff" fill-opacity="0.99"></use><g><use xlink:href="#a22EkFAjxV" opacity="1" fill-opacity="0" stroke="#000000" stroke-width="1" stroke-opacity="0"></use></g></g><g><use xlink:href="#cbhj7iOPl" opacity="1" fill="#ffffff" fill-opacity="0.99"></use><g><use xlink:href="#cbhj7iOPl" opacity="1" fill-opacity="0" stroke="#000000" stroke-width="1" stroke-opacity="0"></use></g></g><g><use xlink:href="#b4gRoViUT8" opacity="1" fill="#ffffff" fill-opacity="0.99"></use><g><use xlink:href="#b4gRoViUT8" opacity="1" fill-opacity="0" stroke="#000000" stroke-width="1" stroke-opacity="0"></use></g></g><g><use xlink:href="#a4urRuLWiv" opacity="1" fill="#ffffff" fill-opacity="0.99"></use><g><use xlink:href="#a4urRuLWiv" opacity="1" fill-opacity="0" stroke="#000000" stroke-width="1" stroke-opacity="0"></use></g></g><g><use xlink:href="#duiqWEJgs" opacity="1" fill="#ffffff" fill-opacity="0.99"></use><g><use xlink:href="#duiqWEJgs" opacity="1" fill-opacity="0" stroke="#000000" stroke-width="1" stroke-opacity="0"></use></g></g><g><use xlink:href="#a7zlMPALhT" opacity="1" fill="#ffffff" fill-opacity="0.99"></use><g><use xlink:href="#a7zlMPALhT" opacity="1" fill-opacity="0" stroke="#000000" stroke-width="1" stroke-opacity="0"></use></g></g><g><use xlink:href="#h2l4wMwBGd" opacity="1" fill="#ffffff" fill-opacity="0.99"></use><g><use xlink:href="#h2l4wMwBGd" opacity="1" fill-opacity="0" stroke="#000000" stroke-width="1" stroke-opacity="0"></use></g></g><g><use xlink:href="#g3TloCnLcF" opacity="1" fill="#ffffff" fill-opacity="0.99"></use><g><use xlink:href="#g3TloCnLcF" opacity="1" fill-opacity="0" stroke="#000000" stroke-width="1" stroke-opacity="0"></use></g></g><g><use xlink:href="#a29AtK5rg2" opacity="1" fill="#ffffff" fill-opacity="0.99"></use><g><use xlink:href="#a29AtK5rg2" opacity="1" fill-opacity="0" stroke="#000000" stroke-width="1" stroke-opacity="0"></use></g></g></g></g></svg>