<?xml version="1.0" encoding="iso-8859-1"?>
<!-- Generator: Adobe Illustrator 19.0.0, SVG Export Plug-In . SVG Version: 6.00 Build 0)  -->
<svg version="1.1" id="Capa_1" xmlns="http://www.w3.org/2000/svg" xmlns:xlink="http://www.w3.org/1999/xlink" x="0px" y="0px"
	 viewBox="0 0 496 496" style="enable-background:new 0 0 496 496;" xml:space="preserve">
<g>
	<g>
		<g>
			<path d="M416,296H192c-22.056,0-40,17.944-40,40v96c0,26.472-21.528,48-48,48s-48-21.528-48-48V40c0-13.232,10.768-24,24-24h256
				c13.232,0,24,10.768,24,24v240h16V40c0-22.056-17.944-40-40-40H80C57.944,0,40,17.944,40,40v392c0,35.288,28.712,64,64,64
				s64-28.712,64-64v-48h272v48c0,26.472-21.528,48-48,48h-40.72c-3.824-22.664-23.536-40-47.28-40
				c-23.744,0-43.448,17.336-47.28,40H168v16h224c35.288,0,64-28.712,64-64v-96C456,313.944,438.056,296,416,296z M273.136,480
				c3.576-13.768,15.992-24,30.864-24s27.288,10.232,30.864,24H273.136z M440,368H168v-32c0-13.232,10.768-24,24-24h224
				c13.232,0,24,10.768,24,24V368z"/>
			<polygon points="344,280 344,64 72,64 72,448 88,448 88,80 328,80 328,280 			"/>
			<rect x="160" y="32" width="72" height="16"/>
			<rect x="248" y="32" width="16" height="16"/>
			<path d="M152,96h-48v48h48V96z M136,128h-16v-16h16V128z"/>
			<path d="M232,96h-48v48h48V96z M216,128h-16v-16h16V128z"/>
			<path d="M312,96h-48v48h48V96z M296,128h-16v-16h16V128z"/>
			<path d="M152,160h-48v48h48V160z M136,192h-16v-16h16V192z"/>
			<path d="M232,160h-48v48h48V160z M216,192h-16v-16h16V192z"/>
			<path d="M312,160h-48v48h48V160z M296,192h-16v-16h16V192z"/>
			<path d="M104,272h48v-48h-48V272z M120,240h16v16h-16V240z"/>
			<path d="M184,272h48v-48h-48V272z M200,240h16v16h-16V240z"/>
			<path d="M264,272h48v-48h-48V272z M280,240h16v16h-16V240z"/>
		</g>
	</g>
</g>
<g>
</g>
<g>
</g>
<g>
</g>
<g>
</g>
<g>
</g>
<g>
</g>
<g>
</g>
<g>
</g>
<g>
</g>
<g>
</g>
<g>
</g>
<g>
</g>
<g>
</g>
<g>
</g>
<g>
</g>
</svg>
