<?xml version="1.0" encoding="UTF-8" standalone="no"?>
<!DOCTYPE svg PUBLIC "-//W3C//DTD SVG 1.1//EN" "http://www.w3.org/Graphics/SVG/1.1/DTD/svg11.dtd">
<svg version="1.1" xmlns="http://www.w3.org/2000/svg" xmlns:xlink="http://www.w3.org/1999/xlink" preserveAspectRatio="xMidYMid meet" viewBox="0 0 640 640" width="640" height="640"><defs><path d="M508.96 535.28C508.65 534.51 508.26 533.79 507.81 533.12C507.35 532.43 506.83 531.79 506.25 531.21C505.68 530.64 505.04 530.11 504.35 529.66C503.68 529.22 502.95 528.83 502.2 528.51C501.44 528.2 500.65 527.95 499.86 527.8C495.8 526.98 491.49 528.31 488.58 531.21C488 531.79 487.48 532.43 487.03 533.12C486.58 533.79 486.19 534.51 485.88 535.28C485.56 536.03 485.33 536.81 485.16 537.61C485 538.41 484.91 539.24 484.91 540.05C484.91 540.86 485 541.69 485.16 542.49C485.33 543.29 485.56 544.07 485.88 544.84C486.19 545.59 486.58 546.31 487.03 546.99C487.48 547.67 488 548.31 488.58 548.89C490.9 551.21 494.13 552.55 497.41 552.55C498.23 552.55 499.05 552.47 499.86 552.31C500.65 552.15 501.44 551.9 502.2 551.59C502.95 551.28 503.68 550.9 504.35 550.45C505.04 549.99 505.68 549.46 506.25 548.89C506.83 548.31 507.35 547.68 507.81 546.99C508.26 546.31 508.65 545.59 508.96 544.84C509.28 544.08 509.51 543.29 509.68 542.49C509.84 541.69 509.91 540.86 509.91 540.05C509.91 539.24 509.84 538.41 509.68 537.61C509.51 536.82 509.28 536.03 508.96 535.28Z" id="a2on48Whgu"></path><path d="M142.59 527.55C135.68 527.55 130.09 533.15 130.09 540.05C130.09 546.95 135.68 552.55 142.59 552.55C173.32 552.55 419.18 552.55 449.91 552.55C456.82 552.55 462.41 546.95 462.41 540.05C462.41 533.15 456.82 527.55 449.91 527.55C388.45 527.55 173.32 527.55 142.59 527.55Z" id="f1qvXgDun2"></path><path d="M149.53 576.9C148.85 576.45 148.13 576.06 147.36 575.75C146.61 575.44 145.82 575.19 145.03 575.03C143.41 574.71 141.75 574.71 140.14 575.03C139.35 575.19 138.56 575.44 137.8 575.75C137.05 576.06 136.32 576.45 135.65 576.9C134.96 577.35 134.32 577.88 133.75 578.45C133.18 579.03 132.65 579.66 132.19 580.35C131.74 581.03 131.35 581.75 131.04 582.51C130.73 583.26 130.49 584.05 130.33 584.85C130.16 585.65 130.09 586.48 130.09 587.29C130.09 588.1 130.16 588.92 130.33 589.72C130.49 590.53 130.73 591.31 131.04 592.06C131.35 592.82 131.74 593.55 132.19 594.22C132.65 594.91 133.18 595.55 133.75 596.12C134.32 596.7 134.96 597.22 135.65 597.67C136.32 598.12 137.05 598.51 137.8 598.82C138.56 599.14 139.35 599.39 140.14 599.54C140.95 599.7 141.78 599.79 142.59 599.79C143.4 599.79 144.23 599.7 145.03 599.54C145.82 599.39 146.61 599.14 147.36 598.82C148.13 598.51 148.85 598.12 149.53 597.67C150.21 597.23 150.85 596.7 151.43 596.12C152 595.55 152.53 594.91 152.98 594.22C153.42 593.55 153.81 592.82 154.13 592.06C154.44 591.31 154.67 590.53 154.84 589.72C155 588.92 155.09 588.1 155.09 587.29C155.09 584 153.75 580.78 151.43 578.45C150.85 577.88 150.21 577.35 149.53 576.9Z" id="a1zHeCFTo3"></path><path d="M190.09 574.79C183.18 574.79 177.59 580.39 177.59 587.29C177.59 594.19 183.18 599.79 190.09 599.79C220.82 599.79 466.68 599.79 497.42 599.79C504.32 599.79 509.92 594.19 509.92 587.29C509.92 580.39 504.32 574.79 497.42 574.79C435.95 574.79 220.82 574.79 190.09 574.79Z" id="f3qj05nPZp"></path><path d="M561.26 0.04L561.76 0.09L562.26 0.16L562.75 0.25L563.24 0.36L563.71 0.49L564.18 0.64L564.64 0.8L565.1 0.98L565.54 1.18L565.98 1.4L566.4 1.63L566.82 1.87L567.22 2.14L567.61 2.41L568 2.7L568.37 3.01L568.72 3.33L569.07 3.66L569.4 4.01L569.72 4.37L570.03 4.74L570.32 5.12L570.6 5.51L570.86 5.92L571.11 6.33L571.34 6.76L571.55 7.19L571.75 7.63L571.93 8.09L572.09 8.55L572.24 9.02L572.37 9.5L572.48 9.98L572.57 10.47L572.64 10.97L572.69 11.47L572.72 11.98L572.73 12.5L572.73 12.5L572.73 627.5L572.72 628.02L572.69 628.53L572.64 629.03L572.57 629.53L572.48 630.02L572.37 630.5L572.24 630.98L572.09 631.45L571.93 631.91L571.75 632.37L571.55 632.81L571.33 633.24L571.1 633.67L570.86 634.08L570.6 634.49L570.32 634.88L570.03 635.26L569.72 635.63L569.4 635.99L569.07 636.34L568.72 636.67L568.36 636.99L567.99 637.3L567.61 637.59L567.22 637.86L566.81 638.13L566.4 638.37L565.97 638.6L565.54 638.82L565.1 639.02L564.64 639.2L564.18 639.36L563.71 639.51L563.23 639.64L562.75 639.75L562.26 639.84L561.76 639.91L561.26 639.96L560.75 639.99L560.23 640L79.77 640L79.25 639.99L78.74 639.96L78.24 639.91L77.74 639.84L77.25 639.75L76.76 639.64L76.29 639.51L75.82 639.36L75.36 639.2L74.9 639.02L74.46 638.82L74.02 638.6L73.6 638.37L73.18 638.13L72.78 637.86L72.39 637.59L72 637.3L71.63 636.99L71.28 636.67L70.93 636.34L70.6 635.99L70.28 635.63L69.97 635.26L69.68 634.88L69.4 634.49L69.14 634.08L68.89 633.67L68.66 633.24L68.45 632.81L68.25 632.37L68.07 631.91L67.91 631.45L67.76 630.98L67.63 630.5L67.52 630.02L67.43 629.53L67.36 629.03L67.31 628.53L67.28 628.02L67.27 627.5L67.27 12.5L67.28 11.98L67.31 11.47L67.36 10.97L67.43 10.47L67.52 9.98L67.63 9.5L67.76 9.02L67.91 8.55L68.07 8.09L68.25 7.63L68.45 7.19L68.66 6.76L68.89 6.33L69.14 5.92L69.4 5.51L69.68 5.12L69.97 4.74L70.28 4.37L70.6 4.01L70.93 3.66L71.28 3.33L71.63 3.01L72 2.7L72.39 2.41L72.78 2.14L73.18 1.87L73.6 1.63L74.02 1.4L74.46 1.18L74.9 0.98L75.36 0.8L75.82 0.64L76.29 0.49L76.76 0.36L77.25 0.25L77.74 0.16L78.24 0.09L78.74 0.04L79.25 0.01L79.77 0L560.23 0L560.75 0.01L561.26 0.04ZM92.27 615L547.73 615L547.73 510.44L92.27 510.44L92.27 615ZM92.27 485.44L547.73 485.44L547.73 459.19L92.27 459.19L92.27 485.44ZM92.27 434.19L547.73 434.19L547.73 273.34L92.27 273.34L92.27 434.19ZM92.27 248.34L128.94 248.34L224.19 138.04L224.38 137.83L224.56 137.63L224.75 137.44L224.94 137.25L225.13 137.06L225.33 136.88L225.54 136.7L225.74 136.53L225.95 136.36L226.16 136.2L226.38 136.04L226.6 135.89L226.82 135.74L227.05 135.6L227.27 135.46L227.5 135.32L227.74 135.2L227.97 135.07L228.21 134.95L228.45 134.84L228.7 134.73L228.94 134.63L229.19 134.53L229.44 134.44L229.69 134.35L229.95 134.27L230.2 134.19L230.46 134.12L230.72 134.06L230.98 134L231.24 133.94L231.5 133.89L231.77 133.85L232.04 133.81L232.3 133.78L232.57 133.75L232.84 133.73L233.11 133.72L233.38 133.71L233.65 133.71L233.93 133.71L234.2 133.72L234.47 133.73L234.74 133.75L235.01 133.78L235.27 133.81L235.54 133.85L235.81 133.89L236.07 133.94L236.33 134L236.59 134.06L236.85 134.12L237.11 134.19L237.36 134.27L237.62 134.35L237.87 134.44L238.12 134.53L238.37 134.63L238.61 134.73L238.86 134.84L239.1 134.95L239.34 135.07L239.57 135.2L239.81 135.32L240.04 135.46L240.26 135.6L240.49 135.74L240.71 135.89L240.93 136.04L241.15 136.2L241.36 136.36L241.57 136.53L241.77 136.7L241.98 136.88L242.18 137.06L242.37 137.25L242.56 137.44L242.75 137.63L242.93 137.83L243.11 138.04L300.92 204.98L380 99.54L380.17 99.31L380.36 99.08L380.55 98.86L380.74 98.64L380.94 98.43L381.14 98.22L381.35 98.01L381.56 97.82L381.78 97.62L382 97.43L382.22 97.25L382.45 97.08L382.68 96.9L382.92 96.74L383.16 96.58L383.4 96.42L383.65 96.28L383.9 96.13L384.15 95.99L384.41 95.86L384.66 95.74L384.93 95.62L385.19 95.5L385.46 95.4L385.72 95.3L386 95.2L386.27 95.11L386.55 95.03L386.82 94.95L387.1 94.88L387.39 94.82L387.67 94.76L387.96 94.71L388.24 94.67L388.53 94.63L388.82 94.6L389.11 94.57L389.41 94.56L389.7 94.55L390 94.54L390.29 94.55L390.58 94.56L390.88 94.57L391.17 94.6L391.46 94.63L391.75 94.67L392.03 94.71L392.32 94.76L392.6 94.82L392.89 94.88L393.17 94.95L393.44 95.03L393.72 95.11L393.99 95.2L394.27 95.3L394.53 95.4L394.8 95.5L395.06 95.62L395.33 95.74L395.58 95.86L395.84 95.99L396.09 96.13L396.34 96.28L396.59 96.42L396.83 96.58L397.07 96.74L397.31 96.9L397.54 97.08L397.77 97.25L397.99 97.43L398.21 97.62L398.43 97.82L398.64 98.01L398.85 98.22L399.05 98.43L399.25 98.64L399.44 98.86L399.63 99.08L399.82 99.31L400 99.54L511.59 248.34L547.73 248.34L547.73 25L92.27 25L92.27 248.34ZM341.81 192.13L383.83 192.13L384.34 192.14L384.85 192.17L385.36 192.22L385.86 192.29L386.35 192.38L386.83 192.49L387.31 192.62L387.78 192.76L388.24 192.93L388.69 193.11L389.14 193.31L389.57 193.52L390 193.75L390.41 194L390.82 194.26L391.21 194.54L391.59 194.83L391.96 195.14L392.32 195.46L392.67 195.79L393 196.13L393.32 196.49L393.63 196.86L393.92 197.25L394.19 197.64L394.46 198.04L394.7 198.46L394.93 198.88L395.15 199.32L395.35 199.76L395.53 200.22L395.69 200.68L395.84 201.15L395.97 201.62L396.07 202.11L396.17 202.6L396.24 203.1L396.29 203.6L396.32 204.11L396.33 204.63L396.32 205.14L396.29 205.65L396.24 206.16L396.17 206.65L396.07 207.15L395.97 207.63L395.84 208.11L395.69 208.58L395.53 209.04L395.35 209.49L395.15 209.94L394.93 210.37L394.7 210.8L394.46 211.21L394.19 211.62L393.92 212.01L393.63 212.39L393.32 212.76L393 213.12L392.67 213.47L392.32 213.8L391.96 214.12L391.59 214.42L391.21 214.72L390.82 214.99L390.41 215.25L390 215.5L389.57 215.73L389.14 215.95L388.69 216.15L388.24 216.33L387.78 216.49L387.31 216.64L386.83 216.76L386.35 216.87L385.86 216.96L385.36 217.03L384.85 217.09L384.34 217.12L383.83 217.13L323.06 217.13L299.65 248.34L480.34 248.34L429.35 180.35L350.64 180.35L341.81 192.13ZM268.4 248.34L268.73 247.9L285.57 225.45L233.66 165.33L161.97 248.34L268.4 248.34ZM410.6 155.35L390 127.88L369.39 155.35L410.6 155.35Z" id="b6EKtpWsd"></path><path d="M291.86 40.85L293.64 41.03L295.4 41.28L297.14 41.6L298.86 41.99L300.55 42.44L302.21 42.96L303.84 43.54L305.45 44.18L307.02 44.89L308.56 45.65L310.06 46.47L311.53 47.34L312.97 48.27L314.36 49.25L315.71 50.28L317.03 51.37L318.3 52.5L319.52 53.68L320.7 54.9L321.83 56.17L322.91 57.49L323.95 58.84L324.93 60.23L325.86 61.67L326.73 63.13L327.55 64.64L328.31 66.18L329.02 67.75L329.66 69.36L330.24 70.99L330.76 72.65L331.21 74.34L331.6 76.06L331.92 77.79L332.17 79.56L332.35 81.34L332.46 83.14L332.5 84.96L332.46 86.79L332.35 88.59L332.17 90.37L331.92 92.14L331.6 93.87L331.21 95.59L330.76 97.28L330.24 98.94L329.66 100.57L329.02 102.18L328.31 103.75L327.55 105.29L326.73 106.8L325.86 108.26L324.93 109.7L323.95 111.09L322.91 112.44L321.83 113.76L320.7 115.03L319.52 116.25L318.29 117.43L317.03 118.56L315.71 119.65L314.36 120.68L312.97 121.66L311.53 122.59L310.06 123.46L308.56 124.28L307.02 125.04L305.45 125.75L303.84 126.39L302.21 126.97L300.55 127.49L298.86 127.94L297.14 128.33L295.4 128.65L293.64 128.9L291.86 129.08L290.05 129.19L288.23 129.23L286.41 129.19L284.61 129.08L282.82 128.9L281.06 128.65L279.32 128.33L277.61 127.94L275.92 127.49L274.26 126.97L272.62 126.39L271.02 125.75L269.45 125.04L267.91 124.28L266.4 123.46L264.93 122.59L263.5 121.66L262.11 120.68L260.75 119.65L259.44 118.56L258.17 117.43L256.95 116.25L255.77 115.03L254.64 113.76L253.55 112.44L252.52 111.09L251.54 109.7L250.61 108.26L249.73 106.8L248.91 105.29L248.15 103.75L247.45 102.18L246.81 100.57L246.23 98.94L245.71 97.28L245.26 95.59L244.87 93.87L244.55 92.14L244.29 90.37L244.11 88.59L244 86.79L243.97 84.96L244 83.14L244.11 81.34L244.29 79.56L244.55 77.79L244.87 76.06L245.25 74.34L245.71 72.65L246.23 70.99L246.81 69.36L247.45 67.75L248.15 66.18L248.91 64.64L249.73 63.13L250.61 61.67L251.54 60.23L252.52 58.84L253.55 57.49L254.63 56.17L255.77 54.9L256.95 53.68L258.17 52.5L259.44 51.37L260.75 50.28L262.11 49.25L263.5 48.27L264.93 47.34L266.4 46.47L267.91 45.65L269.45 44.89L271.02 44.18L272.62 43.54L274.26 42.96L275.92 42.44L277.61 41.99L279.32 41.6L281.06 41.28L282.82 41.03L284.61 40.85L286.41 40.74L288.23 40.7L290.05 40.74L291.86 40.85ZM285.62 65.87L284.35 66.09L283.12 66.39L281.91 66.76L280.74 67.22L279.61 67.74L278.52 68.33L277.47 68.99L276.47 69.72L275.51 70.5L274.62 71.35L273.77 72.25L272.99 73.2L272.26 74.2L271.6 75.25L271.01 76.34L270.48 77.47L270.03 78.64L269.66 79.85L269.36 81.09L269.14 82.35L269.01 83.65L268.97 84.97L269.01 86.28L269.14 87.58L269.36 88.84L269.66 90.08L270.03 91.29L270.48 92.46L271.01 93.59L271.6 94.68L272.26 95.73L272.99 96.73L273.77 97.68L274.62 98.58L275.51 99.43L276.47 100.21L277.47 100.94L278.52 101.6L279.61 102.19L280.74 102.71L281.91 103.17L283.12 103.54L284.35 103.84L285.62 104.06L286.92 104.19L288.23 104.23L289.55 104.19L290.84 104.06L292.11 103.84L293.35 103.54L294.55 103.17L295.72 102.71L296.86 102.19L297.95 101.6L299 100.94L300 100.21L300.95 99.43L301.85 98.58L302.69 97.68L303.48 96.73L304.2 95.73L304.87 94.68L305.46 93.59L305.98 92.46L306.43 91.29L306.81 90.08L307.11 88.84L307.32 87.58L307.46 86.28L307.5 84.97L307.46 83.65L307.32 82.35L307.11 81.09L306.81 79.85L306.43 78.64L305.98 77.47L305.46 76.34L304.87 75.25L304.2 74.2L303.48 73.2L302.69 72.25L301.85 71.35L300.95 70.5L300 69.72L299 68.99L297.95 68.33L296.86 67.74L295.72 67.22L294.55 66.76L293.35 66.39L292.11 66.09L290.84 65.87L289.55 65.74L288.23 65.7L286.92 65.74L285.62 65.87Z" id="h5OeOQRgXT"></path><path d="M222.91 296.94L223.41 296.99L223.91 297.06L224.4 297.16L224.89 297.26L225.36 297.39L225.83 297.54L226.29 297.7L226.75 297.88L227.19 298.08L227.63 298.3L228.05 298.53L228.47 298.77L228.87 299.04L229.26 299.31L229.65 299.6L230.02 299.91L230.37 300.23L230.72 300.56L231.05 300.91L231.37 301.27L231.68 301.64L231.97 302.02L232.25 302.41L232.51 302.82L232.76 303.23L232.99 303.66L233.2 304.09L233.4 304.54L233.58 304.99L233.74 305.45L233.89 305.92L234.02 306.4L234.13 306.88L234.22 307.37L234.29 307.87L234.34 308.38L234.37 308.89L234.38 309.4L234.38 394.82L234.37 395.33L234.34 395.84L234.29 396.35L234.22 396.84L234.13 397.34L234.02 397.82L233.89 398.3L233.74 398.77L233.58 399.23L233.4 399.68L233.2 400.13L232.99 400.56L232.76 400.99L232.51 401.4L232.25 401.81L231.97 402.2L231.68 402.58L231.37 402.95L231.05 403.31L230.72 403.66L230.37 403.99L230.02 404.31L229.65 404.61L229.26 404.91L228.87 405.18L228.47 405.44L228.05 405.69L227.63 405.92L227.19 406.14L226.75 406.34L226.29 406.52L225.83 406.68L225.36 406.83L224.89 406.95L224.4 407.06L223.91 407.15L223.41 407.22L222.91 407.28L222.4 407.31L221.88 407.32L137.94 407.32L137.42 407.31L136.91 407.28L136.41 407.22L135.91 407.15L135.42 407.06L134.93 406.95L134.46 406.83L133.99 406.68L133.53 406.52L133.07 406.34L132.63 406.14L132.19 405.92L131.77 405.69L131.35 405.44L130.95 405.18L130.56 404.91L130.17 404.61L129.8 404.31L129.45 403.99L129.1 403.66L128.77 403.31L128.45 402.95L128.14 402.58L127.85 402.2L127.57 401.81L127.31 401.4L127.06 400.99L126.83 400.56L126.62 400.13L126.42 399.68L126.24 399.23L126.08 398.77L125.93 398.3L125.8 397.82L125.69 397.34L125.6 396.84L125.53 396.35L125.48 395.84L125.45 395.33L125.44 394.82L125.44 309.4L125.45 308.89L125.48 308.38L125.53 307.87L125.6 307.37L125.69 306.88L125.8 306.4L125.93 305.92L126.08 305.45L126.24 304.99L126.42 304.54L126.62 304.09L126.83 303.66L127.06 303.23L127.31 302.82L127.57 302.41L127.85 302.02L128.14 301.64L128.45 301.27L128.77 300.91L129.1 300.56L129.45 300.23L129.8 299.91L130.17 299.6L130.56 299.31L130.95 299.04L131.35 298.77L131.77 298.53L132.19 298.3L132.63 298.08L133.07 297.88L133.53 297.7L133.99 297.54L134.46 297.39L134.93 297.26L135.42 297.16L135.91 297.06L136.41 296.99L136.91 296.94L137.42 296.91L137.94 296.9L221.88 296.9L222.4 296.91L222.91 296.94ZM150.44 382.32L209.38 382.32L209.38 321.9L150.44 321.9L150.44 382.32Z" id="a1loIHrHPd"></path><path d="M363 296.94L363.5 296.99L364 297.06L364.49 297.16L364.98 297.26L365.45 297.39L365.92 297.54L366.38 297.7L366.84 297.88L367.28 298.08L367.72 298.3L368.14 298.53L368.56 298.77L368.96 299.04L369.35 299.31L369.74 299.6L370.11 299.91L370.46 300.23L370.81 300.56L371.14 300.91L371.46 301.27L371.77 301.64L372.06 302.02L372.34 302.41L372.6 302.82L372.85 303.23L373.08 303.66L373.29 304.09L373.49 304.54L373.67 304.99L373.83 305.45L373.98 305.92L374.11 306.4L374.22 306.88L374.31 307.37L374.38 307.87L374.43 308.38L374.46 308.89L374.47 309.4L374.47 394.82L374.46 395.33L374.43 395.84L374.38 396.35L374.31 396.84L374.22 397.34L374.11 397.82L373.98 398.3L373.83 398.77L373.67 399.23L373.49 399.68L373.29 400.13L373.08 400.56L372.85 400.99L372.6 401.4L372.34 401.81L372.06 402.2L371.77 402.58L371.46 402.95L371.14 403.31L370.81 403.66L370.46 403.99L370.11 404.31L369.74 404.61L369.35 404.91L368.96 405.18L368.56 405.44L368.14 405.69L367.72 405.92L367.28 406.14L366.84 406.34L366.38 406.52L365.92 406.68L365.45 406.83L364.98 406.95L364.49 407.06L364 407.15L363.5 407.22L363 407.28L362.49 407.31L361.97 407.32L278.03 407.32L277.51 407.31L277 407.28L276.5 407.22L276 407.15L275.51 407.06L275.03 406.95L274.55 406.83L274.08 406.68L273.62 406.52L273.16 406.34L272.72 406.14L272.29 405.92L271.86 405.69L271.45 405.44L271.04 405.18L270.65 404.91L270.27 404.61L269.9 404.31L269.54 403.99L269.19 403.66L268.86 403.31L268.54 402.95L268.23 402.58L267.94 402.2L267.66 401.81L267.4 401.4L267.16 400.99L266.93 400.56L266.71 400.13L266.51 399.68L266.33 399.23L266.17 398.77L266.02 398.3L265.89 397.82L265.78 397.34L265.69 396.84L265.62 396.35L265.57 395.84L265.54 395.33L265.53 394.82L265.53 309.4L265.54 308.89L265.57 308.38L265.62 307.87L265.69 307.37L265.78 306.88L265.89 306.4L266.02 305.92L266.17 305.45L266.33 304.99L266.51 304.54L266.71 304.09L266.93 303.66L267.16 303.23L267.4 302.82L267.66 302.41L267.94 302.02L268.23 301.64L268.54 301.27L268.86 300.91L269.19 300.56L269.54 300.23L269.9 299.91L270.27 299.6L270.65 299.31L271.04 299.04L271.45 298.77L271.86 298.53L272.29 298.3L272.72 298.08L273.16 297.88L273.62 297.7L274.08 297.54L274.55 297.39L275.03 297.26L275.51 297.16L276 297.06L276.5 296.99L277 296.94L277.51 296.91L278.03 296.9L361.97 296.9L362.49 296.91L363 296.94ZM290.53 382.32L349.47 382.32L349.47 321.9L290.53 321.9L290.53 382.32Z" id="awFNbAUJz"></path><path d="M503.09 296.94L503.59 296.99L504.09 297.06L504.58 297.16L505.07 297.26L505.54 297.39L506.01 297.54L506.47 297.7L506.93 297.88L507.37 298.08L507.81 298.3L508.23 298.53L508.65 298.77L509.05 299.04L509.44 299.31L509.83 299.6L510.2 299.91L510.55 300.23L510.9 300.56L511.23 300.91L511.55 301.27L511.86 301.64L512.15 302.02L512.43 302.41L512.69 302.82L512.94 303.23L513.17 303.66L513.38 304.09L513.58 304.54L513.76 304.99L513.92 305.45L514.07 305.92L514.2 306.4L514.31 306.88L514.4 307.37L514.47 307.87L514.52 308.38L514.55 308.89L514.56 309.4L514.56 394.82L514.55 395.33L514.52 395.84L514.47 396.35L514.4 396.84L514.31 397.34L514.2 397.82L514.07 398.3L513.92 398.77L513.76 399.23L513.58 399.68L513.38 400.13L513.17 400.56L512.94 400.99L512.69 401.4L512.43 401.81L512.15 402.2L511.86 402.58L511.55 402.95L511.23 403.31L510.9 403.66L510.55 403.99L510.2 404.31L509.83 404.61L509.44 404.91L509.05 405.18L508.65 405.44L508.23 405.69L507.81 405.92L507.37 406.14L506.93 406.34L506.47 406.52L506.01 406.68L505.54 406.83L505.07 406.95L504.58 407.06L504.09 407.15L503.59 407.22L503.09 407.28L502.58 407.31L502.06 407.32L418.12 407.32L417.6 407.31L417.09 407.28L416.59 407.22L416.09 407.15L415.6 407.06L415.11 406.95L414.64 406.83L414.17 406.68L413.71 406.52L413.25 406.34L412.81 406.14L412.37 405.92L411.95 405.69L411.53 405.44L411.13 405.18L410.74 404.91L410.35 404.61L409.98 404.31L409.63 403.99L409.28 403.66L408.95 403.31L408.63 402.95L408.32 402.58L408.03 402.2L407.75 401.81L407.49 401.4L407.24 400.99L407.01 400.56L406.8 400.13L406.6 399.68L406.42 399.23L406.26 398.77L406.11 398.3L405.98 397.82L405.87 397.34L405.78 396.84L405.71 396.35L405.66 395.84L405.63 395.33L405.62 394.82L405.62 309.4L405.63 308.89L405.66 308.38L405.71 307.87L405.78 307.37L405.87 306.88L405.98 306.4L406.11 305.92L406.26 305.45L406.42 304.99L406.6 304.54L406.8 304.09L407.01 303.66L407.24 303.23L407.49 302.82L407.75 302.41L408.03 302.02L408.32 301.64L408.63 301.27L408.95 300.91L409.28 300.56L409.63 300.23L409.98 299.91L410.35 299.6L410.74 299.31L411.13 299.04L411.53 298.77L411.95 298.53L412.37 298.3L412.81 298.08L413.25 297.88L413.71 297.7L414.17 297.54L414.64 297.39L415.11 297.26L415.6 297.16L416.09 297.06L416.59 296.99L417.09 296.94L417.6 296.91L418.12 296.9L502.06 296.9L502.58 296.91L503.09 296.94ZM430.62 382.32L489.56 382.32L489.56 321.9L430.62 321.9L430.62 382.32Z" id="dkbrNCzxu"></path></defs><g><g><g><use xlink:href="#a2on48Whgu" opacity="1" fill="#ffffff" fill-opacity="1"></use><g><use xlink:href="#a2on48Whgu" opacity="1" fill-opacity="0" stroke="#000000" stroke-width="1" stroke-opacity="0"></use></g></g><g><use xlink:href="#f1qvXgDun2" opacity="1" fill="#ffffff" fill-opacity="1"></use><g><use xlink:href="#f1qvXgDun2" opacity="1" fill-opacity="0" stroke="#000000" stroke-width="1" stroke-opacity="0"></use></g></g><g><use xlink:href="#a1zHeCFTo3" opacity="1" fill="#ffffff" fill-opacity="1"></use><g><use xlink:href="#a1zHeCFTo3" opacity="1" fill-opacity="0" stroke="#000000" stroke-width="1" stroke-opacity="0"></use></g></g><g><use xlink:href="#f3qj05nPZp" opacity="1" fill="#ffffff" fill-opacity="1"></use><g><use xlink:href="#f3qj05nPZp" opacity="1" fill-opacity="0" stroke="#000000" stroke-width="1" stroke-opacity="0"></use></g></g><g><use xlink:href="#b6EKtpWsd" opacity="1" fill="#ffffff" fill-opacity="1"></use><g><use xlink:href="#b6EKtpWsd" opacity="1" fill-opacity="0" stroke="#000000" stroke-width="1" stroke-opacity="0"></use></g></g><g><use xlink:href="#h5OeOQRgXT" opacity="1" fill="#ffffff" fill-opacity="1"></use><g><use xlink:href="#h5OeOQRgXT" opacity="1" fill-opacity="0" stroke="#000000" stroke-width="1" stroke-opacity="0"></use></g></g><g><use xlink:href="#a1loIHrHPd" opacity="1" fill="#ffffff" fill-opacity="1"></use><g><use xlink:href="#a1loIHrHPd" opacity="1" fill-opacity="0" stroke="#000000" stroke-width="1" stroke-opacity="0"></use></g></g><g><use xlink:href="#awFNbAUJz" opacity="1" fill="#ffffff" fill-opacity="1"></use><g><use xlink:href="#awFNbAUJz" opacity="1" fill-opacity="0" stroke="#000000" stroke-width="1" stroke-opacity="0"></use></g></g><g><use xlink:href="#dkbrNCzxu" opacity="1" fill="#ffffff" fill-opacity="1"></use><g><use xlink:href="#dkbrNCzxu" opacity="1" fill-opacity="0" stroke="#000000" stroke-width="1" stroke-opacity="0"></use></g></g></g></g></svg>