<svg id="Layer_5" enable-background="new 0 0 64 64" height="512" viewBox="0 0 64 64" width="512" xmlns="http://www.w3.org/2000/svg"><path d="m41 60.414 22.414-22.414-15-15 6.044-6.044c2.537-.227 4.549-2.339 4.56-4.937v-.452l-6.05-6.05c-2.884-2.884-6.873-4.536-10.95-4.536-.016 0-.032 0-.048 0-4.118.013-7.99 1.624-10.901 4.536l-.069.069-5-5-22.414 22.414 5 5-3.879 3.879c-1.101 1.1-1.707 2.564-1.707 4.121s.606 3.021 1.707 4.121l5.879 5.879-9.586 9.586v.414c0 3.86 3.141 7 7 7h.414l10.047-10.047c2.384-.222 4.27-2.109 4.493-4.493l3.046-3.046zm-17.914-14.914-1.071 1.071-2.533-2.639 30.389-30.389 2.686 2.485-1.057 1.058-1.793-1.793-1.414 1.414 1.793 1.793-1.586 1.586-1.793-1.793-1.414 1.414 1.793 1.793-1.586 1.586-1.793-1.793-1.414 1.414 1.793 1.793-1.586 1.586-1.793-1.793-1.414 1.414 1.793 1.793-1.586 1.586-1.793-1.793-1.414 1.414 1.793 1.793-1.586 1.586-1.793-1.793-1.414 1.414 1.793 1.793-1.586 1.586-1.793-1.793-1.414 1.414 1.793 1.793-1.586 1.586-1.793-1.793-1.414 1.414 1.793 1.793-1.586 1.586-1.793-1.793-1.414 1.414 1.793 1.793-1.586 1.586-1.793-1.793-1.414 1.414zm-.344-20.343 4.551 4.55 1.414-1.414-4.551-4.55 8.086-8.086 6.344 6.343-16.586 16.586-6.344-6.343zm20.258-7.571-6.344-6.343.088-.088c1.401-1.402 3.266-2.174 5.274-2.174 1.971 0 3.9.799 5.321 2.219l1.063.983zm-7.758-4.929 6.344 6.343-1.586 1.586-6.344-6.343zm-21 21 6.344 6.343-2.489 2.489-6.213-6.474zm13.172 10.343 16.586-16.586 13.586 13.586-16.586 16.586zm33.172-6-1.586 1.586-13.586-13.586 1.586-1.586zm-31-31-1.586 1.586-3.586-3.586 1.586-1.586zm-15.586 15.586-3.586-3.586 12.586-12.586 3.586 3.586zm-7.586.414 2.586-2.586 3.586 3.586-2.586 2.586zm1.188 37.984c-2.44-.193-4.393-2.146-4.586-4.586l8.984-8.984 4.586 4.586zm10.787-10.009-6.389-6.389-5.879-5.879c-.723-.723-1.121-1.685-1.121-2.707s.398-1.984 1.121-2.707l26.362-26.362c2.536-2.536 5.907-3.938 9.493-3.95h.042c3.551 0 7.024 1.438 9.536 3.95l5.441 5.441c-.17 1.359-1.255 2.44-2.628 2.606l-5.643-5.219c-1.765-1.766-4.21-2.778-6.733-2.778-2.518 0-4.883.98-6.662 2.76l-26.243 26.244 11.891 12.393c-.17 1.349-1.24 2.421-2.588 2.597z"/><path d="m34 41.757h2v8.485h-2z" transform="matrix(.707 -.707 .707 .707 -22.276 38.222)"/><path d="m42 45.172h2v5.657h-2z" transform="matrix(.707 -.707 .707 .707 -21.347 44.465)"/><path d="m45.5 38.964h2v7.071h-2z" transform="matrix(.707 -.707 .707 .707 -16.433 45.328)"/><circle cx="6" cy="58" r="1"/><path d="m53.26 38.84-1.42 1.42 1.49 1.48 1.41-1.41z"/><path d="m46.673 33.673h1.994v1.994h-1.994z" transform="matrix(.707 -.707 .707 .707 -10.553 43.862)"/><path d="m49.468 36.418h1.994v2.093h-1.994z" transform="matrix(.707 -.707 .707 .707 -11.712 46.647)"/></svg>