<svg width="122" height="122" viewBox="0 0 122 122" fill="none" xmlns="http://www.w3.org/2000/svg">
<rect width="122" height="122" fill="#F7444E"/>
<path d="M43.8838 59.182L38.9138 61.1L43.8838 63.018V64.18L37.6118 61.702V60.498L43.8838 58.02V59.182ZM50.0583 58.51C51.0009 58.51 51.7476 58.7853 52.2983 59.336C52.8583 59.8773 53.1383 60.6753 53.1383 61.73V66H51.7943V61.884C51.7943 61.1653 51.6216 60.624 51.2763 60.26C50.9309 59.896 50.4363 59.714 49.7923 59.714C49.0643 59.714 48.4903 59.9287 48.0703 60.358C47.6503 60.778 47.4403 61.3847 47.4403 62.178V66H46.0963V55.612H47.4403V59.63C47.7203 59.2753 48.0843 59 48.5323 58.804C48.9896 58.608 49.4983 58.51 50.0583 58.51ZM59.7976 65.566C59.6016 65.734 59.3589 65.8647 59.0696 65.958C58.7802 66.042 58.4816 66.084 58.1736 66.084C57.4269 66.084 56.8482 65.8833 56.4376 65.482C56.0269 65.0807 55.8216 64.5067 55.8216 63.76V59.686H54.5616V58.58H55.8216V56.956H57.1656V58.58H59.2936V59.686H57.1656V63.704C57.1656 64.1053 57.2636 64.4133 57.4596 64.628C57.6649 64.8427 57.9542 64.95 58.3276 64.95C58.7382 64.95 59.0882 64.8333 59.3776 64.6L59.7976 65.566ZM70.7044 58.51C71.6378 58.51 72.3751 58.7807 72.9164 59.322C73.4671 59.8633 73.7424 60.666 73.7424 61.73V66H72.3984V61.884C72.3984 61.1653 72.2304 60.624 71.8944 60.26C71.5678 59.896 71.0964 59.714 70.4804 59.714C69.7991 59.714 69.2578 59.9287 68.8564 60.358C68.4551 60.778 68.2544 61.3847 68.2544 62.178V66H66.9104V61.884C66.9104 61.1653 66.7424 60.624 66.4064 60.26C66.0798 59.896 65.6084 59.714 64.9924 59.714C64.3111 59.714 63.7698 59.9287 63.3684 60.358C62.9671 60.778 62.7664 61.3847 62.7664 62.178V66H61.4224V58.58H62.7104V59.686C62.9811 59.3033 63.3358 59.014 63.7744 58.818C64.2131 58.6127 64.7124 58.51 65.2724 58.51C65.8511 58.51 66.3644 58.6267 66.8124 58.86C67.2604 59.0933 67.6058 59.434 67.8484 59.882C68.1284 59.4527 68.5158 59.1167 69.0104 58.874C69.5144 58.6313 70.0791 58.51 70.7044 58.51ZM76.2154 55.612H77.5594V66H76.2154V55.612ZM86.0616 60.498V61.702L79.7896 64.18V63.018L84.7736 61.1L79.7896 59.182V58.02L86.0616 60.498Z" fill="#F7F8F3"/>
</svg>
