<svg width="122" height="122" viewBox="0 0 122 122" fill="none" xmlns="http://www.w3.org/2000/svg">
<rect width="122" height="122" fill="#F7444E"/>
<g clip-path="url(#clip0)">
<path d="M61 50.625C58.7502 50.625 56.551 51.2921 54.6804 52.542C52.8098 53.7919 51.3518 55.5685 50.4909 57.647C49.6299 59.7255 49.4047 62.0126 49.8436 64.2192C50.2825 66.4257 51.3658 68.4525 52.9567 70.0433C54.5475 71.6342 56.5743 72.7175 58.7809 73.1564C60.9874 73.5953 63.2745 73.3701 65.353 72.5091C67.4315 71.6482 69.2081 70.1902 70.458 68.3196C71.7079 66.449 72.375 64.2498 72.375 62C72.3715 58.9842 71.172 56.093 69.0395 53.9605C66.907 51.828 64.0158 50.6285 61 50.625ZM61 71.625C59.0964 71.625 57.2355 71.0605 55.6526 70.0029C54.0698 68.9453 52.8362 67.4421 52.1077 65.6833C51.3792 63.9246 51.1886 61.9893 51.5599 60.1223C51.9313 58.2552 52.848 56.5402 54.1941 55.1941C55.5402 53.848 57.2552 52.9313 59.1223 52.5599C60.9893 52.1886 62.9246 52.3792 64.6833 53.1077C66.4421 53.8362 67.9453 55.0698 69.0029 56.6526C70.0605 58.2355 70.625 60.0964 70.625 62C70.622 64.5518 69.607 66.9982 67.8026 68.8026C65.9982 70.607 63.5518 71.622 61 71.625Z" fill="#F7F8F3"/>
<path d="M61.7983 54.125H60.0483V55.875H56.5483V62.875H63.5483V66.375H58.2983V65.5H56.5483V68.125H60.0483V69.875H61.7983V68.125H65.2983V61.125H58.2983V57.625H63.5483V58.5H65.2983V55.875H61.7983V54.125Z" fill="#F7F8F3"/>
<path d="M87.25 61.125H83.7281C83.5011 55.4018 81.1259 49.9743 77.0758 45.9242C73.0257 41.8741 67.5982 39.4989 61.875 39.2719V35.75H60.125V39.2719C54.4018 39.4989 48.9743 41.8741 44.9242 45.9242C40.8741 49.9743 38.4989 55.4018 38.2719 61.125H34.75V62.875H38.2719C38.4989 68.5982 40.8741 74.0257 44.9242 78.0758C48.9743 82.1259 54.4018 84.5011 60.125 84.7281V88.25H61.875V84.7281C67.5982 84.5011 73.0257 82.1259 77.0758 78.0758C81.1259 74.0257 83.5011 68.5982 83.7281 62.875H87.25V61.125ZM61.875 82.9781V76H60.125V82.9781C54.8657 82.7525 49.8825 80.562 46.1602 76.8398C42.438 73.1175 40.2475 68.1343 40.0219 62.875H47V61.125H40.0219C40.2475 55.8657 42.438 50.8825 46.1602 47.1602C49.8825 43.438 54.8657 41.2475 60.125 41.0219V48H61.875V41.0219C67.1343 41.2475 72.1175 43.438 75.8398 47.1602C79.562 50.8825 81.7525 55.8657 81.9781 61.125H75V62.875H81.9781C81.7525 68.1343 79.562 73.1175 75.8398 76.8398C72.1175 80.562 67.1343 82.7525 61.875 82.9781Z" fill="#F7F8F3"/>
</g>
<defs>
<clipPath id="clip0">
<rect width="56" height="56" fill="white" transform="translate(33 34)"/>
</clipPath>
</defs>
</svg>
