<svg width="122" height="122" viewBox="0 0 122 122" fill="none" xmlns="http://www.w3.org/2000/svg">
<rect width="122" height="122" fill="#F7444E"/>
<path d="M80.25 85.5V84.625H78.5V85.5H71.5V84.625H69.75V85.5H61.875V84.625H60.125V85.5H53.125V84.625H51.375V85.5H43.5V84.625H41.75V85.5H36.5V80.25H37.375V78.5H36.5V71.5H37.375V69.75H36.5V61.875H37.375V60.125H36.5V52.25H37.375V50.5H36.5V44.375H37.375V42.625H36.5V34.75H34.75V87.25H87.25V85.5H80.25Z" fill="#F7F8F3"/>
<path d="M42.6251 82.8751C43.3322 82.8778 44.0235 82.6653 44.6071 82.266C45.1907 81.8667 45.6392 81.2994 45.8929 80.6393C46.1466 79.9792 46.1936 79.2576 46.0277 78.5702C45.8618 77.8828 45.4908 77.262 44.9639 76.7903L51.4626 64.4021C52.2761 64.604 53.1358 64.4911 53.8697 64.0862L58.0819 68.7062C57.7078 69.2674 57.5036 69.9245 57.4937 70.5989C57.4839 71.2732 57.6688 71.9361 58.0264 72.5079C58.3839 73.0798 58.8988 73.5363 59.5094 73.8227C60.12 74.1091 60.8002 74.2133 61.4685 74.1227C62.1368 74.0321 62.7648 73.7506 63.277 73.312C63.7893 72.8733 64.1641 72.2962 64.3565 71.6498C64.5489 71.0034 64.5507 70.3152 64.3617 69.6678C64.1726 69.0205 63.8008 68.4414 63.2908 68.0001L69.8936 54.7955C70.542 54.9402 71.2184 54.8959 71.8424 54.668C72.4665 54.44 73.0121 54.0379 73.4147 53.5093C73.8172 52.9807 74.0597 52.3478 74.1135 51.6856C74.1673 51.0234 74.0301 50.3596 73.7182 49.773L77.4404 46.413C78.1671 46.9134 79.0517 47.1307 79.9275 47.024C80.8033 46.9174 81.6099 46.494 82.1952 45.8338C82.7805 45.1736 83.1041 44.3222 83.1051 43.4399C83.1061 42.5576 82.7843 41.7054 82.2004 41.0439C81.6166 40.3825 80.8109 39.9574 79.9354 39.8488C79.0598 39.7402 78.1747 39.9556 77.447 40.4544C76.7192 40.9532 76.199 41.701 75.9844 42.5568C75.7698 43.4126 75.8756 44.3173 76.2819 45.1005L72.5597 48.4605C71.8216 47.9627 70.9211 47.7658 70.0426 47.9102C69.1641 48.0546 68.374 48.5294 67.8341 49.2373C67.2941 49.9451 67.0452 50.8326 67.1382 51.718C67.2312 52.6035 67.6591 53.4198 68.3343 54.0001L61.7316 67.2047C60.9344 67.0283 60.1002 67.1471 59.3839 67.539L55.1717 62.919C55.542 62.3604 55.7441 61.7073 55.7541 61.0372C55.7641 60.3671 55.5815 59.7082 55.228 59.1388C54.8744 58.5695 54.3649 58.1136 53.7599 57.8253C53.1549 57.5371 52.4798 57.4286 51.815 57.5128C51.1501 57.5969 50.5234 57.8702 50.0093 58.3001C49.4952 58.73 49.1153 59.2985 48.9148 59.938C48.7143 60.5774 48.7016 61.261 48.8782 61.9075C49.0549 62.554 49.4134 63.1362 49.9112 63.5848L43.4126 75.9731C42.9304 75.8566 42.4291 75.844 41.9417 75.936C41.4543 76.028 40.992 76.2225 40.5855 76.5067C40.179 76.7909 39.8375 77.1582 39.5837 77.5843C39.3299 78.0105 39.1696 78.4857 39.1134 78.9785C39.0572 79.4713 39.1063 79.9704 39.2576 80.4428C39.4089 80.9151 39.6588 81.3499 39.9909 81.7184C40.3229 82.0868 40.7295 82.3805 41.1836 82.5799C41.6378 82.7793 42.1291 82.8799 42.6251 82.8751ZM79.3751 41.7501C79.7212 41.7501 80.0595 41.8527 80.3473 42.045C80.6351 42.2373 80.8594 42.5106 80.9918 42.8304C81.1243 43.1502 81.159 43.502 81.0914 43.8415C81.0239 44.181 80.8572 44.4928 80.6125 44.7375C80.3678 44.9823 80.0559 45.1489 79.7165 45.2165C79.377 45.284 79.0251 45.2493 78.7054 45.1169C78.3856 44.9844 78.1123 44.7601 77.92 44.4723C77.7277 44.1846 77.6251 43.8462 77.6251 43.5001C77.6251 43.036 77.8094 42.5908 78.1376 42.2627C78.4658 41.9345 78.9109 41.7501 79.3751 41.7501ZM70.6251 49.6251C70.9712 49.6251 71.3095 49.7277 71.5973 49.92C71.8851 50.1123 72.1094 50.3856 72.2418 50.7054C72.3743 51.0252 72.409 51.377 72.3414 51.7165C72.2739 52.056 72.1072 52.3678 71.8625 52.6125C71.6178 52.8573 71.3059 53.0239 70.9665 53.0915C70.627 53.159 70.2751 53.1243 69.9554 52.9919C69.6356 52.8594 69.3623 52.6351 69.17 52.3473C68.9777 52.0596 68.8751 51.7212 68.8751 51.3751C68.8751 50.911 69.0594 50.4658 69.3876 50.1377C69.7158 49.8095 70.1609 49.6251 70.6251 49.6251ZM62.7501 70.6251C62.7501 70.9712 62.6474 71.3096 62.4551 71.5973C62.2628 71.8851 61.9895 72.1094 61.6698 72.2419C61.35 72.3743 60.9981 72.409 60.6587 72.3415C60.3192 72.2739 60.0074 72.1073 59.7626 71.8625C59.5179 71.6178 59.3512 71.306 59.2837 70.9665C59.2162 70.627 59.2508 70.2752 59.3833 69.9554C59.5157 69.6356 59.74 69.3623 60.0278 69.17C60.3156 68.9777 60.6539 68.8751 61.0001 68.8751C61.4642 68.8751 61.9093 69.0595 62.2375 69.3877C62.5657 69.7158 62.7501 70.161 62.7501 70.6251ZM52.2501 59.2501C52.5962 59.2501 52.9345 59.3527 53.2223 59.545C53.5101 59.7373 53.7344 60.0106 53.8668 60.3304C53.9993 60.6502 54.034 61.002 53.9664 61.3415C53.8989 61.681 53.7322 61.9928 53.4875 62.2375C53.2428 62.4823 52.9309 62.6489 52.5915 62.7165C52.252 62.784 51.9001 62.7493 51.5804 62.6169C51.2606 62.4844 50.9873 62.2601 50.795 61.9723C50.6027 61.6846 50.5001 61.3462 50.5001 61.0001C50.5001 60.536 50.6844 60.0908 51.0126 59.7627C51.3408 59.4345 51.7859 59.2501 52.2501 59.2501ZM42.6251 77.6251C42.9712 77.6251 43.3095 77.7277 43.5973 77.92C43.8851 78.1123 44.1094 78.3856 44.2418 78.7054C44.3743 79.0252 44.409 79.377 44.3414 79.7165C44.2739 80.056 44.1072 80.3678 43.8625 80.6125C43.6178 80.8573 43.3059 81.0239 42.9665 81.0915C42.627 81.159 42.2751 81.1243 41.9554 80.9919C41.6356 80.8594 41.3623 80.6351 41.17 80.3473C40.9777 80.0596 40.8751 79.7212 40.8751 79.3751C40.8751 78.911 41.0594 78.4658 41.3876 78.1377C41.7158 77.8095 42.1609 77.6251 42.6251 77.6251Z" fill="#F7F8F3"/>
</svg>
