<svg width="122" height="122" viewBox="0 0 122 122" fill="none" xmlns="http://www.w3.org/2000/svg">
<rect width="122" height="122" fill="#F7444E"/>
<path d="M49.9946 59.5262H66.2807C67.0519 59.5262 67.6792 58.8989 67.6792 58.1277V45.5197C67.6792 44.7485 67.0519 44.1211 66.2807 44.1211H45.1609C44.3896 44.1211 43.7622 44.7485 43.7622 45.5197V62.1987C43.7622 62.7726 44.0911 63.267 44.6206 63.4887C44.8003 63.564 44.9861 63.6008 45.1693 63.6008C45.5257 63.6008 45.8718 63.4615 46.1421 63.1955L49.781 59.6138C49.8381 59.5574 49.9141 59.5262 49.9946 59.5262ZM45.3747 62.416C45.2443 62.5444 45.0993 62.5034 45.0431 62.4799C44.9868 62.4563 44.856 62.3818 44.856 62.1987V45.5197C44.856 45.3516 44.9928 45.2148 45.1609 45.2148H66.2808C66.4489 45.2148 66.5856 45.3516 66.5856 45.5197V58.1277C66.5856 58.2958 66.4489 58.4325 66.2808 58.4325H49.9946C49.6251 58.4325 49.2768 58.5752 49.0135 58.8343L45.3747 62.416Z" fill="#F7F8F3"/>
<path d="M76.839 62.5425H55.7192C54.9479 62.5425 54.3206 63.1699 54.3206 63.9411V72.4061C54.3206 73.1773 54.9479 73.8047 55.7192 73.8047H72.0053C72.0858 73.8047 72.1618 73.8359 72.2191 73.8923L75.8579 77.4739C76.1283 77.74 76.4743 77.8793 76.8308 77.8793C77.014 77.8793 77.1998 77.8424 77.3795 77.7673C77.9089 77.5456 78.2378 77.0512 78.2378 76.4772V63.9411C78.2377 63.1699 77.6102 62.5425 76.839 62.5425ZM77.1439 76.4771C77.1439 76.6602 77.0131 76.7347 76.9569 76.7583C76.9005 76.7819 76.7557 76.8228 76.6253 76.6943L72.9864 73.1127C72.7231 72.8536 72.3746 72.7109 72.0053 72.7109H55.7192C55.5511 72.7109 55.4143 72.5741 55.4143 72.406V63.9409C55.4143 63.7728 55.5511 63.6361 55.7192 63.6361H76.8391C77.0072 63.6361 77.1439 63.7728 77.1439 63.9409V76.4771Z" fill="#F7F8F3"/>
<path d="M62.2832 54.1724H49.1582V55.2661H62.2832V54.1724Z" fill="#F7F8F3"/>
<path d="M62.2832 51.0249H49.1582V52.1187H62.2832V51.0249Z" fill="#F7F8F3"/>
<path d="M55.7207 47.8774H49.1582V48.9712H55.7207V47.8774Z" fill="#F7F8F3"/>
<path d="M68.7572 69.0664H59.7168V70.1602H68.7572V69.0664Z" fill="#F7F8F3"/>
<path d="M72.3487 65.792H59.7168V66.8857H72.3487V65.792Z" fill="#F7F8F3"/>
<path d="M72.3485 69.0664H70.855V70.1602H72.3485V69.0664Z" fill="#F7F8F3"/>
</svg>
