<svg width="122" height="122" viewBox="0 0 122 122" fill="none" xmlns="http://www.w3.org/2000/svg">
<rect y="0.000488281" width="122" height="122" fill="#F7444E"/>
<g clip-path="url(#clip0)">
<path d="M69.4415 78.3394H52.5586V79.4331H69.4415V78.3394Z" fill="#F7F8F3"/>
<path d="M45.4415 45.8309C46.1437 45.8309 46.7416 45.3814 46.9668 44.7557H59.398V44.9289C59.398 45.4363 59.8108 45.8491 60.3182 45.8491H61.7592C62.2666 45.8491 62.6793 45.4363 62.6793 44.9289V44.7557H75.0333C75.2585 45.3814 75.8562 45.8309 76.5585 45.8309C77.4531 45.8309 78.1809 45.1031 78.1809 44.2085C78.1809 43.3139 77.4531 42.5861 76.5585 42.5861C75.8559 42.5861 75.258 43.0359 75.033 43.6619H62.6794V43.488C62.6794 42.9807 62.2667 42.5679 61.7593 42.5679H60.3183C59.8109 42.5679 59.3981 42.9807 59.3981 43.488V43.6619H46.967C46.7419 43.0359 46.1441 42.5861 45.4415 42.5861C44.5469 42.5861 43.8191 43.3139 43.8191 44.2085C43.8191 45.103 44.5469 45.8309 45.4415 45.8309ZM76.5587 43.6798C76.8501 43.6798 77.0873 43.9169 77.0873 44.2084C77.0873 44.4999 76.8501 44.737 76.5587 44.737C76.2672 44.737 76.03 44.4999 76.03 44.2084C76.03 43.9169 76.2672 43.6798 76.5587 43.6798ZM60.4919 43.6616H61.5856V44.7554H60.4919V43.6616ZM45.4415 43.6798C45.7329 43.6798 45.9701 43.9169 45.9701 44.2084C45.9701 44.4999 45.7329 44.737 45.4415 44.737C45.15 44.737 44.9128 44.4999 44.9128 44.2084C44.9128 43.9169 45.15 43.6798 45.4415 43.6798Z" fill="#F7F8F3"/>
<path d="M72.4712 65.0703L63.23 48.3132C63.0847 48.0586 62.7847 47.9334 62.5021 48.0083C62.2187 48.0836 62.0208 48.3407 62.0208 48.6339V61.3572C62.0208 61.9038 62.2184 62.4138 62.5771 62.7934C63.0052 63.2464 63.2129 63.8402 63.1618 64.4652C63.0753 65.5272 62.2073 66.379 61.1429 66.4467C60.5347 66.4851 59.9574 66.2785 59.516 65.8641C59.0742 65.4495 58.8308 64.8875 58.8308 64.2819C58.8308 63.734 59.0359 63.2108 59.4083 62.809C59.7765 62.4117 59.9792 61.9089 59.9792 61.3933V48.7695C59.9792 48.4764 59.7813 48.2191 59.498 48.144C59.2147 48.0687 58.9154 48.1942 58.7662 48.4558L49.6103 65.0633C49.1238 65.9151 49.2585 66.991 49.935 67.6967L56.2896 76.501C56.5953 76.9246 57.0898 77.1776 57.6124 77.1776H64.4655C64.988 77.1776 65.4826 76.9246 65.7883 76.5011L72.1428 67.6967C72.819 66.991 72.9537 65.9152 72.4712 65.0703ZM71.3363 66.9568L71.3052 66.988L64.901 75.8609C64.8004 76.0004 64.6374 76.0837 64.4653 76.0837H57.6122C57.44 76.0837 57.277 76.0004 57.1764 75.8608L50.798 67.0234L50.7723 66.988L50.7412 66.9568C50.3841 66.5997 50.3096 66.0441 50.5641 65.5984L58.8856 50.5045V61.3934C58.8856 61.6325 58.7864 61.8713 58.6063 62.0657C58.0458 62.6704 57.7372 63.4575 57.7372 64.282C57.7372 65.1799 58.1128 66.0472 58.7677 66.6618C59.4317 67.2849 60.2989 67.5966 61.2124 67.5383C62.815 67.4364 64.1218 66.1535 64.2521 64.5543C64.3276 63.6295 64.0069 62.7139 63.3722 62.0423C63.2061 61.8667 63.1147 61.6233 63.1147 61.3573V50.3686L71.5177 65.6056C71.7679 66.0441 71.6934 66.5997 71.3363 66.9568Z" fill="#F7F8F3"/>
</g>
<defs>
<clipPath id="clip0">
<rect width="56" height="56" fill="white" transform="translate(33 33.0005)"/>
</clipPath>
</defs>
</svg>
