<svg width="122" height="122" viewBox="0 0 122 122" fill="none" xmlns="http://www.w3.org/2000/svg">
<rect width="122" height="122" fill="#F7444E"/>
<path d="M51.4844 79.1562H70.5156C72.5662 79.1562 74.2344 77.4881 74.2344 75.4375V51.7044C74.2344 50.7111 73.8475 49.7773 73.1452 49.0748L68.0032 43.9329C67.3009 43.2306 66.367 42.8438 65.3737 42.8438H51.4844C49.4338 42.8438 47.7656 44.5119 47.7656 46.5625V75.4375C47.7656 77.4881 49.4338 79.1562 51.4844 79.1562ZM72.3718 49.8483C72.4231 49.8996 72.4715 49.9531 72.518 50.0078H68.8203C67.795 50.0078 66.9609 49.1737 66.9609 48.1484V44.472C67.0548 44.5435 67.1449 44.6215 67.2299 44.7064L72.3718 49.8483ZM48.8594 46.5625C48.8594 45.1151 50.037 43.9375 51.4844 43.9375H65.3737C65.5411 43.9375 65.7061 43.9535 65.8672 43.984V48.1484C65.8672 49.7768 67.1919 51.1016 68.8203 51.1016H73.0707C73.1165 51.297 73.1406 51.4988 73.1406 51.7044V75.4375C73.1406 76.8849 71.963 78.0625 70.5156 78.0625H51.4844C50.037 78.0625 48.8594 76.8849 48.8594 75.4375V46.5625Z" fill="#F7F8F3"/>
<path d="M56.5749 49.5884H51.334V50.6821H56.5749V49.5884Z" fill="#F7F8F3"/>
<path d="M70.6637 72.7759H65.4229V73.8696H70.6637V72.7759Z" fill="#F7F8F3"/>
<path d="M70.6637 57.3359H51.334V58.4297H70.6637V57.3359Z" fill="#F7F8F3"/>
<path d="M70.6637 65.0562H51.334V66.1499H70.6637V65.0562Z" fill="#F7F8F3"/>
</svg>
