<?xml version="1.0" encoding="UTF-8" standalone="no"?>
<!DOCTYPE svg PUBLIC "-//W3C//DTD SVG 1.1//EN" "http://www.w3.org/Graphics/SVG/1.1/DTD/svg11.dtd">
<svg version="1.1" xmlns="http://www.w3.org/2000/svg" xmlns:xlink="http://www.w3.org/1999/xlink" preserveAspectRatio="xMidYMid meet" viewBox="0 0 640 640" width="640" height="640"><defs><path d="M471.03 57.65L471.53 57.7L472.03 57.78L472.52 57.87L473 57.98L473.48 58.1L473.95 58.25L474.41 58.41L474.87 58.59L475.31 58.79L475.74 59.01L476.17 59.24L476.58 59.48L476.99 59.75L477.38 60.02L477.76 60.32L478.14 60.62L478.49 60.94L478.84 61.27L479.17 61.62L479.49 61.98L479.8 62.35L480.09 62.73L480.37 63.12L480.63 63.53L480.87 63.94L481.1 64.37L481.32 64.8L481.52 65.25L481.7 65.7L481.86 66.16L482.01 66.63L482.14 67.11L482.25 67.59L482.34 68.08L482.41 68.58L482.46 69.09L482.49 69.6L482.5 70.11L482.49 70.63L482.46 71.14L482.41 71.64L482.34 72.14L482.25 72.63L482.14 73.11L482.01 73.59L481.86 74.06L481.7 74.52L481.52 74.98L481.32 75.42L481.1 75.85L480.87 76.28L480.63 76.69L480.37 77.1L480.09 77.49L479.8 77.88L479.49 78.25L479.17 78.6L478.84 78.95L478.49 79.28L478.14 79.6L477.76 79.91L477.38 80.2L476.99 80.48L476.58 80.74L476.17 80.99L475.74 81.22L475.31 81.43L474.87 81.63L474.41 81.81L473.95 81.97L473.48 82.12L473 82.25L472.52 82.36L472.03 82.45L471.53 82.52L471.03 82.57L470.52 82.6L470 82.61L237.5 82.61L236.98 82.6L236.47 82.57L235.97 82.52L235.47 82.45L234.98 82.36L234.5 82.25L234.02 82.12L233.55 81.97L233.09 81.81L232.63 81.63L232.19 81.43L231.76 81.22L231.33 80.99L230.92 80.74L230.51 80.48L230.12 80.2L229.74 79.91L229.36 79.6L229.01 79.28L228.66 78.95L228.33 78.6L228.01 78.25L227.7 77.88L227.41 77.49L227.13 77.1L226.87 76.69L226.63 76.28L226.4 75.85L226.18 75.42L225.98 74.98L225.8 74.52L225.64 74.06L225.49 73.59L225.36 73.11L225.25 72.63L225.16 72.14L225.09 71.64L225.04 71.14L225.01 70.63L225 70.11L225.01 69.6L225.04 69.09L225.09 68.58L225.16 68.08L225.25 67.59L225.36 67.11L225.49 66.63L225.64 66.16L225.8 65.7L225.98 65.25L226.18 64.8L226.4 64.37L226.63 63.94L226.87 63.53L227.13 63.12L227.41 62.73L227.7 62.35L228.01 61.98L228.33 61.62L228.66 61.27L229.01 60.94L229.36 60.62L229.74 60.32L230.12 60.02L230.51 59.75L230.92 59.48L231.33 59.24L231.76 59.01L232.19 58.79L232.63 58.59L233.09 58.41L233.55 58.25L234.02 58.1L234.5 57.98L234.98 57.87L235.47 57.78L235.97 57.7L236.47 57.65L236.98 57.62L237.5 57.61L470 57.61L470.52 57.62L471.03 57.65Z" id="a13ht3hG3L"></path><path d="M174.31 57.63L174.64 57.66L174.97 57.69L175.29 57.74L175.61 57.79L175.94 57.85L176.1 57.88L176.26 57.92L176.42 57.96L176.57 58L176.73 58.04L176.89 58.08L177.04 58.13L177.2 58.17L177.35 58.22L177.51 58.27L177.66 58.33L177.82 58.38L177.97 58.44L178.12 58.5L178.28 58.56L178.43 58.62L178.57 58.69L178.72 58.76L178.87 58.83L179.02 58.9L179.16 58.97L179.31 59.05L179.45 59.12L179.59 59.2L179.73 59.28L179.87 59.37L180.01 59.45L180.15 59.54L180.29 59.62L180.42 59.71L180.56 59.81L180.7 59.9L180.83 60L180.96 60.1L181.1 60.2L181.22 60.3L181.35 60.4L181.48 60.5L181.61 60.61L181.73 60.72L181.85 60.83L181.97 60.94L182.09 61.05L182.21 61.16L182.32 61.27L182.44 61.39L182.55 61.51L182.66 61.63L182.77 61.75L182.88 61.87L182.99 61.99L183.1 62.12L183.2 62.25L183.3 62.37L183.41 62.5L183.51 62.63L183.6 62.77L183.7 62.9L183.79 63.04L183.89 63.17L183.98 63.31L184.06 63.45L184.15 63.58L184.23 63.72L184.32 63.86L184.4 64.01L184.48 64.15L184.55 64.29L184.63 64.44L184.7 64.58L184.77 64.73L184.84 64.88L184.91 65.03L184.98 65.18L185.04 65.33L185.1 65.48L185.16 65.63L185.22 65.79L185.27 65.94L185.33 66.1L185.38 66.25L185.43 66.41L185.47 66.56L185.52 66.72L185.56 66.88L185.6 67.03L185.64 67.19L185.68 67.35L185.72 67.5L185.75 67.66L185.78 67.82L185.81 67.99L185.84 68.15L185.86 68.32L185.88 68.48L185.9 68.64L185.92 68.81L185.94 68.97L185.95 69.13L185.96 69.3L185.97 69.46L185.98 69.62L185.98 69.79L185.99 69.95L185.99 70.11L185.99 70.27L185.98 70.44L185.98 70.6L185.97 70.76L185.96 70.93L185.95 71.09L185.94 71.25L185.92 71.42L185.9 71.58L185.88 71.74L185.86 71.9L185.84 72.07L185.81 72.23L185.78 72.39L185.75 72.55L185.72 72.71L185.68 72.87L185.64 73.03L185.6 73.19L185.56 73.34L185.52 73.5L185.47 73.66L185.43 73.81L185.38 73.97L185.33 74.13L185.27 74.28L185.22 74.43L185.16 74.59L185.1 74.74L185.04 74.89L184.98 75.04L184.91 75.19L184.84 75.34L184.77 75.49L184.7 75.64L184.63 75.78L184.55 75.93L184.48 76.07L184.4 76.22L184.32 76.36L184.23 76.5L184.15 76.64L184.06 76.78L183.98 76.91L183.89 77.05L183.79 77.19L183.7 77.32L183.6 77.46L183.51 77.59L183.41 77.72L183.3 77.85L183.2 77.98L183.1 78.1L182.99 78.23L182.88 78.35L182.77 78.48L182.66 78.6L182.55 78.72L182.44 78.83L182.32 78.95L182.21 79.06L182.09 79.18L181.97 79.29L181.85 79.4L181.73 79.51L181.61 79.61L181.48 79.72L181.35 79.82L181.22 79.93L181.1 80.03L180.96 80.12L180.83 80.22L180.7 80.31L180.56 80.41L180.42 80.5L180.29 80.59L180.15 80.67L180.01 80.76L179.87 80.84L179.73 80.93L179.59 81.01L179.45 81.09L179.31 81.16L179.16 81.24L179.02 81.31L178.87 81.38L178.72 81.45L178.57 81.52L178.43 81.59L178.28 81.65L178.13 81.71L177.97 81.77L177.82 81.83L177.67 81.88L177.51 81.94L177.36 81.99L177.2 82.04L177.05 82.09L176.89 82.13L176.73 82.17L176.57 82.22L176.42 82.26L176.26 82.29L176.1 82.33L175.94 82.36L175.78 82.39L175.61 82.42L175.45 82.45L175.29 82.48L175.12 82.5L174.96 82.52L174.79 82.54L174.63 82.56L174.47 82.57L174.3 82.58L174.14 82.59L173.97 82.6L173.81 82.61L173.65 82.61L173.49 82.61L173.32 82.61L173.16 82.61L173 82.6L172.84 82.59L172.67 82.58L172.51 82.57L172.35 82.56L172.18 82.54L172.02 82.52L171.86 82.5L171.69 82.48L171.53 82.45L171.37 82.42L171.21 82.39L171.05 82.36L170.89 82.33L170.73 82.29L170.57 82.26L170.41 82.22L170.25 82.17L170.1 82.13L169.94 82.09L169.78 82.04L169.63 81.99L169.47 81.94L169.32 81.88L169.17 81.83L169.01 81.77L168.86 81.71L168.71 81.65L168.56 81.59L168.41 81.52L168.26 81.45L168.11 81.38L167.96 81.31L167.82 81.24L167.67 81.16L167.53 81.09L167.38 81.01L167.24 80.93L167.1 80.84L166.96 80.76L166.82 80.67L166.69 80.59L166.55 80.5L166.42 80.41L166.28 80.31L166.15 80.22L166.01 80.12L165.88 80.03L165.75 79.93L165.62 79.82L165.5 79.72L165.37 79.61L165.25 79.51L165.12 79.4L165 79.29L164.88 79.18L164.76 79.06L164.65 78.95L164.53 78.83L164.42 78.72L164.31 78.6L164.2 78.48L164.09 78.35L163.99 78.23L163.88 78.1L163.78 77.98L163.67 77.85L163.57 77.72L163.48 77.59L163.38 77.46L163.28 77.32L163.19 77.19L163.1 77.05L163.01 76.91L162.92 76.78L162.84 76.64L162.75 76.5L162.67 76.36L162.59 76.22L162.51 76.07L162.43 75.93L162.36 75.78L162.29 75.64L162.21 75.49L162.14 75.34L162.08 75.19L162.01 75.04L161.95 74.89L161.89 74.74L161.83 74.59L161.77 74.43L161.71 74.28L161.66 74.13L161.61 73.97L161.56 73.81L161.51 73.66L161.47 73.5L161.43 73.34L161.38 73.19L161.35 73.03L161.31 72.87L161.27 72.71L161.24 72.55L161.21 72.39L161.18 72.23L161.15 72.07L161.13 71.9L161.1 71.74L161.08 71.58L161.07 71.42L161.05 71.25L161.04 71.09L161.03 70.93L161.02 70.76L161.01 70.6L161 70.44L161 70.27L161 70.11L161 69.95L161 69.79L161.01 69.62L161.02 69.46L161.03 69.3L161.04 69.13L161.05 68.97L161.07 68.81L161.08 68.64L161.1 68.48L161.13 68.32L161.15 68.15L161.18 67.99L161.21 67.82L161.24 67.66L161.27 67.5L161.31 67.35L161.35 67.19L161.38 67.03L161.43 66.88L161.47 66.72L161.51 66.56L161.56 66.41L161.61 66.25L161.66 66.1L161.71 65.94L161.77 65.79L161.83 65.63L161.89 65.48L161.95 65.33L162.01 65.18L162.08 65.03L162.14 64.88L162.21 64.73L162.29 64.58L162.36 64.44L162.43 64.29L162.51 64.15L162.59 64.01L162.67 63.86L162.75 63.72L162.84 63.58L162.92 63.45L163.01 63.31L163.1 63.17L163.19 63.04L163.28 62.9L163.38 62.77L163.48 62.63L163.57 62.5L163.67 62.37L163.78 62.25L163.88 62.12L163.99 61.99L164.09 61.87L164.2 61.75L164.31 61.63L164.42 61.51L164.53 61.39L164.65 61.27L164.76 61.16L164.88 61.05L165 60.94L165.12 60.83L165.25 60.72L165.37 60.61L165.5 60.5L165.62 60.4L165.75 60.3L165.88 60.2L166.01 60.1L166.15 60L166.28 59.9L166.42 59.81L166.55 59.71L166.69 59.62L166.82 59.54L166.96 59.45L167.1 59.37L167.24 59.28L167.38 59.2L167.53 59.12L167.67 59.05L167.82 58.97L167.96 58.9L168.11 58.83L168.26 58.76L168.41 58.69L168.56 58.62L168.71 58.56L168.86 58.5L169.01 58.44L169.17 58.38L169.32 58.33L169.47 58.27L169.63 58.22L169.78 58.17L169.94 58.13L170.1 58.08L170.25 58.04L170.41 58L170.57 57.96L170.73 57.92L170.89 57.88L171.05 57.85L171.37 57.79L171.7 57.74L172.02 57.69L172.35 57.66L172.68 57.63L173 57.62L173.33 57.61L173.66 57.61L173.99 57.62L174.31 57.63Z" id="a2jjoKDM20"></path><path d="M61.81 132.63L62.13 132.66L62.46 132.69L62.79 132.74L63.11 132.79L63.44 132.85L63.6 132.88L63.76 132.92L63.92 132.96L64.07 133L64.23 133.04L64.39 133.08L64.54 133.13L64.7 133.17L64.85 133.22L65.01 133.27L65.16 133.33L65.32 133.38L65.47 133.44L65.62 133.5L65.78 133.56L65.93 133.62L66.07 133.69L66.22 133.76L66.37 133.83L66.52 133.9L66.66 133.97L66.81 134.05L66.95 134.12L67.09 134.2L67.23 134.28L67.37 134.37L67.51 134.45L67.65 134.54L67.79 134.62L67.92 134.71L68.06 134.81L68.2 134.9L68.33 135L68.46 135.1L68.6 135.2L68.72 135.3L68.85 135.4L68.98 135.5L69.11 135.61L69.23 135.72L69.35 135.83L69.47 135.94L69.59 136.05L69.71 136.16L69.82 136.27L69.94 136.39L70.06 136.51L70.17 136.63L70.28 136.75L70.39 136.87L70.5 136.99L70.6 137.12L70.71 137.25L70.81 137.37L70.91 137.5L71.01 137.63L71.1 137.77L71.2 137.9L71.29 138.04L71.39 138.17L71.48 138.31L71.56 138.45L71.65 138.58L71.73 138.72L71.82 138.86L71.9 139.01L71.98 139.15L72.05 139.29L72.13 139.44L72.2 139.58L72.27 139.73L72.34 139.88L72.41 140.03L72.48 140.18L72.54 140.33L72.6 140.48L72.66 140.63L72.72 140.79L72.77 140.94L72.83 141.1L72.88 141.25L72.93 141.41L72.97 141.56L73.02 141.72L73.06 141.88L73.1 142.03L73.14 142.19L73.18 142.35L73.22 142.5L73.25 142.66L73.28 142.82L73.31 142.99L73.34 143.15L73.36 143.32L73.38 143.48L73.4 143.64L73.42 143.81L73.44 143.97L73.45 144.13L73.46 144.3L73.47 144.46L73.48 144.62L73.48 144.79L73.49 144.95L73.49 145.11L73.47 145.77L73.42 146.42L73.33 147.07L73.21 147.71L73.06 148.35L72.87 148.97L72.65 149.59L72.4 150.19L72.12 150.78L71.81 151.36L71.47 151.91L71.1 152.45L70.7 152.97L70.28 153.47L69.82 153.95L69.71 154.06L69.59 154.18L69.47 154.29L69.35 154.4L69.23 154.51L69.11 154.61L68.98 154.72L68.85 154.82L68.72 154.93L68.6 155.03L68.46 155.12L68.33 155.22L68.2 155.31L68.06 155.41L67.92 155.5L67.79 155.59L67.65 155.67L67.51 155.76L67.37 155.84L67.23 155.93L67.09 156.01L66.95 156.09L66.81 156.16L66.66 156.24L66.51 156.31L66.37 156.38L66.22 156.45L66.07 156.52L65.92 156.59L65.77 156.65L65.62 156.71L65.47 156.77L65.31 156.83L65.16 156.88L65.01 156.94L64.85 156.99L64.7 157.04L64.54 157.09L64.39 157.13L64.23 157.17L64.07 157.22L63.91 157.26L63.76 157.29L63.6 157.33L63.44 157.36L63.27 157.39L63.11 157.42L62.95 157.45L62.78 157.48L62.62 157.5L62.46 157.52L62.29 157.54L62.13 157.56L61.96 157.57L61.8 157.58L61.64 157.59L61.47 157.6L61.31 157.61L61.15 157.61L60.99 157.61L60.82 157.61L60.66 157.61L60.5 157.6L60.34 157.59L60.17 157.58L60.01 157.57L59.85 157.56L59.68 157.54L59.52 157.52L59.36 157.5L59.19 157.48L59.03 157.45L58.87 157.42L58.71 157.39L58.55 157.36L58.39 157.33L58.23 157.29L58.07 157.26L57.91 157.22L57.75 157.17L57.6 157.13L57.44 157.09L57.28 157.04L57.13 156.99L56.97 156.94L56.82 156.88L56.67 156.83L56.51 156.77L56.36 156.71L56.21 156.65L56.06 156.59L55.91 156.52L55.76 156.45L55.61 156.38L55.46 156.31L55.32 156.24L55.17 156.16L55.03 156.09L54.88 156.01L54.74 155.93L54.6 155.84L54.46 155.76L54.32 155.67L54.18 155.59L54.05 155.5L53.91 155.41L53.78 155.31L53.64 155.22L53.51 155.12L53.38 155.03L53.25 154.93L53.12 154.82L52.99 154.72L52.87 154.61L52.75 154.51L52.62 154.4L52.5 154.29L52.39 154.18L52.27 154.06L52.15 153.95L51.7 153.47L51.28 152.97L50.88 152.45L50.51 151.91L50.17 151.36L49.86 150.78L49.58 150.19L49.33 149.59L49.11 148.97L48.92 148.35L48.77 147.71L48.64 147.07L48.56 146.42L48.5 145.77L48.49 145.11L48.49 144.95L48.49 144.79L48.5 144.62L48.5 144.46L48.52 144.3L48.53 144.13L48.54 143.97L48.56 143.81L48.58 143.64L48.6 143.48L48.62 143.32L48.65 143.15L48.68 142.99L48.71 142.82L48.74 142.66L48.77 142.5L48.81 142.35L48.85 142.19L48.88 142.03L48.93 141.88L48.97 141.72L49.01 141.56L49.06 141.41L49.11 141.25L49.16 141.1L49.21 140.94L49.27 140.79L49.33 140.63L49.39 140.48L49.45 140.33L49.51 140.18L49.58 140.03L49.64 139.88L49.71 139.73L49.79 139.58L49.86 139.44L49.93 139.29L50.01 139.15L50.09 139.01L50.17 138.86L50.25 138.72L50.34 138.58L50.42 138.45L50.51 138.31L50.6 138.17L50.69 138.04L50.78 137.9L50.88 137.77L50.98 137.63L51.07 137.5L51.17 137.37L51.28 137.25L51.38 137.12L51.49 136.99L51.59 136.87L51.7 136.75L51.81 136.63L51.92 136.51L52.03 136.39L52.15 136.27L52.26 136.16L52.38 136.05L52.5 135.94L52.62 135.83L52.75 135.72L52.87 135.61L53 135.5L53.12 135.4L53.25 135.3L53.38 135.2L53.51 135.1L53.65 135L53.78 134.9L53.92 134.81L54.05 134.71L54.19 134.62L54.32 134.54L54.46 134.45L54.6 134.37L54.74 134.28L54.88 134.2L55.03 134.12L55.17 134.05L55.32 133.97L55.46 133.9L55.61 133.83L55.76 133.76L55.91 133.69L56.06 133.62L56.21 133.56L56.36 133.5L56.51 133.44L56.67 133.38L56.82 133.33L56.97 133.27L57.13 133.22L57.28 133.17L57.44 133.13L57.6 133.08L57.75 133.04L57.91 133L58.07 132.96L58.23 132.92L58.39 132.88L58.55 132.85L58.87 132.79L59.2 132.74L59.52 132.69L59.85 132.66L60.17 132.63L60.5 132.62L60.82 132.61L61.15 132.61L61.48 132.62L61.81 132.63Z" id="dnJcKqoaV"></path><path d="M284.22 168.88L284.55 168.91L284.88 168.94L285.2 168.99L285.53 169.04L285.85 169.1L286.01 169.13L286.17 169.17L286.33 169.21L286.49 169.25L286.64 169.29L286.8 169.33L286.96 169.38L287.12 169.42L287.27 169.47L287.43 169.52L287.58 169.58L287.73 169.63L287.89 169.69L288.04 169.75L288.19 169.81L288.34 169.87L288.49 169.94L288.63 170.01L288.78 170.08L288.93 170.15L289.07 170.22L289.22 170.3L289.36 170.37L289.5 170.45L289.65 170.53L289.79 170.62L289.93 170.7L290.06 170.79L290.2 170.87L290.34 170.96L290.47 171.06L290.61 171.15L290.74 171.25L290.88 171.35L291.01 171.45L291.14 171.55L291.27 171.65L291.39 171.75L291.52 171.86L291.64 171.97L291.76 172.08L291.88 172.19L292 172.3L292.12 172.41L292.24 172.52L292.35 172.64L292.47 172.76L292.58 172.88L292.69 173L292.8 173.12L292.91 173.24L293.01 173.37L293.12 173.5L293.22 173.62L293.32 173.75L293.42 173.88L293.52 174.02L293.61 174.15L293.71 174.29L293.8 174.42L293.89 174.56L293.98 174.7L294.06 174.83L294.15 174.97L294.23 175.11L294.31 175.26L294.39 175.4L294.46 175.54L294.54 175.69L294.61 175.83L294.68 175.98L294.75 176.13L294.82 176.28L294.89 176.43L294.95 176.58L295.01 176.73L295.07 176.88L295.13 177.04L295.18 177.19L295.24 177.35L295.29 177.5L295.34 177.66L295.39 177.81L295.43 177.97L295.47 178.13L295.52 178.28L295.56 178.44L295.59 178.6L295.63 178.75L295.66 178.91L295.7 179.07L295.72 179.24L295.75 179.4L295.78 179.57L295.8 179.73L295.82 179.89L295.84 180.06L295.86 180.22L295.87 180.38L295.88 180.55L295.89 180.71L295.9 180.87L295.91 181.04L295.91 181.2L295.91 181.36L295.91 181.52L295.91 181.69L295.9 181.85L295.89 182.01L295.88 182.18L295.87 182.34L295.86 182.5L295.84 182.67L295.82 182.83L295.8 182.99L295.78 183.15L295.75 183.32L295.72 183.48L295.7 183.64L295.66 183.8L295.63 183.96L295.59 184.12L295.56 184.28L295.52 184.44L295.47 184.59L295.43 184.75L295.39 184.91L295.34 185.06L295.29 185.22L295.24 185.38L295.18 185.53L295.13 185.68L295.07 185.84L295.01 185.99L294.95 186.14L294.89 186.29L294.82 186.44L294.75 186.59L294.68 186.74L294.61 186.89L294.54 187.03L294.46 187.18L294.39 187.32L294.31 187.47L294.23 187.61L294.15 187.75L294.06 187.89L293.98 188.03L293.89 188.16L293.8 188.3L293.71 188.44L293.61 188.57L293.52 188.71L293.42 188.84L293.32 188.97L293.22 189.1L293.12 189.23L293.01 189.35L292.91 189.48L292.8 189.6L292.69 189.73L292.58 189.85L292.47 189.97L292.35 190.08L292.24 190.2L292.12 190.31L292 190.43L291.88 190.54L291.76 190.65L291.64 190.76L291.52 190.86L291.39 190.97L291.27 191.07L291.14 191.18L291.01 191.28L290.88 191.37L290.74 191.47L290.61 191.56L290.47 191.66L290.34 191.75L290.2 191.84L290.06 191.92L289.93 192.01L289.79 192.09L289.65 192.18L289.5 192.26L289.36 192.34L289.22 192.41L289.07 192.49L288.93 192.56L288.78 192.63L288.63 192.7L288.49 192.77L288.34 192.84L288.19 192.9L288.04 192.96L287.89 193.02L287.73 193.08L287.58 193.13L287.43 193.19L287.27 193.24L287.12 193.29L286.96 193.34L286.8 193.38L286.64 193.42L286.49 193.47L286.33 193.51L286.17 193.54L286.01 193.58L285.85 193.61L285.69 193.64L285.53 193.67L285.36 193.7L285.2 193.73L285.04 193.75L284.88 193.77L284.71 193.79L284.55 193.81L284.39 193.82L284.22 193.83L284.06 193.84L283.9 193.85L283.74 193.86L283.58 193.86L283.41 193.86L283.25 193.86L283.08 193.86L282.92 193.85L282.75 193.84L282.59 193.83L282.42 193.82L282.26 193.81L282.1 193.79L281.93 193.77L281.77 193.75L281.61 193.73L281.45 193.7L281.28 193.67L281.12 193.64L280.96 193.61L280.8 193.58L280.64 193.54L280.48 193.51L280.32 193.47L280.17 193.42L280.01 193.38L279.85 193.34L279.7 193.29L279.54 193.24L279.39 193.19L279.23 193.13L279.08 193.08L278.93 193.02L278.77 192.96L278.62 192.9L278.47 192.84L278.32 192.77L278.18 192.7L278.03 192.63L277.88 192.56L277.73 192.49L277.59 192.41L277.44 192.34L277.3 192.26L277.16 192.18L277.02 192.09L276.88 192.01L276.74 191.92L276.6 191.84L276.46 191.75L276.33 191.66L276.2 191.56L276.06 191.47L275.93 191.37L275.8 191.28L275.67 191.18L275.54 191.07L275.41 190.97L275.28 190.86L275.16 190.76L275.04 190.65L274.91 190.54L274.79 190.43L274.68 190.31L274.56 190.2L274.45 190.08L274.33 189.97L274.22 189.85L274.11 189.73L274 189.6L273.9 189.48L273.79 189.35L273.69 189.23L273.59 189.1L273.49 188.97L273.39 188.84L273.29 188.71L273.2 188.57L273.1 188.44L273.01 188.3L272.92 188.16L272.84 188.03L272.75 187.89L272.67 187.75L272.58 187.61L272.5 187.47L272.42 187.32L272.35 187.18L272.27 187.03L272.2 186.89L272.13 186.74L272.06 186.59L271.99 186.44L271.92 186.29L271.86 186.14L271.8 185.99L271.74 185.84L271.68 185.68L271.63 185.53L271.57 185.38L271.52 185.22L271.47 185.06L271.43 184.91L271.38 184.75L271.34 184.59L271.3 184.44L271.26 184.28L271.22 184.12L271.19 183.96L271.15 183.8L271.12 183.64L271.09 183.48L271.06 183.32L271.04 183.15L271.01 182.99L270.99 182.83L270.97 182.67L270.95 182.5L270.94 182.34L270.93 182.18L270.92 182.01L270.91 181.85L270.9 181.69L270.9 181.52L270.9 181.36L270.9 181.2L270.9 181.04L270.91 180.87L270.92 180.71L270.93 180.55L270.94 180.38L270.95 180.22L270.97 180.06L270.99 179.89L271.01 179.73L271.04 179.57L271.06 179.4L271.09 179.24L271.12 179.07L271.15 178.91L271.19 178.75L271.22 178.6L271.26 178.44L271.3 178.28L271.34 178.13L271.38 177.97L271.43 177.81L271.47 177.66L271.52 177.5L271.57 177.35L271.63 177.19L271.68 177.04L271.74 176.88L271.8 176.73L271.86 176.58L271.92 176.43L271.99 176.28L272.06 176.13L272.13 175.98L272.2 175.83L272.27 175.69L272.35 175.54L272.42 175.4L272.5 175.26L272.58 175.11L272.67 174.97L272.75 174.83L272.84 174.7L272.92 174.56L273.01 174.42L273.1 174.29L273.2 174.15L273.29 174.02L273.39 173.88L273.49 173.75L273.59 173.62L273.69 173.5L273.79 173.37L273.9 173.24L274 173.12L274.11 173L274.22 172.88L274.33 172.76L274.45 172.64L274.56 172.52L274.68 172.41L274.79 172.3L274.91 172.19L275.04 172.08L275.16 171.97L275.28 171.86L275.41 171.75L275.54 171.65L275.67 171.55L275.8 171.45L275.93 171.35L276.06 171.25L276.2 171.15L276.33 171.06L276.46 170.96L276.6 170.87L276.74 170.79L276.88 170.7L277.02 170.62L277.16 170.53L277.3 170.45L277.45 170.37L277.59 170.3L277.74 170.22L277.88 170.15L278.03 170.08L278.18 170.01L278.33 169.94L278.47 169.87L278.62 169.81L278.77 169.75L278.93 169.69L279.08 169.63L279.23 169.58L279.39 169.52L279.54 169.47L279.7 169.42L279.85 169.38L280.01 169.33L280.17 169.29L280.32 169.25L280.48 169.21L280.64 169.17L280.8 169.13L280.96 169.1L281.28 169.04L281.61 168.99L281.93 168.94L282.26 168.91L282.59 168.88L282.91 168.87L283.24 168.86L283.57 168.86L283.9 168.87L284.22 168.88Z" id="abalVTN28"></path><path d="M321.64 168.98L322.45 169.11L323.24 169.3L324.02 169.54L324.78 169.83L325.53 170.16L326.25 170.54L326.94 170.97L327.61 171.44L328.24 171.96L328.84 172.52L328.95 172.64L329.07 172.76L329.18 172.88L329.29 173L329.4 173.12L329.5 173.24L329.61 173.37L329.71 173.5L329.81 173.62L329.91 173.75L330.01 173.88L330.11 174.02L330.2 174.15L330.29 174.29L330.39 174.42L330.48 174.56L330.56 174.7L330.65 174.83L330.73 174.97L330.82 175.11L330.9 175.26L330.98 175.4L331.05 175.54L331.13 175.69L331.2 175.83L331.27 175.98L331.34 176.13L331.41 176.28L331.47 176.43L331.54 176.58L331.6 176.73L331.66 176.88L331.72 177.04L331.77 177.19L331.83 177.35L331.88 177.5L331.93 177.66L331.97 177.81L332.02 177.97L332.06 178.13L332.11 178.28L332.14 178.44L332.18 178.6L332.22 178.75L332.25 178.91L332.28 179.07L332.31 179.24L332.34 179.4L332.36 179.57L332.39 179.73L332.41 179.89L332.43 180.06L332.44 180.22L332.46 180.38L332.47 180.55L332.48 180.71L332.49 180.87L332.5 181.04L332.5 181.2L332.5 181.36L332.48 182.02L332.43 182.67L332.34 183.32L332.22 183.96L332.07 184.6L331.88 185.22L331.66 185.84L331.41 186.44L331.13 187.03L330.82 187.61L330.48 188.16L330.11 188.7L329.71 189.22L329.29 189.72L328.84 190.2L328.36 190.65L327.86 191.08L327.34 191.47L326.8 191.84L326.24 192.18L325.67 192.49L325.08 192.77L324.48 193.02L323.86 193.24L323.24 193.43L322.6 193.58L321.96 193.7L321.31 193.79L320.66 193.84L320 193.86L319.84 193.86L319.68 193.86L319.51 193.85L319.35 193.84L319.19 193.83L319.02 193.82L318.86 193.81L318.7 193.79L318.53 193.77L318.37 193.75L318.21 193.73L318.05 193.7L317.88 193.67L317.72 193.64L317.56 193.61L317.4 193.58L317.24 193.54L317.08 193.51L316.93 193.47L316.77 193.42L316.61 193.38L316.45 193.34L316.3 193.29L316.14 193.24L315.98 193.19L315.83 193.13L315.67 193.08L315.52 193.02L315.37 192.96L315.21 192.9L315.06 192.84L314.92 192.77L314.77 192.7L314.62 192.63L314.47 192.56L314.33 192.49L314.18 192.41L314.04 192.34L313.89 192.26L313.75 192.18L313.61 192.09L313.47 192.01L313.33 191.92L313.2 191.84L313.06 191.75L312.92 191.66L312.79 191.56L312.65 191.47L312.52 191.37L312.39 191.28L312.26 191.18L312.13 191.07L312.01 190.97L311.88 190.86L311.76 190.76L311.64 190.65L311.51 190.54L311.4 190.43L311.28 190.31L311.16 190.2L311.05 190.08L310.93 189.97L310.82 189.85L310.71 189.73L310.6 189.6L310.5 189.48L310.39 189.35L310.29 189.23L310.19 189.1L310.09 188.97L309.99 188.84L309.89 188.71L309.79 188.57L309.7 188.44L309.61 188.3L309.52 188.16L309.43 188.03L309.35 187.89L309.26 187.75L309.18 187.61L309.1 187.47L309.02 187.32L308.95 187.18L308.87 187.03L308.8 186.89L308.73 186.74L308.66 186.59L308.59 186.44L308.53 186.29L308.46 186.14L308.4 185.99L308.34 185.84L308.28 185.68L308.23 185.53L308.17 185.38L308.12 185.22L308.07 185.06L308.02 184.91L307.97 184.75L307.93 184.59L307.88 184.44L307.84 184.28L307.81 184.12L307.77 183.96L307.73 183.8L307.7 183.64L307.67 183.48L307.65 183.32L307.62 183.15L307.6 182.99L307.58 182.83L307.56 182.67L307.55 182.5L307.54 182.34L307.52 182.18L307.52 182.01L307.51 181.85L307.5 181.69L307.5 181.52L307.5 181.36L307.5 181.2L307.5 181.04L307.51 180.87L307.52 180.71L307.52 180.55L307.54 180.38L307.55 180.22L307.56 180.06L307.58 179.89L307.6 179.73L307.62 179.57L307.65 179.4L307.67 179.24L307.7 179.07L307.73 178.91L307.77 178.75L307.8 178.6L307.84 178.44L307.88 178.28L307.92 178.13L307.97 177.97L308.01 177.81L308.06 177.66L308.11 177.5L308.16 177.35L308.21 177.19L308.27 177.04L308.33 176.88L308.39 176.73L308.45 176.58L308.51 176.43L308.58 176.28L308.64 176.13L308.71 175.98L308.79 175.83L308.86 175.69L308.93 175.54L309.01 175.4L309.09 175.26L309.17 175.11L309.25 174.97L309.34 174.83L309.42 174.7L309.51 174.56L309.6 174.42L309.69 174.29L309.79 174.15L309.88 174.02L309.98 173.88L310.08 173.75L310.18 173.62L310.29 173.5L310.39 173.37L310.5 173.24L310.6 173.12L310.71 173L310.82 172.88L310.93 172.76L311.05 172.64L311.16 172.52L311.28 172.41L311.4 172.3L311.51 172.19L311.64 172.08L311.76 171.97L311.88 171.86L312.01 171.75L312.13 171.65L312.26 171.55L312.39 171.45L312.52 171.35L312.65 171.25L312.79 171.15L312.92 171.06L313.06 170.96L313.2 170.87L313.33 170.79L313.47 170.7L313.61 170.62L313.75 170.53L313.89 170.45L314.04 170.37L314.18 170.3L314.33 170.22L314.47 170.15L314.62 170.08L314.77 170.01L314.92 169.94L315.06 169.87L315.21 169.81L315.37 169.75L315.52 169.69L315.67 169.63L315.83 169.58L315.98 169.52L316.14 169.47L316.3 169.42L316.45 169.38L316.61 169.33L316.77 169.29L316.93 169.25L317.08 169.21L317.24 169.17L317.4 169.13L317.56 169.1L318.38 168.97L319.19 168.89L320.01 168.86L320.83 168.9L321.64 168.98Z" id="abmTAwmUPs"></path><path d="M357.41 168.88L357.74 168.91L358.06 168.94L358.39 168.99L358.71 169.04L359.04 169.1L359.2 169.13L359.36 169.17L359.52 169.21L359.68 169.25L359.83 169.29L359.99 169.33L360.15 169.38L360.3 169.42L360.46 169.47L360.61 169.52L360.77 169.58L360.92 169.63L361.07 169.69L361.22 169.75L361.37 169.81L361.52 169.87L361.67 169.94L361.82 170.01L361.97 170.08L362.11 170.15L362.26 170.22L362.41 170.3L362.55 170.37L362.69 170.45L362.84 170.53L362.98 170.62L363.12 170.7L363.26 170.79L363.4 170.87L363.54 170.96L363.67 171.06L363.8 171.15L363.94 171.25L364.07 171.34L364.2 171.44L364.33 171.54L364.46 171.65L364.59 171.75L364.71 171.85L364.84 171.96L364.96 172.07L365.08 172.18L365.2 172.29L365.32 172.41L365.43 172.52L365.55 172.64L365.66 172.76L365.77 172.88L365.88 173L365.99 173.12L366.1 173.24L366.21 173.37L366.31 173.5L366.41 173.62L366.51 173.75L366.61 173.88L366.71 174.02L366.8 174.15L366.9 174.29L366.99 174.42L367.08 174.56L367.16 174.7L367.25 174.83L367.33 174.97L367.42 175.11L367.5 175.26L367.57 175.4L367.65 175.54L367.73 175.69L367.8 175.83L367.87 175.98L367.94 176.13L368.01 176.28L368.07 176.43L368.13 176.58L368.2 176.73L368.26 176.88L368.31 177.04L368.37 177.19L368.42 177.35L368.47 177.5L368.52 177.66L368.57 177.81L368.62 177.97L368.66 178.13L368.7 178.28L368.74 178.44L368.78 178.6L368.81 178.75L368.85 178.91L368.88 179.07L368.91 179.24L368.93 179.4L368.96 179.57L368.98 179.73L369 179.89L369.02 180.06L369.04 180.22L369.05 180.38L369.06 180.55L369.07 180.71L369.08 180.87L369.08 181.04L369.09 181.2L369.09 181.36L369.09 181.52L369.08 181.69L369.08 181.85L369.07 182.01L369.06 182.18L369.05 182.34L369.04 182.5L369.02 182.67L369 182.83L368.98 182.99L368.96 183.15L368.94 183.32L368.91 183.48L368.88 183.64L368.85 183.8L368.81 183.96L368.78 184.12L368.74 184.28L368.7 184.44L368.66 184.59L368.62 184.75L368.57 184.91L368.52 185.06L368.47 185.22L368.42 185.38L368.37 185.53L368.31 185.68L368.26 185.84L368.2 185.99L368.13 186.14L368.07 186.29L368.01 186.44L367.94 186.59L367.87 186.74L367.8 186.89L367.73 187.03L367.65 187.18L367.57 187.32L367.5 187.47L367.42 187.61L367.33 187.75L367.25 187.89L367.16 188.03L367.08 188.16L366.99 188.3L366.9 188.44L366.8 188.57L366.71 188.71L366.61 188.84L366.51 188.97L366.41 189.1L366.31 189.23L366.21 189.35L366.1 189.48L365.99 189.6L365.88 189.73L365.77 189.85L365.66 189.97L365.55 190.08L365.43 190.2L365.32 190.31L365.2 190.43L365.08 190.54L364.96 190.65L364.84 190.76L364.71 190.86L364.59 190.97L364.46 191.07L364.33 191.18L364.2 191.28L364.07 191.37L363.94 191.47L363.8 191.56L363.67 191.66L363.54 191.75L363.4 191.84L363.26 191.92L363.12 192.01L362.98 192.09L362.84 192.18L362.7 192.26L362.55 192.34L362.41 192.41L362.26 192.49L362.12 192.56L361.97 192.63L361.82 192.7L361.67 192.77L361.52 192.84L361.37 192.9L361.22 192.96L361.07 193.02L360.92 193.08L360.77 193.13L360.61 193.19L360.46 193.24L360.3 193.29L360.15 193.34L359.99 193.38L359.83 193.42L359.68 193.47L359.52 193.51L359.36 193.54L359.2 193.58L359.04 193.61L358.88 193.64L358.71 193.67L358.55 193.7L358.39 193.73L358.22 193.75L358.06 193.77L357.9 193.79L357.74 193.81L357.57 193.82L357.41 193.83L357.25 193.84L357.09 193.85L356.93 193.86L356.76 193.86L356.6 193.86L356.44 193.86L356.27 193.86L356.11 193.85L355.94 193.84L355.78 193.83L355.62 193.82L355.45 193.81L355.29 193.79L355.13 193.77L354.96 193.75L354.8 193.73L354.64 193.7L354.47 193.67L354.31 193.64L354.15 193.61L353.99 193.58L353.83 193.54L353.67 193.51L353.51 193.47L353.36 193.42L353.2 193.38L353.04 193.34L352.89 193.29L352.73 193.24L352.58 193.19L352.42 193.13L352.27 193.08L352.12 193.02L351.96 192.96L351.81 192.9L351.66 192.84L351.51 192.77L351.36 192.7L351.22 192.63L351.07 192.56L350.92 192.49L350.78 192.41L350.64 192.34L350.49 192.26L350.35 192.18L350.21 192.09L350.07 192.01L349.94 191.92L349.8 191.84L349.66 191.75L349.53 191.66L349.39 191.56L349.25 191.47L349.12 191.37L348.99 191.28L348.86 191.18L348.73 191.07L348.6 190.97L348.47 190.86L348.35 190.76L348.22 190.65L348.1 190.54L347.98 190.43L347.87 190.31L347.75 190.2L347.63 190.08L347.52 189.97L347.41 189.85L347.3 189.73L347.19 189.6L347.08 189.48L346.98 189.35L346.88 189.23L346.77 189.1L346.67 188.97L346.58 188.84L346.48 188.71L346.38 188.57L346.29 188.44L346.2 188.3L346.11 188.16L346.02 188.03L345.94 187.89L345.85 187.75L345.77 187.61L345.69 187.47L345.61 187.32L345.54 187.18L345.46 187.03L345.39 186.89L345.32 186.74L345.25 186.59L345.18 186.44L345.11 186.29L345.05 186.14L344.99 185.99L344.93 185.84L344.87 185.68L344.82 185.53L344.76 185.38L344.71 185.22L344.66 185.06L344.61 184.91L344.57 184.75L344.53 184.59L344.48 184.44L344.44 184.28L344.41 184.12L344.37 183.96L344.34 183.8L344.3 183.64L344.28 183.48L344.25 183.32L344.22 183.15L344.2 182.99L344.18 182.83L344.16 182.67L344.14 182.5L344.13 182.34L344.12 182.18L344.11 182.01L344.1 181.85L344.09 181.69L344.09 181.52L344.09 181.36L344.09 181.2L344.09 181.04L344.1 180.87L344.11 180.71L344.12 180.55L344.13 180.38L344.14 180.22L344.16 180.06L344.18 179.89L344.2 179.73L344.22 179.57L344.25 179.4L344.28 179.24L344.3 179.07L344.34 178.91L344.37 178.75L344.41 178.6L344.44 178.44L344.48 178.28L344.53 178.13L344.57 177.97L344.61 177.81L344.66 177.66L344.71 177.5L344.76 177.35L344.82 177.19L344.87 177.04L344.93 176.88L344.99 176.73L345.05 176.58L345.11 176.43L345.18 176.28L345.25 176.13L345.32 175.98L345.39 175.83L345.46 175.69L345.54 175.54L345.61 175.4L345.69 175.26L345.77 175.11L345.85 174.97L345.94 174.83L346.02 174.7L346.11 174.56L346.2 174.42L346.29 174.29L346.38 174.15L346.48 174.02L346.58 173.88L346.67 173.75L346.77 173.62L346.88 173.5L346.98 173.37L347.08 173.24L347.19 173.12L347.3 173L347.41 172.88L347.52 172.76L347.63 172.64L347.75 172.52L347.87 172.41L347.98 172.29L348.1 172.18L348.22 172.07L348.35 171.96L348.47 171.85L348.6 171.75L348.73 171.65L348.86 171.54L348.99 171.44L349.12 171.34L349.25 171.25L349.39 171.15L349.53 171.06L349.66 170.96L349.8 170.87L349.94 170.79L350.07 170.7L350.21 170.62L350.35 170.53L350.49 170.45L350.64 170.37L350.78 170.3L350.92 170.22L351.07 170.15L351.22 170.08L351.36 170.01L351.51 169.94L351.66 169.87L351.81 169.81L351.96 169.75L352.12 169.69L352.27 169.63L352.42 169.58L352.58 169.52L352.73 169.47L352.89 169.42L353.04 169.38L353.2 169.33L353.36 169.29L353.51 169.25L353.67 169.21L353.83 169.17L353.99 169.13L354.15 169.1L354.47 169.04L354.8 168.99L355.12 168.94L355.45 168.91L355.77 168.88L356.1 168.87L356.43 168.86L356.76 168.86L357.08 168.87L357.41 168.88Z" id="cuJaYyomT"></path><path d="M463.53 495.24L464.03 495.29L464.53 495.36L465.02 495.45L465.5 495.56L465.98 495.69L466.45 495.84L466.91 496L467.37 496.18L467.81 496.38L468.24 496.6L468.67 496.83L469.08 497.07L469.49 497.33L469.88 497.61L470.26 497.9L470.64 498.21L470.99 498.53L471.34 498.86L471.67 499.21L471.99 499.57L472.3 499.94L472.59 500.32L472.87 500.71L473.13 501.12L473.37 501.53L473.6 501.96L473.82 502.39L474.02 502.83L474.2 503.29L474.36 503.75L474.51 504.22L474.64 504.7L474.75 505.18L474.84 505.67L474.91 506.17L474.96 506.67L474.99 507.18L475 507.7L474.99 508.22L474.96 508.72L474.91 509.23L474.84 509.73L474.75 510.22L474.64 510.7L474.51 511.18L474.36 511.65L474.2 512.11L474.02 512.56L473.82 513.01L473.6 513.44L473.37 513.87L473.13 514.28L472.87 514.69L472.59 515.08L472.3 515.46L471.99 515.83L471.67 516.19L471.34 516.54L470.99 516.87L470.64 517.19L470.26 517.5L469.88 517.79L469.49 518.06L469.08 518.33L468.67 518.57L468.24 518.8L467.81 519.02L467.37 519.22L466.91 519.4L466.45 519.56L465.98 519.71L465.5 519.84L465.02 519.95L464.53 520.04L464.03 520.11L463.53 520.16L463.02 520.19L462.5 520.2L325 520.2L324.48 520.19L323.97 520.16L323.47 520.11L322.97 520.04L322.48 519.95L322 519.84L321.52 519.71L321.05 519.56L320.59 519.4L320.13 519.22L319.69 519.02L319.26 518.8L318.83 518.57L318.42 518.33L318.01 518.06L317.62 517.79L317.24 517.5L316.86 517.19L316.51 516.87L316.16 516.54L315.83 516.19L315.51 515.83L315.2 515.46L314.91 515.08L314.63 514.69L314.37 514.28L314.13 513.87L313.9 513.44L313.68 513.01L313.48 512.56L313.3 512.11L313.14 511.65L312.99 511.18L312.86 510.7L312.75 510.22L312.66 509.73L312.59 509.23L312.54 508.72L312.51 508.22L312.5 507.7L312.51 507.18L312.54 506.67L312.59 506.17L312.66 505.67L312.75 505.18L312.86 504.7L312.99 504.22L313.14 503.75L313.3 503.29L313.48 502.83L313.68 502.39L313.9 501.96L314.13 501.53L314.37 501.12L314.63 500.71L314.91 500.32L315.2 499.94L315.51 499.57L315.83 499.21L316.16 498.86L316.51 498.53L316.86 498.21L317.24 497.9L317.62 497.61L318.01 497.33L318.42 497.07L318.83 496.83L319.26 496.6L319.69 496.38L320.13 496.18L320.59 496L321.05 495.84L321.52 495.69L322 495.56L322.48 495.45L322.97 495.36L323.47 495.29L323.97 495.24L324.48 495.21L325 495.2L462.5 495.2L463.02 495.21L463.53 495.24Z" id="a2U5VtS7ri"></path><path d="M463.53 545.24L464.03 545.29L464.53 545.36L465.02 545.45L465.5 545.56L465.98 545.69L466.45 545.84L466.91 546L467.37 546.18L467.81 546.38L468.24 546.6L468.67 546.83L469.08 547.07L469.49 547.33L469.88 547.61L470.26 547.9L470.64 548.21L470.99 548.53L471.34 548.86L471.67 549.21L471.99 549.57L472.3 549.94L472.59 550.32L472.87 550.71L473.13 551.12L473.37 551.53L473.6 551.96L473.82 552.39L474.02 552.83L474.2 553.29L474.36 553.75L474.51 554.22L474.64 554.7L474.75 555.18L474.84 555.67L474.91 556.17L474.96 556.67L474.99 557.18L475 557.7L474.99 558.22L474.96 558.72L474.91 559.23L474.84 559.73L474.75 560.22L474.64 560.7L474.51 561.18L474.36 561.65L474.2 562.11L474.02 562.56L473.82 563.01L473.6 563.44L473.37 563.87L473.13 564.28L472.87 564.69L472.59 565.08L472.3 565.46L471.99 565.83L471.67 566.19L471.34 566.54L470.99 566.87L470.64 567.19L470.26 567.5L469.88 567.79L469.49 568.06L469.08 568.33L468.67 568.57L468.24 568.8L467.81 569.02L467.37 569.22L466.91 569.4L466.45 569.56L465.98 569.71L465.5 569.84L465.02 569.95L464.53 570.04L464.03 570.11L463.53 570.16L463.02 570.19L462.5 570.2L325 570.2L324.48 570.19L323.97 570.16L323.47 570.11L322.97 570.04L322.48 569.95L322 569.84L321.52 569.71L321.05 569.56L320.59 569.4L320.13 569.22L319.69 569.02L319.26 568.8L318.83 568.57L318.42 568.33L318.01 568.06L317.62 567.79L317.24 567.5L316.86 567.19L316.51 566.87L316.16 566.54L315.83 566.19L315.51 565.83L315.2 565.46L314.91 565.08L314.63 564.69L314.37 564.28L314.13 563.87L313.9 563.44L313.68 563.01L313.48 562.56L313.3 562.11L313.14 561.65L312.99 561.18L312.86 560.7L312.75 560.22L312.66 559.73L312.59 559.23L312.54 558.72L312.51 558.22L312.5 557.7L312.51 557.18L312.54 556.67L312.59 556.17L312.66 555.67L312.75 555.18L312.86 554.7L312.99 554.22L313.14 553.75L313.3 553.29L313.48 552.83L313.68 552.39L313.9 551.96L314.13 551.53L314.37 551.12L314.63 550.71L314.91 550.32L315.2 549.94L315.51 549.57L315.83 549.21L316.16 548.86L316.51 548.53L316.86 548.21L317.24 547.9L317.62 547.61L318.01 547.33L318.42 547.07L318.83 546.83L319.26 546.6L319.69 546.38L320.13 546.18L320.59 546L321.05 545.84L321.52 545.69L322 545.56L322.48 545.45L322.97 545.36L323.47 545.29L323.97 545.24L324.48 545.21L325 545.2L462.5 545.2L463.02 545.21L463.53 545.24Z" id="b1sf4OwYbw"></path><path d="M221.82 495.32L223.33 495.48L224.82 495.69L226.3 495.96L227.75 496.29L229.18 496.68L230.59 497.12L231.97 497.61L233.33 498.15L234.67 498.75L235.97 499.39L237.24 500.09L238.49 500.83L239.7 501.61L240.88 502.44L242.03 503.32L243.14 504.24L244.22 505.2L245.25 506.2L246.25 507.23L247.21 508.31L248.13 509.42L249.01 510.57L249.84 511.75L250.62 512.96L251.36 514.21L252.06 515.48L252.7 516.79L253.3 518.12L253.84 519.48L254.34 520.86L254.77 522.27L255.16 523.7L255.49 525.15L255.76 526.63L255.97 528.12L256.13 529.63L256.22 531.16L256.25 532.7L256.22 534.24L256.13 535.77L255.97 537.28L255.76 538.78L255.49 540.25L255.16 541.7L254.77 543.13L254.34 544.54L253.84 545.92L253.3 547.28L252.7 548.62L252.06 549.92L251.36 551.19L250.62 552.44L249.84 553.65L249.01 554.83L248.13 555.98L247.21 557.09L246.25 558.17L245.25 559.2L244.22 560.2L243.14 561.16L242.03 562.08L240.88 562.96L239.7 563.79L238.49 564.57L237.24 565.31L235.97 566.01L234.67 566.65L233.33 567.25L231.97 567.79L230.59 568.29L229.18 568.72L227.75 569.11L226.3 569.44L224.82 569.71L223.33 569.92L221.82 570.08L220.29 570.17L218.75 570.2L217.21 570.17L215.68 570.08L214.17 569.92L212.68 569.71L211.2 569.44L209.75 569.11L208.32 568.72L206.91 568.29L205.53 567.79L204.17 567.25L202.83 566.65L201.53 566.01L200.26 565.31L199.01 564.57L197.8 563.79L196.62 562.96L195.47 562.08L194.36 561.16L193.28 560.2L192.25 559.2L191.25 558.17L190.29 557.09L189.37 555.98L188.49 554.83L187.66 553.65L186.88 552.44L186.14 551.19L185.44 549.92L184.8 548.62L184.2 547.28L183.66 545.92L183.16 544.54L182.73 543.13L182.34 541.7L182.01 540.25L181.74 538.78L181.53 537.28L181.37 535.77L181.28 534.24L181.25 532.7L181.28 531.16L181.37 529.63L181.53 528.12L181.74 526.63L182.01 525.15L182.34 523.7L182.73 522.27L183.16 520.86L183.66 519.48L184.2 518.12L184.8 516.79L185.44 515.48L186.14 514.21L186.88 512.96L187.66 511.75L188.49 510.57L189.37 509.42L190.29 508.31L191.25 507.23L192.25 506.2L193.28 505.2L194.36 504.24L195.47 503.32L196.62 502.44L197.8 501.61L199.01 500.83L200.26 500.09L201.53 499.39L202.83 498.75L204.17 498.15L205.53 497.61L206.91 497.12L208.32 496.68L209.75 496.29L211.2 495.96L212.68 495.69L214.17 495.48L215.68 495.32L217.21 495.23L218.75 495.2L220.29 495.23L221.82 495.32ZM216.07 520.49L214.8 520.84L213.59 521.31L212.45 521.91L211.37 522.61L210.38 523.42L209.47 524.33L208.66 525.32L207.96 526.4L207.36 527.54L206.89 528.75L206.54 530.02L206.32 531.34L206.25 532.7L206.32 534.06L206.54 535.38L206.89 536.65L207.36 537.86L207.96 539.01L208.66 540.08L209.47 541.07L210.38 541.98L211.37 542.79L212.45 543.49L213.59 544.09L214.8 544.56L216.07 544.91L217.39 545.13L218.75 545.2L220.11 545.13L221.43 544.91L222.7 544.56L223.91 544.09L225.05 543.49L226.13 542.79L227.12 541.98L228.03 541.07L228.84 540.08L229.54 539.01L230.14 537.86L230.61 536.65L230.96 535.38L231.18 534.06L231.25 532.7L231.18 531.34L230.96 530.02L230.61 528.75L230.14 527.54L229.54 526.4L228.84 525.32L228.03 524.33L227.12 523.42L226.13 522.61L225.05 521.91L223.91 521.31L222.7 520.84L221.43 520.49L220.11 520.27L218.75 520.2L217.39 520.27L216.07 520.49Z" id="gQkx5Nr60"></path><path d="M213.67 295.25L214.24 295.32L214.81 295.41L215.37 295.53L215.91 295.67L216.45 295.84L216.98 296.03L217.49 296.24L218 296.47L218.49 296.73L218.97 297L219.43 297.3L219.88 297.61L220.32 297.95L220.74 298.3L221.14 298.67L221.53 299.06L221.9 299.46L222.25 299.88L222.59 300.32L222.9 300.77L223.2 301.23L223.47 301.71L223.73 302.2L223.96 302.71L224.17 303.22L224.36 303.75L224.53 304.29L224.67 304.83L224.79 305.39L224.88 305.96L224.95 306.53L224.99 307.11L225 307.7L224.99 308.29L224.95 308.87L224.88 309.44L224.79 310.01L224.67 310.57L224.53 311.11L224.36 311.65L224.17 312.18L223.96 312.69L223.73 313.2L223.47 313.69L223.2 314.17L222.9 314.63L222.59 315.08L222.25 315.52L221.9 315.94L221.53 316.34L221.14 316.73L220.74 317.1L220.32 317.45L219.88 317.79L219.43 318.1L218.97 318.4L218.49 318.67L218 318.93L217.49 319.16L216.98 319.37L216.45 319.56L215.91 319.73L215.37 319.87L214.81 319.99L214.24 320.08L213.67 320.15L213.09 320.19L212.5 320.2L162.5 320.2L161.91 320.19L161.33 320.15L160.76 320.08L160.19 319.99L159.63 319.87L159.09 319.73L158.55 319.56L158.02 319.37L157.51 319.16L157 318.93L156.51 318.67L156.03 318.4L155.57 318.1L155.12 317.79L154.68 317.45L154.26 317.1L153.86 316.73L153.47 316.34L153.1 315.94L152.75 315.52L152.41 315.08L152.1 314.63L151.8 314.17L151.53 313.69L151.27 313.2L151.04 312.69L150.83 312.18L150.64 311.65L150.47 311.11L150.33 310.57L150.21 310.01L150.12 309.44L150.05 308.87L150.01 308.29L150 307.7L150.01 307.11L150.05 306.53L150.12 305.96L150.21 305.39L150.33 304.83L150.47 304.29L150.64 303.75L150.83 303.22L151.04 302.71L151.27 302.2L151.53 301.71L151.8 301.23L152.1 300.77L152.41 300.32L152.75 299.88L153.1 299.46L153.47 299.06L153.86 298.67L154.26 298.3L154.68 297.95L155.12 297.61L155.57 297.3L156.03 297L156.51 296.73L157 296.47L157.51 296.24L158.02 296.03L158.55 295.84L159.09 295.67L159.63 295.53L160.19 295.41L160.76 295.32L161.33 295.25L161.91 295.21L162.5 295.2L212.5 295.2L213.09 295.21L213.67 295.25Z" id="aZviStP36"></path><path d="M263.53 345.14L264.03 345.19L264.53 345.26L265.02 345.35L265.5 345.46L265.98 345.59L266.45 345.74L266.91 345.9L267.37 346.08L267.81 346.28L268.24 346.49L268.67 346.72L269.08 346.97L269.49 347.23L269.88 347.51L270.26 347.8L270.64 348.11L270.99 348.43L271.34 348.76L271.67 349.11L271.99 349.46L272.3 349.83L272.59 350.22L272.87 350.61L273.13 351.02L273.37 351.43L273.6 351.86L273.82 352.29L274.02 352.73L274.2 353.19L274.36 353.65L274.51 354.12L274.64 354.6L274.75 355.08L274.84 355.57L274.91 356.07L274.96 356.57L274.99 357.08L275 357.6L274.99 358.11L274.96 358.62L274.91 359.13L274.84 359.63L274.75 360.12L274.64 360.6L274.51 361.08L274.36 361.55L274.2 362.01L274.02 362.46L273.82 362.91L273.6 363.34L273.37 363.77L273.13 364.18L272.87 364.59L272.59 364.98L272.3 365.36L271.99 365.73L271.67 366.09L271.34 366.44L270.99 366.77L270.64 367.09L270.26 367.39L269.88 367.69L269.49 367.96L269.08 368.23L268.67 368.47L268.24 368.7L267.81 368.92L267.37 369.12L266.91 369.3L266.45 369.46L265.98 369.61L265.5 369.73L265.02 369.84L264.53 369.93L264.03 370.01L263.53 370.06L263.02 370.09L262.5 370.1L162.5 370.1L161.98 370.09L161.47 370.06L160.97 370.01L160.47 369.93L159.98 369.84L159.5 369.73L159.02 369.61L158.55 369.46L158.09 369.3L157.63 369.12L157.19 368.92L156.76 368.7L156.33 368.47L155.92 368.23L155.51 367.96L155.12 367.69L154.74 367.39L154.36 367.09L154.01 366.77L153.66 366.44L153.33 366.09L153.01 365.73L152.7 365.36L152.41 364.98L152.13 364.59L151.87 364.18L151.63 363.77L151.4 363.34L151.18 362.91L150.98 362.46L150.8 362.01L150.64 361.55L150.49 361.08L150.36 360.6L150.25 360.12L150.16 359.63L150.09 359.13L150.04 358.62L150.01 358.11L150 357.6L150.01 357.08L150.04 356.57L150.09 356.07L150.16 355.57L150.25 355.08L150.36 354.6L150.49 354.12L150.64 353.65L150.8 353.19L150.98 352.73L151.18 352.29L151.4 351.86L151.63 351.43L151.87 351.02L152.13 350.61L152.41 350.22L152.7 349.83L153.01 349.46L153.33 349.11L153.66 348.76L154.01 348.43L154.36 348.11L154.74 347.8L155.12 347.51L155.51 347.23L155.92 346.97L156.33 346.72L156.76 346.49L157.19 346.28L157.63 346.08L158.09 345.9L158.55 345.74L159.02 345.59L159.5 345.46L159.98 345.35L160.47 345.26L160.97 345.19L161.47 345.14L161.98 345.11L162.5 345.1L262.5 345.1L263.02 345.11L263.53 345.14Z" id="b1gSeuj5NQ"></path><path d="M238.53 395.24L239.03 395.29L239.53 395.36L240.02 395.45L240.5 395.56L240.98 395.69L241.45 395.84L241.91 396L242.37 396.18L242.81 396.38L243.24 396.6L243.67 396.83L244.08 397.07L244.49 397.33L244.88 397.61L245.26 397.9L245.64 398.21L245.99 398.53L246.34 398.86L246.67 399.21L246.99 399.57L247.3 399.94L247.59 400.32L247.87 400.71L248.13 401.12L248.37 401.53L248.6 401.96L248.82 402.39L249.02 402.83L249.2 403.29L249.36 403.75L249.51 404.22L249.64 404.7L249.75 405.18L249.84 405.67L249.91 406.17L249.96 406.67L249.99 407.18L250 407.7L249.99 408.22L249.96 408.73L249.91 409.23L249.84 409.73L249.75 410.22L249.64 410.7L249.51 411.18L249.36 411.65L249.2 412.11L249.02 412.57L248.82 413.01L248.6 413.44L248.37 413.87L248.13 414.28L247.87 414.69L247.59 415.08L247.3 415.46L246.99 415.84L246.67 416.19L246.34 416.54L245.99 416.87L245.64 417.19L245.26 417.5L244.88 417.79L244.49 418.07L244.08 418.33L243.67 418.57L243.24 418.81L242.81 419.02L242.37 419.22L241.91 419.4L241.45 419.56L240.98 419.71L240.5 419.84L240.02 419.95L239.53 420.04L239.03 420.11L238.53 420.16L238.02 420.19L237.5 420.2L162.5 420.2L161.98 420.19L161.47 420.16L160.97 420.11L160.47 420.04L159.98 419.95L159.5 419.84L159.02 419.71L158.55 419.56L158.09 419.4L157.63 419.22L157.19 419.02L156.76 418.8L156.33 418.57L155.92 418.33L155.51 418.06L155.12 417.79L154.74 417.5L154.36 417.19L154.01 416.87L153.66 416.54L153.33 416.19L153.01 415.83L152.7 415.46L152.41 415.08L152.13 414.69L151.87 414.28L151.63 413.87L151.4 413.44L151.18 413.01L150.98 412.56L150.8 412.11L150.64 411.65L150.49 411.18L150.36 410.7L150.25 410.22L150.16 409.73L150.09 409.23L150.04 408.72L150.01 408.22L150 407.7L150.01 407.18L150.04 406.67L150.09 406.17L150.16 405.67L150.25 405.18L150.36 404.7L150.49 404.22L150.64 403.75L150.8 403.29L150.98 402.83L151.18 402.39L151.4 401.96L151.63 401.53L151.87 401.12L152.13 400.71L152.41 400.32L152.7 399.94L153.01 399.57L153.33 399.21L153.66 398.86L154.01 398.53L154.36 398.21L154.74 397.9L155.12 397.61L155.51 397.33L155.92 397.07L156.33 396.83L156.76 396.6L157.19 396.38L157.63 396.18L158.09 396L158.55 395.84L159.02 395.69L159.5 395.56L159.98 395.45L160.47 395.36L160.97 395.29L161.47 395.24L161.98 395.21L162.5 395.2L237.5 395.2L238.02 395.21L238.53 395.24Z" id="csSxQ9QJt"></path><path d="M507.25 20.09L508.36 20.2L509.46 20.36L510.54 20.56L511.6 20.8L512.65 21.08L513.68 21.4L514.7 21.76L515.7 22.16L516.67 22.6L517.63 23.07L518.56 23.58L519.48 24.13L520.37 24.7L521.23 25.31L522.07 25.95L522.89 26.63L523.68 27.33L524.44 28.06L525.17 28.82L525.87 29.61L526.55 30.43L527.19 31.27L527.8 32.13L528.37 33.02L528.92 33.94L529.43 34.87L529.9 35.83L530.34 36.8L530.74 37.8L531.1 38.82L531.42 39.85L531.7 40.9L531.94 41.96L532.14 43.04L532.3 44.14L532.41 45.25L532.48 46.37L532.5 47.5L532.5 95L612.5 95L613.63 95.02L614.75 95.09L615.86 95.2L616.96 95.36L618.04 95.56L619.1 95.8L620.15 96.08L621.18 96.4L622.2 96.76L623.2 97.16L624.17 97.6L625.13 98.07L626.06 98.58L626.98 99.13L627.87 99.7L628.73 100.31L629.57 100.95L630.39 101.63L631.18 102.33L631.94 103.06L632.67 103.82L633.37 104.61L634.05 105.43L634.69 106.27L635.3 107.13L635.87 108.02L636.42 108.94L636.93 109.87L637.4 110.83L637.84 111.8L638.24 112.8L638.6 113.82L638.92 114.85L639.2 115.9L639.44 116.96L639.64 118.04L639.8 119.14L639.91 120.25L639.98 121.37L640 122.5L640 542.7L639.98 543.83L639.91 544.95L639.8 546.06L639.64 547.15L639.44 548.23L639.2 549.3L638.92 550.35L638.6 551.38L638.24 552.4L637.84 553.39L637.4 554.37L636.93 555.33L636.42 556.26L635.87 557.17L635.3 558.06L634.69 558.93L634.05 559.77L633.37 560.59L632.67 561.37L631.94 562.14L631.18 562.87L630.39 563.57L629.57 564.24L628.73 564.89L627.87 565.5L626.98 566.07L626.06 566.62L625.13 567.13L624.17 567.6L623.2 568.04L622.2 568.43L621.18 568.8L620.15 569.12L619.1 569.4L618.04 569.64L616.96 569.84L615.86 570L614.75 570.11L613.63 570.18L612.5 570.2L532.5 570.2L532.5 592.7L532.48 593.83L532.41 594.95L532.3 596.06L532.14 597.15L531.94 598.23L531.7 599.3L531.42 600.35L531.1 601.38L530.74 602.4L530.34 603.39L529.9 604.37L529.43 605.33L528.92 606.26L528.37 607.17L527.8 608.06L527.19 608.93L526.55 609.77L525.87 610.59L525.17 611.37L524.44 612.14L523.68 612.87L522.89 613.57L522.07 614.24L521.23 614.89L520.37 615.5L519.48 616.07L518.56 616.62L517.63 617.13L516.67 617.6L515.7 618.04L514.7 618.43L513.68 618.8L512.65 619.12L511.6 619.4L510.54 619.64L509.46 619.84L508.36 620L507.25 620.11L506.13 620.18L505 620.2L135 620.2L133.87 620.18L132.75 620.11L131.64 620L130.54 619.84L129.46 619.64L128.4 619.4L127.35 619.12L126.32 618.8L125.3 618.43L124.3 618.04L123.33 617.6L122.37 617.13L121.44 616.62L120.52 616.07L119.63 615.5L118.77 614.89L117.93 614.24L117.11 613.57L116.32 612.87L115.56 612.14L114.83 611.37L114.13 610.59L113.45 609.77L112.81 608.93L112.2 608.06L111.63 607.17L111.08 606.26L110.57 605.33L110.1 604.37L109.66 603.39L109.26 602.4L108.9 601.38L108.58 600.35L108.3 599.3L108.06 598.23L107.86 597.15L107.7 596.06L107.59 594.95L107.52 593.83L107.5 592.7L107.5 570.2L27.5 570.2L26.37 570.18L25.25 570.11L24.14 570L23.04 569.84L21.96 569.64L20.9 569.4L19.85 569.12L18.82 568.8L17.8 568.43L16.8 568.04L15.83 567.6L14.87 567.13L13.94 566.62L13.02 566.07L12.13 565.5L11.27 564.89L10.43 564.24L9.61 563.57L8.82 562.87L8.06 562.14L7.33 561.37L6.63 560.59L5.95 559.77L5.31 558.93L4.7 558.06L4.13 557.17L3.58 556.26L3.07 555.33L2.6 554.37L2.16 553.39L1.76 552.4L1.4 551.38L1.08 550.35L0.8 549.3L0.56 548.23L0.36 547.15L0.2 546.06L0.09 544.95L0.02 543.83L0 542.7L0 122.5L0.02 121.37L0.09 120.25L0.2 119.14L0.36 118.04L0.56 116.96L0.8 115.9L1.08 114.85L1.4 113.82L1.76 112.8L2.16 111.8L2.6 110.83L3.07 109.87L3.58 108.94L4.13 108.02L4.7 107.13L5.31 106.27L5.95 105.43L6.63 104.61L7.33 103.82L8.06 103.06L8.82 102.33L9.61 101.63L10.43 100.95L11.27 100.31L12.13 99.7L13.02 99.13L13.94 98.58L14.87 98.07L15.83 97.6L16.8 97.16L17.8 96.76L18.82 96.4L19.85 96.08L20.9 95.8L21.96 95.56L23.04 95.36L24.14 95.2L25.25 95.09L26.37 95.02L27.5 95L107.5 95L107.5 47.5L107.52 46.37L107.59 45.25L107.7 44.14L107.86 43.04L108.06 41.96L108.3 40.9L108.58 39.85L108.9 38.82L109.26 37.8L109.66 36.8L110.1 35.83L110.57 34.87L111.08 33.94L111.63 33.02L112.2 32.13L112.81 31.27L113.45 30.43L114.13 29.61L114.83 28.82L115.56 28.06L116.32 27.33L117.11 26.63L117.93 25.95L118.77 25.31L119.63 24.7L120.52 24.13L121.44 23.58L122.37 23.07L123.33 22.6L124.3 22.16L125.3 21.76L126.32 21.4L127.35 21.08L128.4 20.8L129.46 20.56L130.54 20.36L131.64 20.2L132.75 20.09L133.87 20.02L135 20L505 20L506.13 20.02L507.25 20.09ZM132.5 445.3L159.47 445.3L159.98 445.31L160.49 445.34L161 445.4L161.49 445.47L161.99 445.56L162.47 445.67L162.95 445.79L163.42 445.94L163.88 446.1L164.33 446.28L164.78 446.48L165.21 446.7L165.64 446.93L166.05 447.18L166.45 447.44L166.85 447.71L167.23 448.01L167.6 448.31L167.96 448.63L168.31 448.96L168.64 449.31L168.96 449.67L169.26 450.04L169.55 450.42L169.83 450.81L170.09 451.22L170.34 451.63L170.57 452.06L170.79 452.49L170.98 452.94L171.17 453.39L171.33 453.85L171.48 454.32L171.6 454.8L171.71 455.28L171.8 455.77L171.88 456.27L171.93 456.78L171.96 457.29L171.97 457.8L171.96 458.32L171.93 458.83L171.88 459.33L171.8 459.83L171.71 460.32L171.6 460.81L171.48 461.28L171.33 461.75L171.17 462.21L170.98 462.67L170.79 463.11L170.57 463.55L170.34 463.97L170.09 464.39L169.83 464.79L169.55 465.18L169.26 465.57L168.96 465.94L168.64 466.29L168.31 466.64L167.96 466.97L167.6 467.29L167.23 467.6L166.85 467.89L166.45 468.17L166.05 468.43L165.64 468.68L165.21 468.91L164.78 469.12L164.33 469.32L163.88 469.5L163.42 469.67L162.95 469.81L162.47 469.94L161.99 470.05L161.49 470.14L161 470.21L160.49 470.26L159.98 470.29L159.47 470.3L132.5 470.3L132.5 592.7L132.5 592.8L132.51 592.9L132.52 593L132.53 593.1L132.55 593.2L132.57 593.29L132.6 593.39L132.63 593.48L132.66 593.57L132.7 593.66L132.74 593.75L132.78 593.84L132.83 593.92L132.88 594L132.93 594.09L132.99 594.16L133.05 594.24L133.11 594.32L133.17 594.39L133.24 594.46L133.31 594.52L133.38 594.59L133.46 594.65L133.53 594.71L133.61 594.77L133.69 594.82L133.78 594.87L133.86 594.92L133.95 594.96L134.04 595L134.13 595.04L134.22 595.07L134.31 595.1L134.41 595.13L134.5 595.15L134.6 595.17L134.7 595.18L134.8 595.19L134.9 595.2L135 595.2L505 595.2L505.1 595.2L505.2 595.19L505.3 595.18L505.4 595.17L505.5 595.15L505.59 595.13L505.69 595.1L505.78 595.07L505.87 595.04L505.96 595L506.05 594.96L506.14 594.92L506.22 594.87L506.31 594.82L506.39 594.77L506.47 594.71L506.54 594.65L506.62 594.59L506.69 594.52L506.76 594.46L506.83 594.39L506.89 594.32L506.95 594.24L507.01 594.16L507.07 594.09L507.12 594L507.17 593.92L507.22 593.84L507.26 593.75L507.3 593.66L507.34 593.57L507.37 593.48L507.4 593.39L507.43 593.29L507.45 593.2L507.47 593.1L507.48 593L507.49 592.9L507.5 592.8L507.5 592.7L507.5 470.3L259.47 470.3L258.95 470.29L258.44 470.26L257.94 470.21L257.44 470.14L256.95 470.05L256.46 469.94L255.99 469.81L255.52 469.67L255.05 469.5L254.6 469.32L254.16 469.12L253.72 468.91L253.3 468.68L252.88 468.43L252.48 468.17L252.09 467.89L251.7 467.6L251.33 467.29L250.97 466.97L250.63 466.64L250.3 466.29L249.98 465.94L249.67 465.57L249.38 465.18L249.1 464.79L248.84 464.39L248.59 463.97L248.36 463.55L248.15 463.11L247.95 462.67L247.77 462.21L247.6 461.75L247.46 461.28L247.33 460.81L247.22 460.32L247.13 459.83L247.06 459.33L247.01 458.83L246.98 458.32L246.97 457.8L246.98 457.29L247.01 456.78L247.06 456.27L247.13 455.77L247.22 455.28L247.33 454.8L247.46 454.32L247.6 453.85L247.77 453.39L247.95 452.94L248.15 452.49L248.36 452.06L248.59 451.63L248.84 451.22L249.1 450.81L249.38 450.42L249.67 450.04L249.98 449.67L250.3 449.31L250.63 448.96L250.97 448.63L251.33 448.31L251.7 448.01L252.09 447.71L252.48 447.44L252.88 447.18L253.3 446.93L253.72 446.7L254.16 446.48L254.6 446.28L255.05 446.1L255.52 445.94L255.99 445.79L256.46 445.67L256.95 445.56L257.44 445.47L257.94 445.4L258.44 445.34L258.95 445.31L259.47 445.3L307.5 445.3L307.5 270.2L132.5 270.2L132.5 445.3ZM532.5 545.2L612.5 545.2L612.6 545.2L612.7 545.19L612.8 545.18L612.9 545.17L613 545.15L613.09 545.13L613.19 545.1L613.28 545.07L613.37 545.04L613.46 545L613.55 544.96L613.64 544.92L613.72 544.87L613.81 544.82L613.89 544.77L613.97 544.71L614.04 544.65L614.12 544.59L614.19 544.52L614.26 544.46L614.33 544.39L614.39 544.32L614.45 544.24L614.51 544.16L614.57 544.09L614.62 544L614.67 543.92L614.72 543.84L614.76 543.75L614.8 543.66L614.84 543.57L614.87 543.48L614.9 543.39L614.93 543.29L614.95 543.2L614.97 543.1L614.98 543L614.99 542.9L615 542.8L615 542.7L615 195L532.5 195L532.5 545.2ZM25 542.7L25 542.8L25.01 542.9L25.02 543L25.03 543.1L25.05 543.2L25.07 543.29L25.1 543.39L25.13 543.48L25.16 543.57L25.2 543.66L25.24 543.75L25.28 543.84L25.33 543.92L25.38 544L25.43 544.09L25.49 544.16L25.55 544.24L25.61 544.32L25.67 544.39L25.74 544.46L25.81 544.52L25.88 544.59L25.96 544.65L26.03 544.71L26.11 544.77L26.19 544.82L26.28 544.87L26.36 544.92L26.45 544.96L26.54 545L26.63 545.04L26.72 545.07L26.81 545.1L26.91 545.13L27 545.15L27.1 545.17L27.2 545.18L27.3 545.19L27.4 545.2L27.5 545.2L107.5 545.2L107.5 195L25 195L25 542.7ZM489.83 445.3L418.82 374.25L349.55 445.3L489.83 445.3ZM507.5 427.61L507.5 283.3L436.27 356.35L507.5 427.61ZM401.14 356.57L332.5 287.89L332.5 426.97L401.14 356.57ZM418.6 338.67L485.35 270.2L350.17 270.2L418.6 338.67ZM132.5 245.2L507.5 245.2L507.5 120L132.5 120L132.5 245.2ZM532.5 132.61L577.5 132.61L578.02 132.62L578.53 132.65L579.03 132.7L579.53 132.78L580.02 132.87L580.5 132.98L580.98 133.1L581.45 133.25L581.91 133.41L582.37 133.59L582.81 133.79L583.24 134.01L583.67 134.24L584.08 134.48L584.49 134.75L584.88 135.02L585.26 135.32L585.64 135.62L585.99 135.94L586.34 136.27L586.67 136.62L586.99 136.98L587.3 137.35L587.59 137.73L587.87 138.12L588.13 138.53L588.37 138.94L588.6 139.37L588.82 139.8L589.02 140.25L589.2 140.7L589.36 141.16L589.51 141.63L589.64 142.11L589.75 142.59L589.84 143.08L589.91 143.58L589.96 144.09L589.99 144.6L590 145.11L589.99 145.63L589.96 146.14L589.91 146.64L589.84 147.14L589.75 147.63L589.64 148.11L589.51 148.59L589.36 149.06L589.2 149.52L589.02 149.98L588.82 150.42L588.6 150.85L588.37 151.28L588.13 151.69L587.87 152.1L587.59 152.49L587.3 152.88L586.99 153.25L586.67 153.6L586.34 153.95L585.99 154.28L585.64 154.6L585.26 154.91L584.88 155.2L584.49 155.48L584.08 155.74L583.67 155.99L583.24 156.22L582.81 156.43L582.37 156.63L581.91 156.81L581.45 156.97L580.98 157.12L580.5 157.25L580.02 157.36L579.53 157.45L579.03 157.52L578.53 157.57L578.02 157.6L577.5 157.61L532.5 157.61L532.5 170L615 170L615 122.5L615 122.4L614.99 122.3L614.98 122.2L614.97 122.1L614.95 122L614.93 121.91L614.9 121.81L614.87 121.72L614.84 121.63L614.8 121.54L614.76 121.45L614.72 121.36L614.67 121.28L614.62 121.19L614.57 121.11L614.51 121.03L614.45 120.96L614.39 120.88L614.33 120.81L614.26 120.74L614.19 120.67L614.12 120.61L614.04 120.55L613.97 120.49L613.89 120.43L613.81 120.38L613.72 120.33L613.64 120.28L613.55 120.24L613.46 120.2L613.37 120.16L613.28 120.13L613.19 120.1L613.09 120.07L613 120.05L612.9 120.03L612.8 120.02L612.7 120.01L612.6 120L612.5 120L532.5 120L532.5 132.61ZM27.4 120L27.3 120.01L27.2 120.02L27.1 120.03L27 120.05L26.91 120.07L26.81 120.1L26.72 120.13L26.63 120.16L26.54 120.2L26.45 120.24L26.36 120.28L26.28 120.33L26.19 120.38L26.11 120.43L26.03 120.49L25.96 120.55L25.88 120.61L25.81 120.67L25.74 120.74L25.67 120.81L25.61 120.88L25.55 120.96L25.49 121.03L25.43 121.11L25.38 121.19L25.33 121.28L25.28 121.36L25.24 121.45L25.2 121.54L25.16 121.63L25.13 121.72L25.1 121.81L25.07 121.91L25.05 122L25.03 122.1L25.02 122.2L25.01 122.3L25 122.4L25 122.5L25 170L107.5 170L107.5 120L27.5 120L27.4 120ZM134.9 45L134.8 45.01L134.7 45.02L134.6 45.03L134.5 45.05L134.41 45.07L134.31 45.1L134.22 45.13L134.13 45.16L134.04 45.2L133.95 45.24L133.86 45.28L133.78 45.33L133.69 45.38L133.61 45.43L133.53 45.49L133.46 45.55L133.38 45.61L133.31 45.67L133.24 45.74L133.17 45.81L133.11 45.88L133.05 45.96L132.99 46.03L132.93 46.11L132.88 46.19L132.83 46.28L132.78 46.36L132.74 46.45L132.7 46.54L132.66 46.63L132.63 46.72L132.6 46.81L132.57 46.91L132.55 47L132.53 47.1L132.52 47.2L132.51 47.3L132.5 47.4L132.5 47.5L132.5 95L507.5 95L507.5 47.5L507.5 47.4L507.49 47.3L507.48 47.2L507.47 47.1L507.45 47L507.43 46.91L507.4 46.81L507.37 46.72L507.34 46.63L507.3 46.54L507.26 46.45L507.22 46.36L507.17 46.28L507.12 46.19L507.07 46.11L507.01 46.03L506.95 45.96L506.89 45.88L506.83 45.81L506.76 45.74L506.69 45.67L506.62 45.61L506.54 45.55L506.47 45.49L506.39 45.43L506.31 45.38L506.22 45.33L506.14 45.28L506.05 45.24L505.96 45.2L505.87 45.16L505.78 45.13L505.69 45.1L505.59 45.07L505.5 45.05L505.4 45.03L505.3 45.02L505.2 45.01L505.1 45L505 45L135 45L134.9 45Z" id="a1ByOCPSO"></path><path d="M209.86 445.12L210.19 445.15L210.52 445.18L210.84 445.23L211.17 445.28L211.49 445.34L211.65 445.37L211.81 445.41L211.97 445.44L212.13 445.48L212.28 445.52L212.44 445.57L212.6 445.61L212.75 445.66L212.91 445.71L213.06 445.76L213.22 445.82L213.37 445.87L213.52 445.93L213.67 445.99L213.82 446.05L213.98 446.11L214.13 446.18L214.28 446.25L214.43 446.32L214.58 446.39L214.72 446.46L214.87 446.53L215.01 446.61L215.15 446.69L215.3 446.77L215.44 446.85L215.58 446.94L215.71 447.02L215.85 447.11L215.99 447.2L216.12 447.29L216.26 447.39L216.39 447.49L216.53 447.58L216.66 447.68L216.79 447.78L216.91 447.89L217.04 447.99L217.17 448.1L217.29 448.21L217.41 448.31L217.53 448.42L217.65 448.54L217.77 448.65L217.89 448.76L218.34 449.24L218.76 449.74L219.16 450.26L219.53 450.8L219.87 451.36L220.18 451.93L220.46 452.52L220.71 453.12L220.93 453.74L221.11 454.36L221.27 455L221.39 455.64L221.48 456.29L221.53 456.94L221.55 457.6L221.55 457.76L221.54 457.92L221.54 458.09L221.53 458.25L221.52 458.42L221.51 458.58L221.5 458.74L221.48 458.91L221.47 459.07L221.45 459.23L221.42 459.39L221.4 459.56L221.37 459.72L221.34 459.88L221.31 460.04L221.28 460.2L221.24 460.36L221.2 460.52L221.16 460.68L221.12 460.83L221.08 460.99L221.03 461.15L220.98 461.3L220.93 461.46L220.88 461.61L220.82 461.77L220.77 461.92L220.71 462.07L220.65 462.22L220.59 462.37L220.52 462.52L220.46 462.68L220.39 462.83L220.32 462.97L220.25 463.12L220.18 463.27L220.1 463.42L220.02 463.56L219.95 463.7L219.87 463.85L219.78 463.99L219.7 464.13L219.61 464.26L219.53 464.4L219.44 464.54L219.35 464.67L219.25 464.81L219.16 464.94L219.06 465.08L218.96 465.21L218.86 465.34L218.76 465.46L218.66 465.59L218.55 465.72L218.44 465.84L218.33 465.96L218.22 466.08L218.11 466.2L218 466.32L217.89 466.44L217.77 466.55L217.65 466.66L217.53 466.78L217.41 466.89L217.29 466.99L217.17 467.1L217.04 467.21L216.91 467.31L216.79 467.41L216.66 467.51L216.53 467.61L216.39 467.71L216.26 467.8L216.12 467.9L215.99 467.99L215.85 468.08L215.71 468.16L215.58 468.25L215.44 468.33L215.3 468.42L215.15 468.5L215.01 468.57L214.87 468.65L214.72 468.73L214.57 468.8L214.42 468.87L214.28 468.94L214.13 469.01L213.98 469.07L213.82 469.14L213.67 469.2L213.52 469.26L213.37 469.31L213.22 469.37L213.06 469.42L212.91 469.48L212.75 469.52L212.6 469.57L212.44 469.62L212.28 469.66L212.12 469.7L211.96 469.74L211.8 469.78L211.64 469.82L211.48 469.85L211.32 469.88L211.16 469.91L211 469.94L210.84 469.96L210.68 469.98L210.52 470.01L210.35 470.02L210.19 470.04L210.03 470.06L209.87 470.07L209.7 470.08L209.54 470.09L209.37 470.09L209.21 470.1L209.05 470.1L208.89 470.1L208.72 470.09L208.56 470.09L208.4 470.08L208.23 470.07L208.07 470.06L207.91 470.04L207.74 470.02L207.58 470.01L207.42 469.98L207.26 469.96L207.09 469.94L206.93 469.91L206.77 469.88L206.61 469.85L206.45 469.82L206.29 469.78L206.13 469.74L205.97 469.7L205.82 469.66L205.66 469.62L205.5 469.57L205.35 469.52L205.19 469.48L205.04 469.42L204.88 469.37L204.73 469.31L204.58 469.26L204.43 469.2L204.28 469.14L204.12 469.07L203.97 469.01L203.82 468.94L203.67 468.87L203.53 468.8L203.38 468.73L203.23 468.65L203.09 468.57L202.95 468.5L202.8 468.42L202.66 468.33L202.52 468.25L202.39 468.16L202.25 468.08L202.11 467.99L201.98 467.9L201.84 467.8L201.71 467.71L201.57 467.61L201.44 467.51L201.31 467.41L201.18 467.31L201.06 467.21L200.93 467.1L200.81 466.99L200.69 466.89L200.57 466.78L200.45 466.66L200.33 466.55L200.21 466.44L200.1 466.32L199.99 466.2L199.88 466.08L199.76 465.96L199.66 465.84L199.55 465.72L199.44 465.59L199.34 465.46L199.24 465.34L199.14 465.21L199.04 465.08L198.94 464.94L198.85 464.81L198.75 464.67L198.66 464.54L198.57 464.4L198.48 464.26L198.39 464.13L198.31 463.99L198.23 463.85L198.15 463.7L198.07 463.56L197.99 463.42L197.92 463.27L197.85 463.12L197.78 462.97L197.71 462.83L197.64 462.68L197.58 462.52L197.51 462.37L197.45 462.22L197.39 462.07L197.33 461.92L197.28 461.77L197.22 461.61L197.17 461.46L197.12 461.3L197.07 461.15L197.03 460.99L196.98 460.83L196.94 460.68L196.9 460.52L196.87 460.36L196.83 460.2L196.8 460.04L196.77 459.88L196.74 459.72L196.71 459.56L196.69 459.39L196.66 459.23L196.64 459.07L196.62 458.91L196.61 458.74L196.59 458.58L196.58 458.42L196.57 458.25L196.56 458.09L196.56 457.92L196.55 457.76L196.55 457.6L196.57 456.94L196.62 456.29L196.71 455.64L196.83 454.99L196.99 454.36L197.17 453.73L197.39 453.12L197.64 452.52L197.92 451.93L198.23 451.36L198.57 450.8L198.94 450.26L199.34 449.74L199.76 449.24L200.21 448.76L200.33 448.65L200.45 448.54L200.57 448.42L200.69 448.31L200.81 448.21L200.93 448.1L201.06 447.99L201.19 447.89L201.31 447.78L201.44 447.68L201.58 447.58L201.71 447.49L201.84 447.39L201.98 447.29L202.11 447.2L202.25 447.11L202.39 447.02L202.52 446.94L202.66 446.85L202.81 446.77L202.95 446.69L203.09 446.61L203.24 446.53L203.38 446.46L203.53 446.39L203.68 446.32L203.82 446.25L203.97 446.18L204.13 446.11L204.28 446.05L204.43 445.99L204.58 445.93L204.73 445.87L204.88 445.82L205.04 445.76L205.19 445.71L205.35 445.66L205.5 445.61L205.66 445.57L205.82 445.52L205.97 445.48L206.13 445.44L206.29 445.41L206.45 445.37L206.61 445.34L206.93 445.28L207.25 445.23L207.58 445.18L207.9 445.15L208.23 445.12L208.55 445.1L208.88 445.1L209.21 445.1L209.54 445.1L209.86 445.12Z" id="bjgYghbT"></path></defs><g><g><g><use xlink:href="#a13ht3hG3L" opacity="1" fill="#f8f8f8" fill-opacity="1"></use><g><use xlink:href="#a13ht3hG3L" opacity="1" fill-opacity="0" stroke="#000000" stroke-width="1" stroke-opacity="0"></use></g></g><g><use xlink:href="#a2jjoKDM20" opacity="1" fill="#f8f8f8" fill-opacity="1"></use><g><use xlink:href="#a2jjoKDM20" opacity="1" fill-opacity="0" stroke="#000000" stroke-width="1" stroke-opacity="0"></use></g></g><g><use xlink:href="#dnJcKqoaV" opacity="1" fill="#f8f8f8" fill-opacity="1"></use><g><use xlink:href="#dnJcKqoaV" opacity="1" fill-opacity="0" stroke="#000000" stroke-width="1" stroke-opacity="0"></use></g></g><g><use xlink:href="#abalVTN28" opacity="1" fill="#f8f8f8" fill-opacity="1"></use><g><use xlink:href="#abalVTN28" opacity="1" fill-opacity="0" stroke="#000000" stroke-width="1" stroke-opacity="0"></use></g></g><g><use xlink:href="#abmTAwmUPs" opacity="1" fill="#f8f8f8" fill-opacity="1"></use><g><use xlink:href="#abmTAwmUPs" opacity="1" fill-opacity="0" stroke="#000000" stroke-width="1" stroke-opacity="0"></use></g></g><g><use xlink:href="#cuJaYyomT" opacity="1" fill="#f8f8f8" fill-opacity="1"></use><g><use xlink:href="#cuJaYyomT" opacity="1" fill-opacity="0" stroke="#000000" stroke-width="1" stroke-opacity="0"></use></g></g><g><use xlink:href="#a2U5VtS7ri" opacity="1" fill="#f8f8f8" fill-opacity="1"></use><g><use xlink:href="#a2U5VtS7ri" opacity="1" fill-opacity="0" stroke="#000000" stroke-width="1" stroke-opacity="0"></use></g></g><g><use xlink:href="#b1sf4OwYbw" opacity="1" fill="#f8f8f8" fill-opacity="1"></use><g><use xlink:href="#b1sf4OwYbw" opacity="1" fill-opacity="0" stroke="#000000" stroke-width="1" stroke-opacity="0"></use></g></g><g><use xlink:href="#gQkx5Nr60" opacity="1" fill="#f8f8f8" fill-opacity="1"></use><g><use xlink:href="#gQkx5Nr60" opacity="1" fill-opacity="0" stroke="#000000" stroke-width="1" stroke-opacity="0"></use></g></g><g><use xlink:href="#aZviStP36" opacity="1" fill="#f8f8f8" fill-opacity="1"></use><g><use xlink:href="#aZviStP36" opacity="1" fill-opacity="0" stroke="#000000" stroke-width="1" stroke-opacity="0"></use></g></g><g><use xlink:href="#b1gSeuj5NQ" opacity="1" fill="#f8f8f8" fill-opacity="1"></use><g><use xlink:href="#b1gSeuj5NQ" opacity="1" fill-opacity="0" stroke="#000000" stroke-width="1" stroke-opacity="0"></use></g></g><g><use xlink:href="#csSxQ9QJt" opacity="1" fill="#f8f8f8" fill-opacity="1"></use><g><use xlink:href="#csSxQ9QJt" opacity="1" fill-opacity="0" stroke="#000000" stroke-width="1" stroke-opacity="0"></use></g></g><g><use xlink:href="#a1ByOCPSO" opacity="1" fill="#f8f8f8" fill-opacity="1"></use><g><use xlink:href="#a1ByOCPSO" opacity="1" fill-opacity="0" stroke="#000000" stroke-width="1" stroke-opacity="0"></use></g></g><g><use xlink:href="#bjgYghbT" opacity="1" fill="#f8f8f8" fill-opacity="1"></use><g><use xlink:href="#bjgYghbT" opacity="1" fill-opacity="0" stroke="#000000" stroke-width="1" stroke-opacity="0"></use></g></g></g></g></svg>