<svg viewBox="0 -15 512 511" xmlns="http://www.w3.org/2000/svg"><path d="m190 50.589844h186c5.523438 0 10-4.480469 10-10 0-5.523438-4.476562-10-10-10h-186c-5.523438 0-10 4.476562-10 10 0 5.519531 4.476562 10 10 10zm0 0"/><path d="m129.558594 44.410156c.25.609375.5625 1.1875.921875 1.730469.359375.546875.78125 1.058594 1.238281 1.519531.460938.460938.972656.878906 1.523438 1.238282.539062.359374 1.117187.671874 1.726562.921874.601562.25 1.230469.4375 1.871094.570313.640625.128906 1.300781.199219 1.949218.199219.648438 0 1.3125-.070313 1.960938-.199219.640625-.132813 1.269531-.320313 1.871094-.570313.597656-.25 1.179687-.5625 1.71875-.921874.550781-.359376 1.058594-.777344 1.519531-1.238282.460937-.460937.882813-.972656 1.25-1.519531.359375-.542969.671875-1.121094.921875-1.730469.25-.601562.4375-1.230468.570312-1.871094.128907-.640624.1875-1.300781.1875-1.949218 0-.648438-.058593-1.308594-.1875-1.960938-.132812-.628906-.320312-1.257812-.570312-1.867187-.25-.601563-.5625-1.183594-.921875-1.722657-.367187-.550781-.789063-1.058593-1.25-1.519531-.460937-.460937-.96875-.878906-1.519531-1.25-.539063-.359375-1.121094-.671875-1.71875-.921875-.609375-.25-1.230469-.4375-1.871094-.566406-1.289062-.261719-2.621094-.261719-3.910156 0-.640625.128906-1.269532.316406-1.871094.566406-.609375.25-1.1875.5625-1.726562.921875-.550782.371094-1.0625.789063-1.523438 1.25-.457031.460938-.878906.96875-1.238281 1.519531-.359375.539063-.671875 1.121094-.921875 1.722657-.25.609375-.4375 1.238281-.566406 1.867187-.132813.652344-.191407 1.3125-.191407 1.960938 0 .648437.058594 1.308594.191407 1.949218.128906.640626.316406 1.269532.566406 1.871094zm0 0"/><path d="m43.238281 108.898438c.542969.359374 1.121094.671874 1.730469.921874.601562.25 1.230469.4375 1.871094.570313.640625.128906 1.300781.199219 1.949218.199219.648438 0 1.308594-.070313 1.960938-.199219.640625-.132813 1.257812-.320313 1.867188-.570313.601562-.25 1.183593-.5625 1.722656-.921874.550781-.359376 1.058594-.777344 1.519531-1.238282 1.871094-1.859375 2.929687-4.441406 2.929687-7.070312 0-.648438-.058593-1.308594-.1875-1.960938-.132812-.628906-.320312-1.257812-.570312-1.867187-.25-.601563-.5625-1.183594-.921875-1.722657-.367187-.550781-.777344-1.058593-1.25-1.519531-.460937-.460937-.96875-.878906-1.519531-1.25-.539063-.359375-1.121094-.671875-1.71875-.921875-.609375-.25-1.230469-.4375-1.871094-.566406-1.300781-.261719-2.621094-.261719-3.910156 0-.640625.128906-1.269532.316406-1.871094.566406-.609375.25-1.1875.5625-1.726562.921875-.550782.371094-1.0625.789063-1.523438 1.25-.457031.460938-.878906.96875-1.238281 1.519531-.359375.539063-.671875 1.121094-.921875 1.722657-.25.609375-.4375 1.238281-.566406 1.867187-.132813.652344-.203126 1.3125-.203126 1.960938 0 2.628906 1.070313 5.210937 2.933594 7.070312.457032.460938.964844.878906 1.515625 1.238282zm0 0"/><path d="m235.960938 125.761719c-.25-.601563-.5625-1.183594-.921876-1.722657-.367187-.550781-.777343-1.058593-1.25-1.519531-.460937-.460937-.96875-.878906-1.519531-1.25-.539062-.359375-1.121093-.671875-1.71875-.921875-.601562-.25-1.230469-.4375-1.871093-.566406-1.289063-.261719-2.621094-.261719-3.910157 0-.640625.128906-1.269531.316406-1.871093.566406-.597657.25-1.179688.5625-1.726563.921875-.542969.371094-1.0625.789063-1.523437 1.25-.460938.460938-.878907.96875-1.238282 1.519531-.359375.539063-.671875 1.121094-.921875 1.722657-.25.609375-.4375 1.238281-.566406 1.867187-.132813.652344-.203125 1.3125-.203125 1.960938 0 .648437.070312 1.308594.203125 1.949218.128906.640626.316406 1.269532.566406 1.871094.25.609375.5625 1.1875.921875 1.730469.359375.546875.777344 1.058594 1.238282 1.519531.460937.460938.980468.878906 1.523437 1.238282.539063.359374 1.128906.671874 1.726563.921874.601562.25 1.230468.4375 1.871093.570313.640625.128906 1.300781.199219 1.960938.199219.648437 0 1.300781-.070313 1.949219-.199219.640624-.132813 1.269531-.320313 1.871093-.570313.597657-.25 1.179688-.5625 1.71875-.921874.550781-.359376 1.058594-.777344 1.519531-1.238282.472657-.460937.882813-.972656 1.25-1.519531.359376-.542969.671876-1.121094.921876-1.730469.25-.601562.4375-1.230468.570312-1.871094.128906-.640624.199219-1.300781.199219-1.949218 0-.648438-.070313-1.308594-.199219-1.960938-.132812-.628906-.320312-1.257812-.570312-1.867187zm0 0"/><path d="m256 139.589844c2.628906 0 5.210938-1.070313 7.070312-2.929688 1.859376-1.859375 2.929688-4.441406 2.929688-7.070312 0-.648438-.070312-1.308594-.199219-1.960938-.128906-.628906-.320312-1.257812-.570312-1.867187-.25-.601563-.558594-1.183594-.921875-1.722657-.359375-.550781-.777344-1.058593-1.238282-1.519531-2.320312-2.332031-5.78125-3.390625-9.019531-2.738281-.640625.128906-1.269531.316406-1.878906.566406-.601563.25-1.183594.5625-1.722656.921875-.550781.371094-1.058594.789063-1.519531 1.25-.460938.460938-.878907.96875-1.25 1.519531-.359376.539063-.671876 1.121094-.921876 1.722657-.25.609375-.4375 1.238281-.570312 1.867187-.128906.652344-.1875 1.3125-.1875 1.960938 0 .648437.058594 1.308594.1875 1.949218.132812.640626.332031 1.269532.582031 1.871094.25.609375.558594 1.1875.917969 1.730469.363281.546875.78125 1.058594 1.242188 1.519531.460937.460938.96875.878906 1.519531 1.238282.539062.359374 1.121093.671874 1.722656.921874.609375.25 1.238281.4375 1.878906.570313.640625.128906 1.300781.199219 1.949219.199219zm0 0"/><path d="m276.039062 133.410156c.25.609375.5625 1.1875.921876 1.730469.359374.546875.777343 1.058594 1.238281 1.519531.460937.460938.980469.878906 1.53125 1.238282.539062.359374 1.117187.671874 1.71875.921874.609375.25 1.230469.4375 1.871093.570313.648438.128906 1.300782.199219 1.960938.199219.648438 0 1.296875-.070313 1.949219-.199219.640625-.132813 1.269531-.320313 1.867187-.570313.601563-.25 1.183594-.5625 1.730469-.921874.539063-.359376 1.0625-.777344 1.519531-1.238282.460938-.460937.882813-.972656 1.242188-1.519531.359375-.542969.667968-1.121094.917968-1.730469.25-.601562.441407-1.230468.570313-1.871094.132813-.640624.191406-1.300781.191406-1.949218 0-.648438-.0625-1.308594-.191406-1.960938-.128906-.628906-.320313-1.257812-.570313-1.867187-.25-.601563-.558593-1.183594-.917968-1.722657-.359375-.550781-.78125-1.058593-1.242188-1.519531-.457031-.46875-.976562-.878906-1.519531-1.25-.550781-.359375-1.128906-.671875-1.730469-.921875-.597656-.25-1.226562-.4375-1.867187-.566406-1.292969-.261719-2.621094-.261719-3.910157 0-.640624.128906-1.261718.316406-1.871093.566406-.601563.25-1.179688.5625-1.71875.921875-.550781.371094-1.070313.78125-1.53125 1.25-.460938.460938-.878907.96875-1.238281 1.519531-.359376.539063-.671876 1.121094-.921876 1.722657-.25.609375-.4375 1.238281-.570312 1.867187-.128906.652344-.199219 1.3125-.199219 1.960938 0 .648437.070313 1.308594.199219 1.949218.132812.640626.320312 1.269532.570312 1.871094zm0 0"/><path d="m370 380.660156h-110c-5.523438 0-10 4.476563-10 10 0 5.519532 4.476562 10 10 10h110c5.523438 0 10-4.480468 10-10 0-5.523437-4.476562-10-10-10zm0 0"/><path d="m370 420.660156h-110c-5.523438 0-10 4.476563-10 10 0 5.519532 4.476562 10 10 10h110c5.523438 0 10-4.480468 10-10 0-5.523437-4.476562-10-10-10zm0 0"/><path d="m175 380.660156c-16.542969 0-30 13.457032-30 30 0 16.542969 13.457031 30 30 30s30-13.457031 30-30c0-16.542968-13.457031-30-30-30zm0 40c-5.515625 0-10-4.484375-10-10s4.484375-10 10-10 10 4.484375 10 10-4.484375 10-10 10zm0 0"/><path d="m130 240.660156h40c5.523438 0 10-4.480468 10-10 0-5.523437-4.476562-10-10-10h-40c-5.523438 0-10 4.476563-10 10 0 5.519532 4.476562 10 10 10zm0 0"/><path d="m130 280.578125h80c5.523438 0 10-4.476563 10-10 0-5.519531-4.476562-10-10-10h-80c-5.523438 0-10 4.480469-10 10 0 5.523437 4.476562 10 10 10zm0 0"/><path d="m200 310.660156c0-5.523437-4.476562-10-10-10h-60c-5.523438 0-10 4.476563-10 10 0 5.519532 4.476562 10 10 10h60c5.523438 0 10-4.476562 10-10zm0 0"/><path d="m490 60.5h-64v-38c0-12.132812-9.867188-22-22-22h-296c-12.132812 0-22 9.867188-22 22v38h-64c-12.132812 0-22 9.867188-22 22v336.160156c0 12.128906 9.867188 22 22 22h64v18c0 12.128906 9.867188 22 22 22h296c12.132812 0 22-9.871094 22-22v-18h64c12.132812 0 22-9.871094 22-22v-336.160156c0-12.132812-9.867188-22-22-22zm2 22v38h-66v-9.910156h36c5.523438 0 10-4.480469 10-10 0-5.523438-4.476562-10-10-10h-36v-10.089844h64c1.085938 0 2 .914062 2 2zm-386-2h300v100.160156h-149.984375c-.007813 0-.019531 0-.027344 0h-149.988281zm300 130.636719v115.453125l-56.980469-57.011719zm-71.121094 44.296875-54.746094-54.773438h108.148438zm-13.964844 14.320312-54.914062 56.324219v-111.269531zm14.140626 14.148438 56.8125 56.839844h-112.230469zm-227.054688-263.402344h296c1.085938 0 2 .914062 2 2v38h-300v-38c0-1.085938.914062-2 2-2zm-86 60h64v40h-66v-38c0-1.085938.914062-2 2-2zm0 340.160156c-1.085938 0-2-.917968-2-2v-278.160156h66v280.160156zm384 38c0 1.082032-.914062 2-2 2h-296c-1.085938 0-2-.917968-2-2v-97.917968h21.574219c5.519531 0 10-4.480469 10-10 0-5.523438-4.480469-10-10-10h-21.574219v-140.082032h140v140.082032h-38.425781c-5.523438 0-10 4.476562-10 10 0 5.519531 4.476562 10 10 10h198.425781zm84-38h-64v-69.910156c0-.003906 0-.007812 0-.011719v-210.238281h66v278.160156c0 1.082032-.914062 2-2 2zm0 0"/><path d="m171.058594 341.339844c-.597656-.25-1.226563-.441406-1.867188-.570313-1.292968-.257812-2.621094-.257812-3.902344 0-.640624.128907-1.269531.320313-1.867187.570313-.609375.25-1.191406.558594-1.730469.921875-.550781.367187-1.058594.789062-1.519531 1.25-1.859375 1.859375-2.929687 4.429687-2.929687 7.066406 0 .652344.066406 1.3125.199218 1.953125.117188.640625.320313 1.269531.570313 1.867188.25.609374.546875 1.191406.917969 1.730468.359374.550782.78125 1.058594 1.242187 1.519532.457031.460937.96875.882812 1.519531 1.242187.539063.359375 1.117188.667969 1.730469.917969.597656.25 1.226563.441406 1.867187.570312.640626.128906 1.300782.199219 1.949219.199219.652344 0 1.3125-.070313 1.949219-.199219.640625-.128906 1.273438-.320312 1.871094-.570312.609375-.25 1.191406-.558594 1.730468-.917969.550782-.359375 1.058594-.78125 1.519532-1.242187.460937-.460938.878906-.96875 1.242187-1.519532.359375-.539062.667969-1.121094.917969-1.730468.25-.597657.449219-1.226563.582031-1.867188.128907-.640625.1875-1.300781.1875-1.953125 0-2.628906-1.070312-5.207031-2.929687-7.066406-.460938-.460938-.96875-.882813-1.519532-1.25-.539062-.363281-1.117187-.671875-1.730468-.921875zm0 0"/></svg>